<svg preserveAspectRatio="none" width="100%" height="100%" overflow="visible" style="display: block;" viewBox="0 0 108 37" fill="none" xmlns="http://www.w3.org/2000/svg">
<g id="Layer_1" clip-path="url(#clip0_0_707)">
<path id="Vector" d="M16.1037 5.72471C14.2749 4.42894 12.1804 3.47921 9.9228 2.95639C9.25578 3.37201 8.76835 3.75943 8.1618 4.25028C10.4725 4.73737 12.6239 5.68146 14.4856 6.99415C15.0207 6.49954 15.4605 6.11965 16.1037 5.72659" fill="var(--fill-0, #FF6102)"/>
<path id="Vector_2" d="M19.8987 14.293C18.715 14.3381 17.8116 15.8784 17.8775 17.7346C17.9453 19.5908 18.9568 21.0577 20.1406 21.0126C21.3244 20.9674 22.2278 19.4272 22.1618 17.5728C22.094 15.7166 21.0825 14.2497 19.8987 14.2949" fill="var(--fill-0, #FF6102)"/>
<path id="Vector_3" d="M33.7888 17.1441C33.7284 15.4496 32.9386 14.103 32.0297 14.1388C31.1171 14.1726 30.4263 15.5756 30.4886 17.2701C30.549 18.9645 31.3388 20.3111 32.2514 20.2772C33.1603 20.2434 33.8511 18.8404 33.7888 17.1459" fill="var(--fill-0, #FF6102)"/>
<g id="Vector_4">
</g>
<g id="Vector_5">
</g>
<path id="Vector_6" d="M20.1516 6.13846C14.8759 6.7177 12.9372 12.1904 12.7631 12.7132C12.7558 12.7358 12.7485 12.7602 12.7503 12.7847C12.7503 12.7922 12.7503 12.7997 12.7521 12.8073C12.754 12.8223 12.7595 12.8355 12.7649 12.8486C12.7778 12.875 12.7961 12.8957 12.8199 12.9126C12.8437 12.9295 12.8731 12.937 12.9006 12.9389C12.9647 12.9408 13.0197 12.8994 13.049 12.843C13.5181 11.9365 14.5608 10.8457 14.5608 10.8457C16.9595 8.10562 20.4155 7.90627 20.4155 7.90627C22.0061 7.84609 22.1069 7.26873 22.1069 7.26873C22.4862 5.69086 20.1516 6.13658 20.1516 6.13658" fill="var(--fill-0, #FF6102)"/>
<path id="Vector_7" d="M13.1286 25.0917L13.082 25.0503C13.082 25.0503 13.0988 25.0654 13.1286 25.0917Z" fill="var(--fill-0, #FF6102)"/>
<path id="Vector_8" d="M39.3338 17.7667C38.9655 7.56226 30.111 -0.385385 19.5597 0.015194C16.866 0.116749 14.3188 0.754291 12.0283 1.81686C14.1576 2.48261 16.1257 3.51509 17.8427 4.85036C19.1107 4.33506 20.5456 4.0003 22.1471 3.88934C29.9828 3.34583 35.6652 8.58158 36.6713 15.303C38.4707 27.3411 29.6804 28.872 23.0762 28.4996C22.5521 28.4695 22.0409 28.4262 21.5443 28.3698C21.5333 28.3698 21.5241 28.3679 21.5131 28.3661C21.0458 28.3115 20.5932 28.2457 20.1516 28.1667C20.0691 28.1517 19.9848 28.1366 19.9042 28.1197C19.884 28.1159 19.8657 28.1122 19.8456 28.1084C15.7995 27.2772 13.4741 25.389 13.1314 25.0956C12.4296 26.0754 11.3063 26.9556 9.59475 27.232C9.59475 27.232 7.02564 27.689 4.71123 25.6053C4.61778 25.5206 4.72773 25.3288 4.84317 25.3796C6.35496 26.0792 9.65522 27.1474 12.0173 23.529C12.0209 23.5365 12.1272 23.3579 12.1272 23.3579C12.1859 23.2638 12.2427 23.1698 12.2995 23.0701C12.305 23.057 12.4332 22.7899 12.4827 22.6865C13.0416 21.449 13.3403 19.984 13.2853 18.423C13.2835 18.3478 13.2798 18.2726 13.2762 18.1974C13.2762 18.1861 13.2762 18.1748 13.2725 18.1635C13.2707 18.1297 13.267 18.0958 13.2633 18.062C13.256 17.9623 13.2432 17.8664 13.234 17.7686C13.223 17.6614 13.2157 17.5542 13.201 17.4507C13.1846 17.3229 13.1662 17.195 13.1442 17.069C13.1406 17.0483 13.1387 17.0257 13.1332 17.0031L13.0948 16.8753L13.1351 17.005C12.8126 15.1846 12.0081 13.6104 10.9196 12.5178C11.4144 11.0001 12.2133 9.48617 13.1974 8.2581C11.2605 6.90403 8.9992 5.97499 6.56752 5.58005C5.50286 6.6445 4.39788 8.11329 3.62092 9.39778L3.60259 5.75119C4.81752 5.36754 5.66595 4.15828 5.55234 2.78164C5.43139 1.33165 4.2238 0.184453 2.8073 0.171288C1.20939 0.158124 -0.0568406 1.51031 0.00179829 3.12956C0.0476099 4.42533 0.930858 5.48602 2.09814 5.79068L2.16044 12.4313C1.43662 14.8517 1.02981 16.7041 1.1196 19.2186C1.15259 20.1119 1.24971 21.0033 1.41463 21.8816C1.57589 22.7448 1.80128 23.5967 2.08714 24.4242C2.36934 25.2423 2.71201 26.0397 3.10783 26.807C3.50181 27.5705 3.95076 28.3059 4.44736 29.0036C4.94579 29.7032 5.49003 30.3671 6.07825 30.9877C6.66831 31.6139 7.30234 32.197 7.96936 32.7348C8.6437 33.2764 9.3547 33.7729 10.0932 34.2168C10.8427 34.6663 11.6196 35.0649 12.4204 35.4091C13.234 35.7589 14.0696 36.0504 14.9217 36.2855C15.7922 36.5243 16.6772 36.703 17.5696 36.8196C18.0113 36.8779 18.4529 36.9193 18.8963 36.9475C19.2757 36.9719 19.6678 37.0265 20.0526 36.9851C20.4613 36.9418 20.8113 36.7444 21.1704 36.5544C21.5772 36.3382 21.9749 36.1031 22.3524 35.8341C22.9223 35.4279 23.4537 34.9408 23.8422 34.3465C23.8697 34.3033 23.8916 34.2638 23.91 34.2168C23.4042 34.1773 22.8508 34.0776 22.2791 33.8971C22.2736 33.8952 22.2663 33.8933 22.2589 33.8914C22.2571 33.8914 22.2534 33.8914 22.2498 33.8858C22.171 33.8482 22.0958 33.7805 22.0922 33.6845C22.0885 33.598 22.1325 33.5228 22.1966 33.472C22.1966 33.472 24.1097 32.054 25.3979 30.5382L25.4199 30.542C25.4731 30.4987 25.5335 30.4705 25.5995 30.4856C25.66 30.4987 25.7095 30.5439 25.7498 30.5909C25.7498 30.5909 27.4393 32.4414 27.9377 32.827C27.9927 32.8702 28.0312 32.9342 28.033 33.0113C28.033 33.0188 28.0294 33.0263 28.0294 33.0357C28.0294 33.0414 28.033 33.047 28.0349 33.0526C28.0385 33.1166 28 33.1674 27.9469 33.2125C27.9194 33.2351 27.8883 33.2576 27.8589 33.2764C27.8516 33.2821 27.8424 33.2859 27.8351 33.2915C27.628 33.4269 27.1461 33.7109 26.4498 33.9347C26.0796 35.0236 25.878 35.6555 25.5152 36.1426C25.8927 36.0542 26.3087 35.9564 26.7814 35.8435C34.3477 33.1429 39.6307 25.9757 39.3338 17.7705M2.75233 18.6939C2.63505 15.446 4.53349 12.7359 6.99082 12.6419C9.44816 12.5479 11.5372 15.1056 11.6544 18.3553C11.7717 21.6032 9.87329 24.3132 7.41595 24.4073C4.95678 24.5013 2.86961 21.9436 2.75233 18.6939Z" fill="var(--fill-0, #FF6102)"/>
<path id="Vector_9" d="M55.1206 6.39046H58.7782V25.8007H55.1206V24.567C54.1017 25.6126 52.7658 26.1355 51.113 26.1355C49.1082 26.1355 47.481 25.4415 46.2276 24.0536C44.976 22.6656 44.3493 20.8659 44.3493 18.6542C44.3493 16.4426 44.976 14.6484 46.2276 13.268C47.4792 11.8895 49.1082 11.1993 51.113 11.1993C52.7823 11.1993 54.1182 11.7127 55.1206 12.7414V6.39046ZM54.0944 15.6978C53.409 14.9268 52.5496 14.5412 51.5143 14.5412C50.4789 14.5412 49.6195 14.9268 48.9342 15.6978C48.2488 16.4689 47.9061 17.4544 47.9061 18.6542C47.9061 19.8541 48.2488 20.8395 48.9342 21.6106C49.6195 22.3817 50.4789 22.7672 51.5143 22.7672C52.5496 22.7672 53.409 22.3817 54.0944 21.6106C54.7797 20.8395 55.1206 19.8541 55.1206 18.6542C55.1206 17.4544 54.7779 16.4689 54.0944 15.6978Z" fill="var(--fill-0, #FF6102)"/>
<path id="Vector_10" d="M69.5494 11.1993V14.9268C67.9955 14.9268 66.8557 15.3555 66.13 16.2131C65.4025 17.0707 65.0397 18.0731 65.0397 19.2203V25.8007H61.3821V11.5077H65.0397V13.5652C65.5399 12.8279 66.1868 12.2506 66.9803 11.8293C67.7737 11.4099 68.6295 11.1993 69.5475 11.1993" fill="var(--fill-0, #FF6102)"/>
<path id="Vector_11" d="M72.9816 13.2943C74.3504 11.897 76.0546 11.1993 78.0923 11.1993C80.13 11.1993 81.8324 11.897 83.2031 13.2943C84.5719 14.6917 85.2573 16.4783 85.2573 18.6542C85.2573 20.8301 84.5719 22.6224 83.2031 24.0272C81.8342 25.4321 80.13 26.1355 78.0923 26.1355C76.0546 26.1355 74.3504 25.4321 72.9816 24.0272C71.6127 22.6224 70.9274 20.8301 70.9274 18.6542C70.9274 16.4783 71.6127 14.6917 72.9816 13.2943ZM80.6724 15.6978C79.9871 14.9268 79.1277 14.5412 78.0923 14.5412C77.057 14.5412 76.1921 14.9268 75.4994 15.6978C74.8067 16.4689 74.4604 17.4544 74.4604 18.6542C74.4604 19.8541 74.8067 20.8433 75.4994 21.6238C76.1921 22.4042 77.057 22.7935 78.0923 22.7935C79.1277 22.7935 79.9871 22.4042 80.6724 21.6238C81.3578 20.8433 81.6986 19.8541 81.6986 18.6542C81.6986 17.4544 81.356 16.4689 80.6724 15.6978Z" fill="var(--fill-0, #FF6102)"/>
<path id="Vector_12" d="M95.1251 11.1993C97.1298 11.1993 98.7571 11.8895 100.01 13.268C101.264 14.6484 101.889 16.4426 101.889 18.6542C101.889 20.8659 101.262 22.6638 100.01 24.0536C98.7589 25.4415 97.1298 26.1355 95.1251 26.1355C93.4722 26.1355 92.1363 25.6126 91.1175 24.567V30.9424H87.4599V11.5077H91.1175V12.7414C92.1199 11.7127 93.4557 11.1993 95.1251 11.1993ZM97.3039 15.6978C96.6186 14.9268 95.7591 14.5412 94.7238 14.5412C93.6884 14.5412 92.829 14.9268 92.1437 15.6978C91.4583 16.4689 91.1175 17.4544 91.1175 18.6542C91.1175 19.8541 91.4602 20.8395 92.1437 21.6106C92.829 22.3817 93.6884 22.7672 94.7238 22.7672C95.7591 22.7672 96.6186 22.3817 97.3039 21.6106C97.9892 20.8395 98.3301 19.8541 98.3301 18.6542C98.3301 17.4544 97.9874 16.4689 97.3039 15.6978Z" fill="var(--fill-0, #FF6102)"/>
<path id="Vector_13" d="M104.645 6.80233C105.011 6.44312 105.48 6.26258 106.047 6.26258C106.613 6.26258 107.082 6.44312 107.45 6.80233C107.817 7.16153 108.002 7.6505 108.002 8.26736C108.002 8.88421 107.819 9.37318 107.45 9.73239C107.082 10.0916 106.615 10.2721 106.047 10.2721C105.479 10.2721 105.011 10.0916 104.645 9.73239C104.276 9.37318 104.093 8.88421 104.093 8.26736C104.093 7.6505 104.276 7.16153 104.645 6.80233ZM104.218 11.5077H107.875V25.8026H104.218V11.5077Z" fill="var(--fill-0, #FF6102)"/>
</g>
<defs>
<clipPath id="clip0_0_707">
<rect width="108" height="37" fill="white"/>
</clipPath>
</defs>
</svg>
