<svg preserveAspectRatio="xMidYMid meet" overflow="visible" style="display: block;" viewBox="0 0 227.544 74.4291" fill="none" xmlns="http://www.w3.org/2000/svg">
<path id="Union" fill-rule="evenodd" clip-rule="evenodd" d="M0 35.3879C0.380476 32.9256 0.91606 30.5086 1.60675 28.1369C1.70542 27.7981 1.80726 27.4602 1.91226 27.1232C2.41133 25.5215 2.65098 24.0899 2.63121 22.8282C2.5818 19.3637 2.57439 15.8819 2.60898 12.3828C2.60886 12.2644 2.58461 12.1479 2.53799 12.0405C2.53133 12.0252 2.52421 12.01 2.51664 11.9951C2.45608 11.8756 2.36834 11.7728 2.26062 11.6953C-1.77144 8.73098 1.35637 2.85405 5.79608 4.83521C8.00759 5.81839 8.65856 8.60705 7.37658 10.4576C7.19344 10.722 6.97086 10.9672 6.70774 11.1853C6.43597 11.412 6.30008 11.7003 6.30008 12.0502L6.29267 17.2544C6.29267 17.7072 6.41644 17.7745 6.66399 17.4562C6.68049 17.435 6.69755 17.4121 6.71515 17.3874C8.24199 15.2289 10.0233 13.1147 12.0591 11.0448C12.2864 10.8132 12.5409 10.7787 12.8225 10.9413L23.592 17.1879C23.6093 17.1977 23.6256 17.2077 23.641 17.2179C23.8724 17.371 23.8931 17.563 23.7031 17.794C21.9786 19.8885 20.6915 22.2442 19.8416 24.8611C19.807 24.9614 19.8056 25.0702 19.8376 25.1713C19.8697 25.2724 19.9334 25.3607 20.0194 25.423C25.999 29.9184 27.6827 38.0305 25.1154 44.7722C24.7487 45.7353 24.2952 46.6705 23.755 47.5631C19.5525 54.5045 10.6434 55.5469 5.41807 49.0859C4.51938 47.9771 4.34379 47.9836 4.89128 49.1054C4.92778 49.1802 4.96749 49.26 5.01042 49.3447C9.7466 58.6812 21.0052 58.7551 25.5709 49.2412C25.6994 48.9751 25.8724 48.9406 26.0898 49.1377C30.9174 53.4844 36.6121 56.1999 43.1741 57.2841C49.3309 58.2993 55.4259 58.043 61.4592 56.5153C69.1724 54.5588 73.58 49.7192 74.6819 41.9967C75.2934 37.7368 74.9864 33.2062 73.7608 28.4049C73.6791 28.0849 73.5933 27.7636 73.5034 27.4411C70.7031 17.3921 63.3689 10.9035 53.4 9.01095C52.7354 8.88478 52.0591 8.77904 51.3716 8.69402C45.8677 8.017 40.4905 8.521 35.2401 10.206C34.49 10.4467 33.7425 10.7115 32.9976 11.0004C32.7814 11.0867 32.5728 11.0843 32.3718 10.9932C32.3431 10.9802 32.3145 10.9653 32.2861 10.9487L21.5908 4.73911C21.5565 4.72035 21.5284 4.69252 21.5093 4.65858C21.4902 4.62463 21.4809 4.58585 21.4825 4.54638C21.484 4.50691 21.4962 4.46822 21.5179 4.43446C21.5396 4.4007 21.5699 4.37314 21.6056 4.3547C26.0138 2.15501 30.5914 0.824123 35.1568 0.282322C37.5097 0.00307989 39.8595 -0.0665558 42.1811 0.0625004C59.3795 1.01852 75.0363 12.8778 79.0475 31.2038C80.2038 36.4918 80.2655 41.701 79.2328 46.8313C76.7489 59.1275 68.2669 67.3827 57.0439 71.577C55.4406 72.1762 53.7814 72.6925 52.0758 73.1259C51.4136 73.2935 51.3173 73.1284 51.7867 72.6306C52.7898 71.5809 53.6075 70.2626 54.24 68.6757C54.4426 68.1682 54.8009 67.8157 55.3147 67.6186L58.576 66.3545C58.6331 66.3332 58.6841 66.2981 58.7244 66.2525C58.7647 66.2068 58.7931 66.1519 58.807 66.0927C58.8192 66.0409 58.82 65.9871 58.8095 65.9351C58.8079 65.9277 58.8062 65.9203 58.8042 65.9129C58.7905 65.8615 58.7658 65.8137 58.7319 65.7728C58.727 65.767 58.722 65.7613 58.7168 65.7557L52.7354 59.3244C52.7108 59.2981 52.6813 59.2769 52.6485 59.262L52.6419 59.2591C52.6087 59.2451 52.5731 59.2378 52.5371 59.2375L52.5299 59.2375C52.4963 59.2381 52.4631 59.2449 52.432 59.2575C52.4276 59.2593 52.4231 59.2612 52.4188 59.2632C52.3883 59.2774 52.3608 59.2971 52.3375 59.3212C52.3341 59.3246 52.3309 59.3281 52.3278 59.3318C49.5458 62.407 46.5663 65.0214 43.389 67.1751C43.3627 67.1943 43.3422 67.2204 43.3297 67.2505L43.3273 67.2565C43.3152 67.2891 43.313 67.3245 43.3209 67.3584C43.3288 67.3923 43.3465 67.4231 43.3717 67.447C43.397 67.4709 43.4289 67.4869 43.4632 67.4929L47.2803 68.0843C47.3356 68.0926 47.3879 68.1139 47.433 68.1464C47.4389 68.1507 47.4447 68.1552 47.4503 68.1598L47.4519 68.1611C47.501 68.2019 47.5378 68.2553 47.5585 68.3156C47.5765 68.3683 47.5816 68.4246 47.5734 68.4794C47.5722 68.4873 47.5707 68.4951 47.569 68.5029C47.557 68.5573 47.532 68.6079 47.4963 68.6506C47.4912 68.6566 47.4859 68.6626 47.4804 68.6683C45.2105 71.1198 40.858 73.9675 37.134 74.3786C36.602 74.4374 36.0828 74.4464 35.5844 74.3974C24.4666 73.3033 15.6094 69.4938 9.01283 62.9688C3.94311 57.9568 0.938836 51.4293 0 43.3864V35.3879ZM12.9559 48.9603C15.075 48.9603 17.1181 48.0127 18.743 46.3001C18.9752 46.0554 19.1988 45.7952 19.4128 45.5198C21.1253 43.3169 22.0874 40.3291 22.0874 37.2138C22.0874 34.4878 21.3508 31.8596 20.0194 29.7694C19.8292 29.4708 19.6269 29.1831 19.4128 28.9078C17.8074 26.8426 15.6657 25.6258 13.4087 25.4817C13.2583 25.4721 13.1073 25.4673 12.9559 25.4673C10.5341 25.4673 8.21152 26.7049 6.49905 28.9078C4.78658 31.1107 3.82452 34.0984 3.82452 37.2138C3.82452 40.3291 4.78658 43.3169 6.49905 45.5198C8.21152 47.7227 10.5341 48.9603 12.9559 48.9603ZM18.1517 6.45408L28.9582 12.7302C28.9931 12.7506 29.0224 12.7792 29.0435 12.8137C29.0646 12.8481 29.0768 12.8872 29.079 12.9275C29.0812 12.9678 29.0733 13.008 29.0561 13.0445C29.0389 13.0811 29.0129 13.1128 28.9804 13.1368L26.4456 14.9627C26.4073 14.9907 26.3617 15.007 26.3143 15.0096C26.267 15.0123 26.2198 15.0011 26.1787 14.9775L15.3426 8.70875C15.3065 8.68812 15.2763 8.65867 15.2549 8.62317C15.2334 8.58767 15.2214 8.5473 15.2199 8.50587C15.2184 8.46445 15.2275 8.42332 15.2464 8.38639C15.2653 8.34945 15.2933 8.31793 15.3278 8.29478L17.8923 6.46147C17.9305 6.43609 17.975 6.42194 18.0209 6.42063C18.0668 6.41932 18.1121 6.43092 18.1517 6.45408ZM39.483 11.7175C31.6956 12.5011 26.2726 16.9636 23.214 25.1051C23.1852 25.1785 23.187 25.2604 23.2188 25.3335C23.2506 25.4067 23.31 25.4653 23.3844 25.4969L23.5771 25.5782C23.6596 25.6118 23.7515 25.6145 23.8359 25.586C23.9203 25.5575 23.9916 25.4996 24.0367 25.423C26.112 21.8845 28.7877 19.2676 32.0637 17.5723C34.0249 16.5574 36.2521 16.1078 38.471 15.6599C39.1452 15.5238 39.8186 15.3879 40.4836 15.2363C41.3977 15.0244 41.882 14.4502 41.9363 13.5139C41.9709 12.8929 41.457 12.3434 40.3947 11.8654C40.1086 11.7348 39.7936 11.6837 39.483 11.7175ZM112.46 54.5415C107.934 58.2081 102.933 58.733 97.4586 56.1161C87.8973 51.555 86.704 35.6466 94.1603 28.8161C97.8613 25.4255 102.098 24.2106 106.872 25.1716C108.937 25.5906 110.78 26.5885 112.401 28.1656C112.697 28.4563 112.846 28.3947 112.846 27.9807V14.2975C112.846 14.0511 112.969 13.9279 113.216 13.9279H120.999C121.246 13.9279 121.369 14.0511 121.369 14.2975V56.8036L121.369 56.809L121.369 56.8219C121.364 56.9133 121.326 57 121.261 57.065C121.191 57.1343 121.097 57.1732 120.999 57.1732H113.216C113.118 57.1732 113.024 57.1343 112.954 57.065C112.885 56.9956 112.846 56.9016 112.846 56.8036L112.853 54.7263C112.853 54.3912 112.722 54.3296 112.46 54.5415ZM102.402 49.0638C106.145 50.8232 110.103 48.5315 112.557 45.4711C112.749 45.2247 112.846 44.9462 112.846 44.6358V37.9087C112.846 37.587 112.744 37.2761 112.557 37.0216C109.518 32.8819 103.025 30.8564 99.7266 35.7871C97.1473 39.6311 97.6291 46.8165 102.402 49.0638ZM222.237 14.0018C224.742 13.4252 226.511 14.4035 227.544 16.9366V19.413C226.828 20.9605 225.844 21.8821 224.594 22.1778C218.524 23.5971 216.797 15.2437 222.237 14.0018ZM180.59 41.3166C180.59 45.673 178.855 49.851 175.766 52.9314C172.678 56.0119 168.489 57.7424 164.121 57.7424C159.753 57.7424 155.564 56.0119 152.475 52.9314C149.387 49.851 147.652 45.673 147.652 41.3166C147.652 36.9602 149.387 32.7822 152.475 29.7018C155.564 26.6213 159.753 24.8908 164.121 24.8908C168.489 24.8908 172.678 26.6213 175.766 29.7018C178.855 32.7822 180.59 36.9602 180.59 41.3166ZM164.136 50.1061C165.133 50.1044 166.12 49.8749 167.04 49.4309C167.96 48.9868 168.795 48.3368 169.499 47.5181C170.202 46.6993 170.759 45.7277 171.139 44.6589C171.518 43.59 171.713 42.4448 171.711 41.2886C171.709 40.1324 171.51 38.9878 171.127 37.9203C170.744 36.8528 170.183 35.8832 169.477 35.0669C168.771 34.2505 167.933 33.6035 167.011 33.1626C166.09 32.7218 165.102 32.4958 164.105 32.4975C163.109 32.4992 162.122 32.7287 161.202 33.1727C160.282 33.6168 159.447 34.2668 158.743 35.0856C158.04 35.9044 157.483 36.8759 157.103 37.9448C156.723 39.0136 156.529 40.1588 156.531 41.315C156.533 42.4712 156.731 43.6158 157.115 44.6833C157.498 45.7508 158.059 46.7204 158.765 47.5368C159.471 48.3531 160.309 49.0001 161.231 49.441C162.152 49.8819 163.14 50.1079 164.136 50.1061ZM191.967 54.4528C191.72 54.231 191.597 54.2852 191.597 54.6154V68.2617C191.597 68.3598 191.558 68.4538 191.488 68.5231C191.419 68.5924 191.324 68.6314 191.226 68.6314H183.444C183.197 68.6314 183.073 68.5082 183.073 68.2617V25.7556C183.073 25.5092 183.197 25.386 183.444 25.386H191.226C191.468 25.386 191.589 25.5092 191.589 25.7556L191.604 28.0029C191.604 28.3084 191.72 28.3627 191.952 28.1655C200.224 21.2684 211.26 25.6225 214.292 35.654C215.863 40.8434 215.362 45.7889 212.787 50.4905C208.637 58.0677 198.386 60.2188 191.967 54.4528ZM191.797 45.2641C193.82 48.428 197.978 50.5718 201.729 49.219C209.155 46.5356 207.251 30.7602 197.719 33.1036C195.367 33.6852 193.415 35.0306 191.863 37.1399C191.686 37.3764 191.597 37.645 191.597 37.9456V44.5692C191.597 44.8205 191.663 45.0522 191.797 45.2641ZM134.74 28.6904C137.853 25.5412 141.646 24.425 146.117 25.3416C146.245 25.3673 146.36 25.4359 146.443 25.5356C146.525 25.6354 146.57 25.7602 146.57 25.8887V33.3328C146.57 33.7172 146.382 33.8626 146.006 33.7689C141.641 32.6453 137.142 34.3751 134.577 37.7682C134.423 37.9745 134.34 38.226 134.34 38.4853V56.8035C134.34 57.05 134.217 57.1732 133.969 57.1732H126.002C125.903 57.1732 125.809 57.1342 125.74 57.0649C125.67 56.9956 125.631 56.9016 125.631 56.8035V25.7556C125.631 25.6576 125.67 25.5635 125.74 25.4942C125.809 25.4249 125.903 25.386 126.002 25.386H133.977C134.229 25.386 134.352 25.5116 134.347 25.763L134.31 28.5129C134.305 28.922 134.449 28.9811 134.74 28.6904ZM219.376 25.4378L227.544 25.423V57.1584L219.473 57.1215C219.171 57.1215 219.021 56.9711 219.021 56.6705V25.7926C219.021 25.556 219.139 25.4378 219.376 25.4378ZM35.8594 36.2326C35.7952 39.8983 37.7837 42.9054 40.3008 42.9492C42.8179 42.9931 44.9104 40.0569 44.9746 36.3912C45.0387 32.7255 43.0502 29.7184 40.5331 29.6746C38.016 29.6307 35.9235 32.5669 35.8594 36.2326ZM65.5591 42.5508C63.7008 42.5314 62.2237 39.7224 62.2599 36.2768C62.296 32.8312 63.8318 30.0537 65.6902 30.0731C67.5485 30.0925 69.0256 32.9015 68.9895 36.3471C68.9533 39.7927 67.4175 42.5702 65.5591 42.5508Z" fill="#FF6102"/>
</svg>
