<svg preserveAspectRatio="xMidYMid meet"  style="display: block;" viewBox="0 0 16.6667 16.6667" fill="none" xmlns="http://www.w3.org/2000/svg">
<g id="Vector">
<path d="M4.86112 0H2.77778C2.04107 0 1.33453 0.292658 0.813598 0.813592C0.292663 1.33453 5.29819e-06 2.04107 5.29819e-06 2.77778V4.86111C5.29819e-06 5.59782 0.292663 6.30436 0.813598 6.8253C1.33453 7.34623 2.04107 7.63889 2.77778 7.63889H4.86112C5.59783 7.63889 6.30437 7.34623 6.8253 6.8253C7.34624 6.30436 7.63889 5.59782 7.63889 4.86111V2.77778C7.63889 2.04107 7.34624 1.33453 6.8253 0.813592C6.30437 0.292658 5.59783 0 4.86112 0ZM6.25001 4.86111C6.25001 5.22947 6.10368 5.58274 5.84321 5.8432C5.58274 6.10367 5.22947 6.25 4.86112 6.25H2.77778C2.40943 6.25 2.05616 6.10367 1.79569 5.8432C1.53522 5.58274 1.38889 5.22947 1.38889 4.86111V2.77778C1.38889 2.40942 1.53522 2.05615 1.79569 1.79569C2.05616 1.53522 2.40943 1.38889 2.77778 1.38889H4.86112C5.22947 1.38889 5.58274 1.53522 5.84321 1.79569C6.10368 2.05615 6.25001 2.40942 6.25001 2.77778V4.86111Z" fill="#32394D"/>
<path d="M4.86111 9.02778H2.77778C2.04107 9.02778 1.33453 9.32044 0.813592 9.84137C0.292658 10.3623 0 11.0688 0 11.8056V13.8889C0 14.6256 0.292658 15.3321 0.813592 15.8531C1.33453 16.374 2.04107 16.6667 2.77778 16.6667H4.86111C5.59782 16.6667 6.30436 16.374 6.8253 15.8531C7.34623 15.3321 7.63889 14.6256 7.63889 13.8889V11.8056C7.63889 11.0688 7.34623 10.3623 6.8253 9.84137C6.30436 9.32044 5.59782 9.02778 4.86111 9.02778ZM6.25 13.8889C6.25 14.2573 6.10367 14.6105 5.8432 14.871C5.58274 15.1315 5.22947 15.2778 4.86111 15.2778H2.77778C2.40942 15.2778 2.05615 15.1315 1.79569 14.871C1.53522 14.6105 1.38889 14.2573 1.38889 13.8889V11.8056C1.38889 11.4372 1.53522 11.0839 1.79569 10.8235C2.05615 10.563 2.40942 10.4167 2.77778 10.4167H4.86111C5.22947 10.4167 5.58274 10.563 5.8432 10.8235C6.10367 11.0839 6.25 11.4372 6.25 11.8056V13.8889Z" fill="#32394D"/>
<path d="M13.8889 9.02778H11.8056C11.0689 9.02778 10.3624 9.32044 9.84143 9.84137C9.3205 10.3623 9.02784 11.0688 9.02784 11.8056V13.8889C9.02784 14.6256 9.3205 15.3321 9.84143 15.8531C10.3624 16.374 11.0689 16.6667 11.8056 16.6667H13.8889C14.6257 16.6667 15.3322 16.374 15.8531 15.8531C16.3741 15.3321 16.6667 14.6256 16.6667 13.8889V11.8056C16.6667 11.0688 16.3741 10.3623 15.8531 9.84137C15.3322 9.32044 14.6257 9.02778 13.8889 9.02778ZM15.2778 13.8889C15.2778 14.2573 15.1315 14.6105 14.871 14.871C14.6106 15.1315 14.2573 15.2778 13.8889 15.2778H11.8056C11.4373 15.2778 11.084 15.1315 10.8235 14.871C10.5631 14.6105 10.4167 14.2573 10.4167 13.8889V11.8056C10.4167 11.4372 10.5631 11.0839 10.8235 10.8235C11.084 10.563 11.4373 10.4167 11.8056 10.4167H13.8889C14.2573 10.4167 14.6106 10.563 14.871 10.8235C15.1315 11.0839 15.2778 11.4372 15.2778 11.8056V13.8889Z" fill="#32394D"/>
<path d="M9.72229 4.86111H11.8056V6.94444C11.8056 7.12862 11.8788 7.30526 12.009 7.43549C12.1393 7.56572 12.3159 7.63889 12.5001 7.63889C12.6842 7.63889 12.8609 7.56572 12.9911 7.43549C13.1213 7.30526 13.1945 7.12862 13.1945 6.94444V4.86111H15.2778C15.462 4.86111 15.6387 4.78794 15.7689 4.65771C15.8991 4.52748 15.9723 4.35084 15.9723 4.16666C15.9723 3.98249 15.8991 3.80585 15.7689 3.67562C15.6387 3.54539 15.462 3.47222 15.2778 3.47222H13.1945V1.38889C13.1945 1.20471 13.1213 1.02807 12.9911 0.897841C12.8609 0.767608 12.6842 0.694443 12.5001 0.694443C12.3159 0.694443 12.1393 0.767608 12.009 0.897841C11.8788 1.02807 11.8056 1.20471 11.8056 1.38889V3.47222H9.72229C9.53811 3.47222 9.36148 3.54539 9.23124 3.67562C9.10101 3.80585 9.02784 3.98249 9.02784 4.16666C9.02784 4.35084 9.10101 4.52748 9.23124 4.65771C9.36148 4.78794 9.53811 4.86111 9.72229 4.86111Z" fill="#32394D"/>
</g>
</svg>
