<svg preserveAspectRatio="xMidYMid meet"  style="display: block;" viewBox="0 0 16.6418 16.6668" fill="none" xmlns="http://www.w3.org/2000/svg">
<path id="Vector" d="M14.4823 10.6467L11.8629 14.921C11.5752 15.3932 11.1836 15.7936 10.7179 16.0917C10.2522 16.3897 9.72466 16.5777 9.17538 16.6411C9.03064 16.6583 8.88502 16.6669 8.73927 16.6668C7.99306 16.6658 7.26541 16.4341 6.65593 16.0036C6.02611 16.4755 5.24811 16.7061 4.46288 16.6538C3.67766 16.6014 2.93716 16.2695 2.37555 15.7182C1.81394 15.167 1.46837 14.4327 1.40146 13.6486C1.33455 12.8645 1.55071 12.0824 2.01079 11.4439L1.0976 10.5321C0.707666 10.1421 0.411013 9.669 0.229857 9.14814C0.0487015 8.62728 -0.012262 8.07218 0.0515325 7.52442C0.115327 6.97665 0.302226 6.45042 0.598232 5.98513C0.894239 5.51984 1.29168 5.12755 1.76079 4.83764L5.76565 2.36125C6.85052 1.66596 8.12632 1.32886 9.41305 1.39751C10.6998 1.46617 11.9325 1.93711 12.9372 2.74389L14.0893 1.59181C14.1533 1.52548 14.23 1.47258 14.3147 1.43618C14.3994 1.39979 14.4905 1.38063 14.5827 1.37983C14.6749 1.37903 14.7664 1.3966 14.8517 1.43152C14.9371 1.46643 15.0146 1.518 15.0798 1.5832C15.145 1.6484 15.1966 1.72594 15.2315 1.81128C15.2664 1.89663 15.284 1.98807 15.2832 2.08028C15.2824 2.17249 15.2632 2.26361 15.2268 2.34834C15.1904 2.43306 15.1375 2.50969 15.0712 2.57375L13.9205 3.72514C14.6923 4.69197 15.158 5.8671 15.2581 7.10014C15.3582 8.33317 15.0881 9.56803 14.4823 10.6467ZM5.5976 15.0328L3.01496 12.4494C2.81314 12.8104 2.7353 13.2276 2.79338 13.637C2.85146 14.0465 3.04225 14.4255 3.33649 14.7161C3.63331 14.9981 4.01085 15.1802 4.41628 15.2369C4.82171 15.2937 5.23474 15.2223 5.5976 15.0328ZM12.4872 4.19945C11.716 3.42086 10.7009 2.93071 9.61162 2.811C8.52234 2.69129 7.42499 2.94928 6.50316 3.54181L2.49135 6.0182C2.2004 6.19803 1.95392 6.44137 1.77035 6.72997C1.58678 7.01857 1.47088 7.34497 1.43133 7.68471C1.39179 8.02446 1.42962 8.36874 1.54199 8.6918C1.65437 9.01485 1.83838 9.30829 2.08024 9.55014L7.14274 14.6133C7.38499 14.8559 7.67907 15.0403 8.00287 15.1528C8.32667 15.2653 8.67176 15.3029 9.01219 15.2628C9.35262 15.2227 9.67953 15.1059 9.96832 14.9212C10.2571 14.7366 10.5003 14.4888 10.6795 14.1967L13.2872 9.9432C13.7965 9.02842 13.9939 7.97263 13.8496 6.93562C13.7052 5.89862 13.227 4.93688 12.4872 4.19597V4.19945ZM13.3754 16.6668C13.2287 16.6671 13.0857 16.6209 12.9669 16.5349C12.8481 16.4489 12.7596 16.3275 12.714 16.1881C12.6685 16.0487 12.6682 15.8985 12.7133 15.7589C12.7584 15.6194 12.8465 15.4977 12.965 15.4113C14.1809 14.4971 15.0039 13.1548 15.267 11.6564C15.2855 11.5662 15.3217 11.4806 15.3736 11.4045C15.4254 11.3284 15.4919 11.2634 15.5691 11.2132C15.6463 11.1631 15.7327 11.1288 15.8233 11.1123C15.9139 11.0959 16.0068 11.0976 16.0967 11.1174C16.1866 11.1372 16.2717 11.1746 16.347 11.2276C16.4223 11.2806 16.4863 11.348 16.5353 11.426C16.5843 11.5039 16.6173 11.5908 16.6324 11.6817C16.6475 11.7725 16.6444 11.8654 16.6233 11.955C16.283 13.7825 15.2701 15.4162 13.7844 16.5335C13.6656 16.6201 13.5224 16.6668 13.3754 16.6668ZM0.691349 3.98556C0.563087 3.98499 0.437489 3.9489 0.328482 3.88131C0.219474 3.81372 0.131316 3.71726 0.0737827 3.60262C0.0162491 3.48798 -0.00841207 3.35965 0.00253355 3.23186C0.0134792 3.10406 0.0596039 2.9818 0.135794 2.87861C1.26842 1.36513 2.93567 0.340643 4.7976 0.0140305C4.97809 -0.0228051 5.16583 0.0135691 5.3195 0.115151C5.47318 0.216734 5.58021 0.375203 5.61704 0.555697C5.65388 0.736192 5.6175 0.923927 5.51592 1.0776C5.41434 1.23128 5.25587 1.33831 5.07538 1.37514C3.54619 1.62766 2.17415 2.46238 1.2469 3.70431C1.18258 3.79119 1.09887 3.86186 1.00242 3.91069C0.905969 3.95952 0.799452 3.98515 0.691349 3.98556Z" fill="#32394D"/>
</svg>
