<svg preserveAspectRatio="xMidYMid meet"  style="display: block;" viewBox="0 0 16.6667 16.6667" fill="none" xmlns="http://www.w3.org/2000/svg">
<path id="Vector" d="M13.5417 11.1111C13.5417 11.4951 13.2312 11.8056 12.8472 11.8056H11.4583C11.0743 11.8056 10.7639 11.4951 10.7639 11.1111C10.7639 10.7271 11.0743 10.4167 11.4583 10.4167H12.8472C13.2312 10.4167 13.5417 10.7271 13.5417 11.1111ZM16.6667 10.4167V13.8889C16.6667 15.4208 15.4208 16.6667 13.8889 16.6667H2.77778C1.24583 16.6667 0 15.4208 0 13.8889V10.4167C0 8.88472 1.24583 7.63889 2.77778 7.63889H3.47222V2.77778C3.47222 1.24583 4.71806 0 6.25 0H10.4167C11.9486 0 13.1944 1.24583 13.1944 2.77778V7.63889H13.8889C15.4208 7.63889 16.6667 8.88472 16.6667 10.4167ZM4.86111 7.63889H11.8056V2.77778C11.8056 2.01181 11.1826 1.38889 10.4167 1.38889H6.25C5.48403 1.38889 4.86111 2.01181 4.86111 2.77778V7.63889ZM2.77778 15.2778H7.63889V9.02778H2.77778C2.01181 9.02778 1.38889 9.65069 1.38889 10.4167V13.8889C1.38889 14.6549 2.01181 15.2778 2.77778 15.2778ZM15.2778 10.4167C15.2778 9.65069 14.6549 9.02778 13.8889 9.02778H9.02778V15.2778H13.8889C14.6549 15.2778 15.2778 14.6549 15.2778 13.8889V10.4167ZM5.20833 10.4167H3.81944C3.43542 10.4167 3.125 10.7271 3.125 11.1111C3.125 11.4951 3.43542 11.8056 3.81944 11.8056H5.20833C5.59236 11.8056 5.90278 11.4951 5.90278 11.1111C5.90278 10.7271 5.59236 10.4167 5.20833 10.4167ZM9.72222 3.47222C9.72222 3.08819 9.41181 2.77778 9.02778 2.77778H7.63889C7.25486 2.77778 6.94444 3.08819 6.94444 3.47222C6.94444 3.85625 7.25486 4.16667 7.63889 4.16667H9.02778C9.41181 4.16667 9.72222 3.85625 9.72222 3.47222Z" fill="#FF6102"/>
</svg>
