<svg preserveAspectRatio="xMidYMid meet"  style="display: block;" viewBox="0 0 16.6667 16.434" fill="none" xmlns="http://www.w3.org/2000/svg">
<path id="Vector" d="M8.33333 6.94444C7.7808 6.94444 7.25089 6.72495 6.86019 6.33425C6.46949 5.94355 6.25 5.41365 6.25 4.86111C6.25 4.30858 6.46949 3.77867 6.86019 3.38797C7.25089 2.99727 7.7808 2.77778 8.33333 2.77778C8.88587 2.77778 9.41577 2.99727 9.80647 3.38797C10.1972 3.77867 10.4167 4.30858 10.4167 4.86111C10.4167 5.41365 10.1972 5.94355 9.80647 6.33425C9.41577 6.72495 8.88587 6.94444 8.33333 6.94444ZM6.22778 10.5896C6.37058 10.1434 6.65144 9.75418 7.02982 9.478C7.4082 9.20182 7.86453 9.05299 8.33299 9.05299C8.80144 9.05299 9.25778 9.20182 9.63616 9.478C10.0145 9.75418 10.2954 10.1434 10.4382 10.5896C10.4842 10.7681 10.5993 10.9209 10.758 11.0146C10.9168 11.1082 11.1063 11.1349 11.2847 11.0889C11.4632 11.0428 11.6161 10.9278 11.7097 10.769C11.8033 10.6103 11.8301 10.4208 11.784 10.2424C10.8736 6.80694 5.79097 6.80833 4.88333 10.2424C4.85826 10.3314 4.85122 10.4245 4.86262 10.5163C4.87402 10.608 4.90363 10.6966 4.94972 10.7767C4.99581 10.8569 5.05744 10.9271 5.131 10.9831C5.20457 11.0391 5.28858 11.0799 5.37811 11.103C5.46765 11.1261 5.5609 11.1312 5.65239 11.1178C5.74389 11.1044 5.83178 11.0728 5.91093 11.025C5.99007 10.9772 6.05886 10.914 6.11327 10.8393C6.16768 10.7645 6.20661 10.6796 6.22778 10.5896ZM8.33958 16.434C7.99698 16.4342 7.66626 16.3084 7.41042 16.0806L4.80764 13.8889H2.77778C2.04107 13.8889 1.33453 13.5962 0.813592 13.0753C0.292658 12.5544 0 11.8478 0 11.1111V2.77778C0 2.04107 0.292658 1.33453 0.813592 0.813592C1.33453 0.292658 2.04107 0 2.77778 0H13.8889C14.6256 0 15.3321 0.292658 15.8531 0.813592C16.374 1.33453 16.6667 2.04107 16.6667 2.77778V11.1111C16.6667 11.8478 16.374 12.5544 15.8531 13.0753C15.3321 13.5962 14.6256 13.8889 13.8889 13.8889H11.9076L9.23611 16.0972C8.98861 16.3155 8.66959 16.4354 8.33958 16.434ZM2.77778 1.38889C2.40942 1.38889 2.05615 1.53522 1.79568 1.79568C1.53522 2.05615 1.38889 2.40942 1.38889 2.77778V11.1111C1.38889 11.4795 1.53522 11.8327 1.79568 12.0932C2.05615 12.3537 2.40942 12.5 2.77778 12.5H5.06181C5.22545 12.5 5.38384 12.5578 5.50903 12.6632L8.31875 15.0312L11.216 12.659C11.3405 12.5562 11.4969 12.5 11.6583 12.5H13.8889C14.2572 12.5 14.6105 12.3537 14.871 12.0932C15.1314 11.8327 15.2778 11.4795 15.2778 11.1111V2.77778C15.2778 2.40942 15.1314 2.05615 14.871 1.79568C14.6105 1.53522 14.2572 1.38889 13.8889 1.38889H2.77778Z" fill="#32394D"/>
</svg>
