<svg preserveAspectRatio="xMidYMid meet"  style="display: block;" viewBox="0 0 16.6667 16.6667" fill="none" xmlns="http://www.w3.org/2000/svg">
<g id="Vector">
<path d="M6.85972 12.5847C7.0532 12.7783 7.28292 12.9319 7.53577 13.0367C7.78862 13.1415 8.05963 13.1954 8.33333 13.1954C8.60703 13.1954 8.87805 13.1415 9.1309 13.0367C9.38375 12.9319 9.61347 12.7783 9.80694 12.5847L12.0368 10.3549C12.1564 10.2226 12.2205 10.0495 12.2159 9.87129C12.2113 9.69309 12.1384 9.52347 12.0122 9.39755C11.886 9.27163 11.7163 9.19906 11.5381 9.19486C11.3598 9.19067 11.1868 9.25516 11.0549 9.375L9.02292 11.4076L9.02778 0.694444C9.02778 0.510266 8.95461 0.333632 8.82438 0.203398C8.69415 0.0731645 8.51751 0 8.33333 0C8.14916 0 7.97252 0.0731645 7.84229 0.203398C7.71205 0.333632 7.63889 0.510266 7.63889 0.694444L7.63264 11.3944L5.61181 9.375C5.4815 9.24479 5.3048 9.17167 5.12059 9.17173C4.93637 9.1718 4.75973 9.24504 4.62951 9.37535C4.4993 9.50565 4.42618 9.68235 4.42625 9.86656C4.42631 10.0508 4.49955 10.2274 4.62986 10.3576L6.85972 12.5847Z" fill="#32394D"/>
<path d="M15.9722 11.1111C15.788 11.1111 15.6114 11.1843 15.4812 11.3145C15.3509 11.4447 15.2778 11.6214 15.2778 11.8056V14.5833C15.2778 14.7675 15.2046 14.9441 15.0744 15.0744C14.9441 15.2046 14.7675 15.2778 14.5833 15.2778H2.08333C1.89916 15.2778 1.72252 15.2046 1.59229 15.0744C1.46205 14.9441 1.38889 14.7675 1.38889 14.5833V11.8056C1.38889 11.6214 1.31572 11.4447 1.18549 11.3145C1.05526 11.1843 0.878623 11.1111 0.694444 11.1111C0.510266 11.1111 0.333632 11.1843 0.203398 11.3145C0.0731645 11.4447 0 11.6214 0 11.8056V14.5833C0 15.1359 0.219493 15.6658 0.610194 16.0565C1.00089 16.4472 1.5308 16.6667 2.08333 16.6667H14.5833C15.1359 16.6667 15.6658 16.4472 16.0565 16.0565C16.4472 15.6658 16.6667 15.1359 16.6667 14.5833V11.8056C16.6667 11.6214 16.5935 11.4447 16.4633 11.3145C16.333 11.1843 16.1564 11.1111 15.9722 11.1111Z" fill="#32394D"/>
</g>
</svg>
