<svg preserveAspectRatio="xMidYMid meet"  style="display: block;" viewBox="0 0 18.0925 15.8333" fill="none" xmlns="http://www.w3.org/2000/svg">
<path id="Vector" d="M17.3387 9.80047H16.8359C16.6475 9.80047 16.4605 9.8148 16.2743 9.84344L10.9629 5.86023L12.2353 4.64205C12.5361 4.35409 12.5467 3.87617 12.2587 3.57614C11.97 3.27537 11.4921 3.26557 11.1928 3.55278L8.04708 6.56431C7.89028 6.7211 7.67695 6.80176 7.45306 6.78291C7.22842 6.76482 7.03092 6.65099 6.89599 6.46254C6.68944 6.17609 6.75276 5.72756 7.02263 5.45694L10.5679 2.11825C11.2395 1.4873 12.2896 1.33276 13.1113 1.7451L14.8571 2.61803C15.3773 2.8781 15.9607 3.0153 16.5419 3.0153H17.338C17.7548 3.0153 18.0918 2.67834 18.0918 2.26147C18.0918 1.84461 17.7548 1.50765 17.338 1.50765H16.5419C16.1929 1.50765 15.8424 1.42548 15.5303 1.26944L13.7859 0.396512C12.411 -0.29173 10.6553 -0.0361836 9.53362 1.02068L9.06776 1.4594L8.54008 0.978464C7.84731 0.347513 6.95026 0 5.98461 0C5.40342 0 4.82372 0.137196 4.30585 0.395758L2.5615 1.26869C2.24866 1.42473 1.89813 1.5069 1.54911 1.5069H0.754579C0.337713 1.5069 0.000753825 1.84386 0.000753825 2.26072C0.000753825 2.67759 0.337713 3.01454 0.754579 3.01454H1.55062C2.13182 3.01454 2.71528 2.87659 3.23617 2.61728L4.98203 1.74435C5.75244 1.35688 6.83493 1.46167 7.52543 2.09262L7.96793 2.49591L5.97331 4.37444C5.16445 5.18254 5.03555 6.46028 5.67328 7.34301C6.06527 7.88802 6.84397 8.29207 7.51563 8.29207C8.11341 8.29207 8.68708 8.05688 9.10168 7.64152L9.86003 6.91559L14.6438 10.503C14.6204 10.5196 9.97159 14.0053 9.97159 14.0053C9.42658 14.429 8.66597 14.429 8.10965 13.997L3.5181 10.5535C2.87056 10.0673 2.06699 9.79972 1.25663 9.79972H0.753825C0.33696 9.79972 0 10.1367 0 10.5535C0 10.9704 0.33696 11.3074 0.753825 11.3074H1.25663C1.74284 11.3074 2.22454 11.4679 2.61351 11.7597L7.1945 15.1956C7.74103 15.6208 8.3961 15.8333 9.04967 15.8333C9.69946 15.8333 10.3485 15.623 10.8867 15.2039L15.4798 11.7604C15.868 11.4687 16.3497 11.3081 16.8359 11.3081H17.3387C17.7556 11.3081 18.0925 10.9712 18.0925 10.5543C18.0925 10.1374 17.7556 9.80047 17.3387 9.80047Z" fill="#32394D"/>
</svg>
