<svg preserveAspectRatio="xMidYMid meet"  style="display: block;" viewBox="0 0 16.6667 16.6667" fill="none" xmlns="http://www.w3.org/2000/svg">
<path id="Vector" d="M6.94444 15.9722C6.94444 16.3562 6.63403 16.6667 6.25 16.6667H3.47222C1.55764 16.6667 0 15.109 0 13.1944V3.47222C0 1.55764 1.55764 0 3.47222 0H9.02778C10.9424 0 12.5 1.55764 12.5 3.47222V4.86111C12.5 5.24514 12.1896 5.55556 11.8056 5.55556C11.4215 5.55556 11.1111 5.24514 11.1111 4.86111V3.47222C11.1111 2.32361 10.1764 1.38889 9.02778 1.38889H3.47222C2.32361 1.38889 1.38889 2.32361 1.38889 3.47222V13.1944C1.38889 14.3431 2.32361 15.2778 3.47222 15.2778H6.25C6.63403 15.2778 6.94444 15.5882 6.94444 15.9722ZM9.72222 4.16667C9.72222 3.78264 9.41181 3.47222 9.02778 3.47222H3.47222C3.08819 3.47222 2.77778 3.78264 2.77778 4.16667C2.77778 4.55069 3.08819 4.86111 3.47222 4.86111H9.02778C9.41181 4.86111 9.72222 4.55069 9.72222 4.16667ZM6.94444 7.63889C6.94444 7.25486 6.63403 6.94444 6.25 6.94444H3.47222C3.08819 6.94444 2.77778 7.25486 2.77778 7.63889C2.77778 8.02292 3.08819 8.33333 3.47222 8.33333H6.25C6.63403 8.33333 6.94444 8.02292 6.94444 7.63889ZM3.47222 10.4167C3.08819 10.4167 2.77778 10.7271 2.77778 11.1111C2.77778 11.4951 3.08819 11.8056 3.47222 11.8056H4.86111C5.24514 11.8056 5.55556 11.4951 5.55556 11.1111C5.55556 10.7271 5.24514 10.4167 4.86111 10.4167H3.47222ZM16.6667 11.8056C16.6667 14.4854 14.4854 16.6667 11.8056 16.6667C9.12569 16.6667 6.94444 14.4854 6.94444 11.8056C6.94444 9.12569 9.12569 6.94444 11.8056 6.94444C14.4854 6.94444 16.6667 9.12569 16.6667 11.8056ZM15.2778 11.8056C15.2778 9.89097 13.7201 8.33333 11.8056 8.33333C9.89097 8.33333 8.33333 9.89097 8.33333 11.8056C8.33333 13.7201 9.89097 15.2778 11.8056 15.2778C13.7201 15.2778 15.2778 13.7201 15.2778 11.8056ZM13.0611 10.9437L11.5174 12.4257C11.4174 12.5236 11.2542 12.5257 11.1549 12.4271L10.3694 11.6576C10.0944 11.3882 9.65555 11.3924 9.3875 11.6674C9.11875 11.9417 9.12292 12.3806 9.39722 12.6493L10.1833 13.4194C10.5028 13.7312 10.9208 13.8875 11.3382 13.8875C11.7556 13.8875 12.1722 13.7312 12.4861 13.4215L14.0229 11.9465C14.2993 11.6806 14.3083 11.241 14.0431 10.9646C13.7771 10.6868 13.3368 10.6785 13.0611 10.9437Z" fill="#32394D"/>
</svg>
