<svg preserveAspectRatio="xMidYMid meet"  style="display: block;" viewBox="0 0 16.606 16.6056" fill="none" xmlns="http://www.w3.org/2000/svg">
<path id="Vector" d="M15.8701 0.736155C15.398 0.264764 14.7581 0 14.091 0C13.4238 0 12.7839 0.264764 12.3118 0.736155L1.01737 12.0306C0.693935 12.3522 0.437484 12.7348 0.262856 13.1561C0.0882285 13.5775 -0.00110971 14.0293 1.04036e-05 14.4855V15.9112C1.04036e-05 16.0953 0.0731749 16.272 0.203408 16.4022C0.333642 16.5324 0.510277 16.6056 0.694455 16.6056H2.12015C2.57623 16.6069 3.02804 16.5177 3.44942 16.3432C3.8708 16.1687 4.25338 15.9123 4.57501 15.5889L15.8701 4.29379C16.3413 3.82171 16.606 3.18196 16.606 2.51497C16.606 1.84798 16.3413 1.20824 15.8701 0.736155ZM3.59307 14.607C3.2014 14.996 2.67221 15.2151 2.12015 15.2167H1.3889V14.4855C1.3882 14.2118 1.44179 13.9407 1.54656 13.6879C1.65134 13.435 1.80523 13.2055 1.99932 13.0125L10.5708 4.44102L12.1681 6.03824L3.59307 14.607ZM14.8875 3.31185L13.1472 5.05282L11.55 3.45907L13.291 1.7181C13.3959 1.61345 13.5203 1.53049 13.6573 1.47394C13.7942 1.41739 13.9409 1.38837 14.0891 1.38853C14.2372 1.38869 14.3839 1.41803 14.5207 1.47488C14.6575 1.53172 14.7818 1.61496 14.8865 1.71984C14.9911 1.82471 15.0741 1.94917 15.1306 2.08611C15.1872 2.22305 15.2162 2.36978 15.216 2.51794C15.2159 2.66609 15.1865 2.81276 15.1297 2.94958C15.0728 3.0864 14.9896 3.21067 14.8847 3.31532L14.8875 3.31185Z" fill="#32394D"/>
</svg>
