<svg preserveAspectRatio="xMidYMid meet"  style="display: block;" viewBox="0 0 18.3333 18.3333" fill="none" xmlns="http://www.w3.org/2000/svg">
<path id="Vector" d="M9.16667 0C7.35367 0 5.58139 0.537616 4.07394 1.54486C2.56649 2.55211 1.39158 3.98375 0.697775 5.65873C0.00397179 7.33372 -0.177559 9.17683 0.176139 10.955C0.529837 12.7332 1.40288 14.3665 2.68486 15.6485C3.96684 16.9305 5.60018 17.8035 7.37834 18.1572C9.1565 18.5109 10.9996 18.3294 12.6746 17.6356C14.3496 16.9418 15.7812 15.7668 16.7885 14.2594C17.7957 12.7519 18.3333 10.9797 18.3333 9.16667C18.3307 6.73632 17.3641 4.40627 15.6456 2.68776C13.9271 0.969244 11.597 0.0026286 9.16667 0V0ZM9.93056 16.7666V15.2778C9.93056 15.0752 9.85008 14.8809 9.70682 14.7376C9.56356 14.5944 9.36926 14.5139 9.16667 14.5139C8.96407 14.5139 8.76978 14.5944 8.62652 14.7376C8.48326 14.8809 8.40278 15.0752 8.40278 15.2778V16.7666C6.65055 16.5882 5.01354 15.8106 3.76812 14.5652C2.5227 13.3198 1.74515 11.6828 1.56674 9.93055H3.05556C3.25815 9.93055 3.45245 9.85007 3.59571 9.70682C3.73897 9.56356 3.81945 9.36926 3.81945 9.16667C3.81945 8.96407 3.73897 8.76977 3.59571 8.62651C3.45245 8.48326 3.25815 8.40278 3.05556 8.40278H1.56674C1.74515 6.65054 2.5227 5.01354 3.76812 3.76812C5.01354 2.5227 6.65055 1.74515 8.40278 1.56674V3.05556C8.40278 3.25815 8.48326 3.45245 8.62652 3.59571C8.76978 3.73896 8.96407 3.81944 9.16667 3.81944C9.36926 3.81944 9.56356 3.73896 9.70682 3.59571C9.85008 3.45245 9.93056 3.25815 9.93056 3.05556V1.56674C11.6828 1.74515 13.3198 2.5227 14.5652 3.76812C15.8106 5.01354 16.5882 6.65054 16.7666 8.40278H15.2778C15.0752 8.40278 14.8809 8.48326 14.7376 8.62651C14.5944 8.76977 14.5139 8.96407 14.5139 9.16667C14.5139 9.36926 14.5944 9.56356 14.7376 9.70682C14.8809 9.85007 15.0752 9.93055 15.2778 9.93055H16.7666C16.5882 11.6828 15.8106 13.3198 14.5652 14.5652C13.3198 15.8106 11.6828 16.5882 9.93056 16.7666V16.7666ZM12.2222 9.16667C12.2222 9.36926 12.1417 9.56356 11.9985 9.70682C11.8552 9.85007 11.6609 9.93055 11.4583 9.93055H9.93056V11.4583C9.93056 11.6609 9.85008 11.8552 9.70682 11.9985C9.56356 12.1417 9.36926 12.2222 9.16667 12.2222C8.96407 12.2222 8.76978 12.1417 8.62652 11.9985C8.48326 11.8552 8.40278 11.6609 8.40278 11.4583V9.93055H6.875C6.67241 9.93055 6.47811 9.85007 6.33485 9.70682C6.1916 9.56356 6.11111 9.36926 6.11111 9.16667C6.11111 8.96407 6.1916 8.76977 6.33485 8.62651C6.47811 8.48326 6.67241 8.40278 6.875 8.40278H8.40278V6.875C8.40278 6.6724 8.48326 6.47811 8.62652 6.33485C8.76978 6.19159 8.96407 6.11111 9.16667 6.11111C9.36926 6.11111 9.56356 6.19159 9.70682 6.33485C9.85008 6.47811 9.93056 6.6724 9.93056 6.875V8.40278H11.4583C11.6609 8.40278 11.8552 8.48326 11.9985 8.62651C12.1417 8.76977 12.2222 8.96407 12.2222 9.16667Z" fill="#32394D"/>
</svg>
