<svg preserveAspectRatio="xMidYMid meet"  style="display: block;" viewBox="0 0 19.8947 19.1934" fill="none" xmlns="http://www.w3.org/2000/svg">
<path id="Union" d="M7.81739 5.92385C7.81745 4.61955 9.22785 3.5938 10.7979 3.95901C11.5677 4.13298 12.1873 4.66345 12.4072 5.32424C12.6971 6.21105 12.3075 7.03651 11.5977 7.52346L16.0078 18.0108L16.0176 18.0283C16.1651 18.3759 16.0404 18.7366 15.7598 18.9629C15.6626 19.0624 15.5392 19.142 15.3975 19.1934H5.78809C4.83809 19.1934 4.16805 18.3676 4.49805 17.585L8.72755 7.53225C8.17768 7.15833 7.81739 6.57594 7.81739 5.92385ZM12.4473 14.9151H7.75782L6.65723 17.5235H13.6787C13.2117 16.4105 12.5637 14.869 12.5576 14.8545C12.5176 14.8806 12.4473 14.9151 12.4473 14.9151ZM8.44727 13.2373H11.8672L10.1572 9.17581L8.44727 13.2373ZM2.73731 0.202174C3.04731 -0.0673913 3.5379 -0.0673913 3.8379 0.202174C4.14771 0.463058 4.14783 0.889695 3.8379 1.15921C0.797918 3.81138 0.797905 8.11544 3.8379 10.7676C4.14748 11.0284 4.14744 11.4542 3.8379 11.7237C3.6879 11.8541 3.48712 11.9239 3.28712 11.9239C3.08726 11.9238 2.88721 11.854 2.73731 11.7237C-0.912379 8.54975 -0.912496 3.37602 2.73731 0.202174ZM16.0576 0.202174C16.3576 -0.0672713 16.8472 -0.0671977 17.1572 0.202174C20.8072 3.37609 20.8072 8.54975 17.1572 11.7237C17.0072 11.8541 16.8074 11.9239 16.6074 11.9239C16.4075 11.9238 16.2076 11.8541 16.0576 11.7237C15.7477 11.4628 15.7477 11.0371 16.0576 10.7676V10.7588C19.0975 8.11542 19.0973 3.8027 16.0576 1.15921C15.7476 0.898336 15.7576 0.471739 16.0576 0.202174ZM5.49805 2.55862C5.79807 2.28927 6.28774 2.28915 6.59766 2.55862C6.90766 2.81949 6.90766 3.24609 6.59766 3.51565C5.0779 4.83741 5.07774 6.99378 6.59766 8.31546C6.9075 8.5763 6.90751 9.00198 6.59766 9.27151C6.44771 9.4019 6.2478 9.47166 6.04786 9.47171C5.8479 9.47171 5.64804 9.40189 5.49805 9.27151V9.2803C3.36805 7.42809 3.36805 4.41079 5.49805 2.55862ZM13.2979 2.54983C13.5979 2.28065 14.0876 2.28048 14.3975 2.54983C16.5274 4.40194 16.5272 7.41928 14.3975 9.27151C14.2475 9.40189 14.0476 9.47165 13.8477 9.47171C13.6477 9.47171 13.4479 9.40191 13.2979 9.27151V9.2637C12.9879 9.00283 12.9879 8.57623 13.2979 8.30667C14.8175 6.98501 14.8174 4.82856 13.2979 3.50686C12.9879 3.24599 12.9879 2.8194 13.2979 2.54983Z" fill="#32394D"/>
</svg>
