<svg preserveAspectRatio="xMidYMid meet"  style="display: block;" viewBox="0 0 16.6667 16.6667" fill="none" xmlns="http://www.w3.org/2000/svg">
<path id="Vector" d="M8.33333 0C3.73819 0 0 3.73819 0 8.33333C0 12.9285 3.73819 16.6667 8.33333 16.6667C12.9285 16.6667 16.6667 12.9285 16.6667 8.33333C16.6667 3.73819 12.9285 0 8.33333 0ZM5.55556 14.6972V14.5833C5.55556 13.0514 6.80139 11.8056 8.33333 11.8056C9.86528 11.8056 11.1111 13.0514 11.1111 14.5833V14.6972C10.2597 15.0701 9.32083 15.2778 8.33333 15.2778C7.34583 15.2778 6.40694 15.0701 5.55556 14.6972ZM12.4479 13.9243C12.1312 11.9389 10.4069 10.4167 8.33333 10.4167C6.25972 10.4167 4.53611 11.9389 4.21875 13.9243C2.50347 12.6583 1.38889 10.6236 1.38889 8.33333C1.38889 4.50417 4.50417 1.38889 8.33333 1.38889C12.1625 1.38889 15.2778 4.50417 15.2778 8.33333C15.2778 10.6236 14.1632 12.6583 12.4479 13.9243ZM8.33333 3.47222C6.80139 3.47222 5.55556 4.71806 5.55556 6.25C5.55556 7.78194 6.80139 9.02778 8.33333 9.02778C9.86528 9.02778 11.1111 7.78194 11.1111 6.25C11.1111 4.71806 9.86528 3.47222 8.33333 3.47222ZM8.33333 7.63889C7.56736 7.63889 6.94444 7.01597 6.94444 6.25C6.94444 5.48403 7.56736 4.86111 8.33333 4.86111C9.09931 4.86111 9.72222 5.48403 9.72222 6.25C9.72222 7.01597 9.09931 7.63889 8.33333 7.63889Z" fill="#FF6102"/>
</svg>
