<svg preserveAspectRatio="xMidYMid meet"  style="display: block;" viewBox="0 0 16.6667 13.8889" fill="none" xmlns="http://www.w3.org/2000/svg">
<path id="Vector" d="M14.5833 2.77778H3.47222C2.87569 2.77778 2.31111 2.51944 1.92014 2.08403C2.30208 1.65764 2.85694 1.38889 3.47222 1.38889H15.9722C16.3562 1.38889 16.6667 1.07778 16.6667 0.694445C16.6667 0.311111 16.3562 0 15.9722 0H3.47222C1.55486 0 0 1.55486 0 3.47222V10.4167C0 12.334 1.55486 13.8889 3.47222 13.8889H14.5833C15.734 13.8889 16.6667 12.9563 16.6667 11.8056V4.86111C16.6667 3.71042 15.734 2.77778 14.5833 2.77778ZM15.2778 11.8056C15.2778 12.1882 14.9667 12.5 14.5833 12.5H3.47222C2.32361 12.5 1.38889 11.5653 1.38889 10.4167V3.47083C1.98194 3.91458 2.71111 4.16667 3.47222 4.16667H14.5833C14.9667 4.16667 15.2778 4.47847 15.2778 4.86111V11.8056ZM13.8889 8.33333C13.8889 8.71667 13.5778 9.02778 13.1944 9.02778C12.8111 9.02778 12.5 8.71667 12.5 8.33333C12.5 7.95 12.8111 7.63889 13.1944 7.63889C13.5778 7.63889 13.8889 7.95 13.8889 8.33333Z" fill="#32394D"/>
</svg>
