<svg preserveAspectRatio="xMidYMid meet"  style="display: block;" viewBox="0 0 16.3188 16.6667" fill="none" xmlns="http://www.w3.org/2000/svg">
<path id="Vector" d="M14.8958 3.84444L12.4757 1.42431C11.5576 0.505555 10.3368 0 9.03819 0H5.90278C4.32431 0 2.94236 1.06597 2.54375 2.59167C2.44653 2.9625 2.66875 3.34236 3.03958 3.43958C3.41319 3.53472 3.79097 3.31389 3.88681 2.94306C4.12639 2.02847 4.95556 1.38889 5.90278 1.38889H9.03819C9.15278 1.38889 9.2625 1.41111 9.375 1.42153V4.86111C9.375 6.00972 10.3097 6.94444 11.4583 6.94444H14.8965C14.9076 7.05694 14.9306 7.16805 14.9306 7.28125V13.1944C14.9306 14.3431 13.9958 15.2778 12.8472 15.2778H5.90278C5.42361 15.2778 4.97361 15.1194 4.60069 14.8215C4.30208 14.5833 3.86528 14.6299 3.62431 14.9285C3.38472 15.2285 3.43264 15.6653 3.73194 15.9049C4.34444 16.3958 5.11528 16.6667 5.90208 16.6667H12.8465C14.7611 16.6667 16.3187 15.109 16.3187 13.1944V7.28125C16.3187 5.98333 15.8139 4.7625 14.8958 3.84444ZM11.4583 5.55556C11.0757 5.55556 10.7639 5.24444 10.7639 4.86111V1.86319C11.025 2.01389 11.2743 2.18681 11.4931 2.40556L13.9132 4.82569C14.1292 5.04167 14.3014 5.29236 14.4521 5.55486H11.4576L11.4583 5.55556ZM6.59722 11.1007H12.1528C12.5361 11.1007 12.8472 11.4111 12.8472 11.7951C12.8472 12.1792 12.5361 12.4896 12.1528 12.4896H6.59722C6.21389 12.4896 5.90278 12.1792 5.90278 11.7951C5.90278 11.4111 6.21389 11.1007 6.59722 11.1007ZM4.51389 13.0778V9.77917C5.14375 9.26944 5.55556 8.5 5.55556 7.62847C5.55556 6.09653 4.30972 4.85069 2.77778 4.85069C1.24583 4.85069 0 6.09653 0 7.62847C0 8.5 0.411806 9.26944 1.04167 9.77917V13.0778C1.04167 13.5104 1.59097 13.6958 1.85347 13.3521L2.77778 12.1417L3.70208 13.3521C3.96458 13.6958 4.51389 13.5104 4.51389 13.0778ZM2.77778 6.23958C3.54375 6.23958 4.16667 6.8625 4.16667 7.62847C4.16667 8.39444 3.54375 9.01736 2.77778 9.01736C2.01181 9.01736 1.38889 8.39444 1.38889 7.62847C1.38889 6.8625 2.01181 6.23958 2.77778 6.23958ZM7.29167 9.7118C6.90833 9.7118 6.59722 9.40139 6.59722 9.01736C6.59722 8.63333 6.90833 8.32292 7.29167 8.32292H12.1528C12.5361 8.32292 12.8472 8.63333 12.8472 9.01736C12.8472 9.40139 12.5361 9.7118 12.1528 9.7118H7.29167Z" fill="#32394D"/>
</svg>
