<svg preserveAspectRatio="xMidYMid meet"  overflow="visible" style="display: block;" viewBox="0 0 99.0653 92.4518" fill="none" xmlns="http://www.w3.org/2000/svg">
<g id="Icono">
<path id="Vector" d="M0 53.8923V43.9569C0.538701 40.4615 1.32839 37.0395 2.36906 33.691C2.98734 31.7015 3.28424 29.9231 3.25975 28.356C3.19854 24.0525 3.18936 19.7276 3.23221 15.3813C3.23204 15.2132 3.19284 15.0481 3.11781 14.8997C3.04279 14.7512 2.93408 14.6236 2.80063 14.5273C-2.1946 10.8452 1.68038 3.54515 7.18064 6.00603C10.3118 7.40176 10.9179 11.7267 8.31008 13.8937C7.97339 14.1753 7.80505 14.5334 7.80505 14.9681L7.79586 21.4325C7.79586 22.0324 7.97033 22.0875 8.31926 21.5978C10.2108 18.9165 12.4177 16.2903 14.9398 13.7193C15.2214 13.4315 15.5366 13.3887 15.8856 13.5907L29.2276 21.3498C29.5704 21.5457 29.6163 21.7967 29.3653 22.1028C27.2289 24.7045 25.6342 27.6306 24.5813 30.8812C24.5385 31.0058 24.5368 31.1408 24.5764 31.2664C24.6161 31.3921 24.6951 31.5016 24.8017 31.579C33.2679 37.9608 34.783 50.2101 29.4296 59.0803C24.2232 67.7026 13.1859 68.9973 6.71234 60.9719C5.52475 59.5027 5.3564 59.6099 6.20731 61.2933C12.0749 72.8907 26.0229 72.9825 31.6793 61.1647C31.8385 60.8342 32.0527 60.7913 32.3221 61.0362C38.3029 66.4354 45.358 69.8085 53.4875 71.1552C61.115 72.4163 68.666 72.0979 76.1405 70.2002C85.6963 67.77 91.1568 61.7585 92.5219 52.166C93.33 46.5219 92.8433 40.4952 91.0619 34.0858C87.3614 20.7713 77.2699 12.4888 63.6433 10.7993C55.8505 9.83816 48.2627 10.7931 40.8801 13.6642C40.574 13.7866 40.2802 13.7652 39.9986 13.5999L26.7483 5.88666C26.7059 5.86337 26.671 5.8288 26.6474 5.78663C26.6238 5.74447 26.6123 5.6963 26.6142 5.64727C26.6161 5.59824 26.6313 5.55019 26.6581 5.50825C26.685 5.46632 26.7225 5.43207 26.7667 5.40918C55.8933 -9.1633 90.9885 6.961 97.9304 38.7597C99.3628 45.3282 99.4393 51.7987 98.1599 58.1713C94.6431 75.627 81.4204 86.5266 64.5156 90.8331C63.6953 91.0412 63.5759 90.8362 64.1575 90.2179C65.4002 88.914 66.4133 87.2765 67.1968 85.3053C67.4478 84.6748 67.8916 84.2371 68.5283 83.9922L72.5686 82.422C72.6393 82.3956 72.7025 82.352 72.7524 82.2953C72.8024 82.2386 72.8375 82.1704 72.8548 82.0968C72.872 82.0232 72.8709 81.9465 72.8514 81.8735C72.8319 81.8005 72.7947 81.7334 72.743 81.6782L65.3328 73.6896C65.3003 73.6547 65.2609 73.6271 65.217 73.6085C65.1732 73.59 65.1259 73.5808 65.0783 73.5817C65.0306 73.5825 64.9837 73.5934 64.9406 73.6136C64.8974 73.6337 64.859 73.6628 64.8278 73.6987C61.3813 77.5186 57.69 80.7661 53.7538 83.4413C53.719 83.4668 53.6924 83.502 53.6774 83.5424C53.6623 83.5829 53.6595 83.627 53.6693 83.669C53.6791 83.7111 53.701 83.7493 53.7324 83.7791C53.7637 83.8088 53.8031 83.8286 53.8456 83.8361L58.5746 84.5707C58.6528 84.5824 58.7264 84.6154 58.7872 84.666C58.848 84.7167 58.8936 84.7831 58.9192 84.858C58.9448 84.9329 58.9493 85.0133 58.9323 85.0906C58.9152 85.1679 58.8772 85.239 58.8225 85.2961C55.6086 88.7762 49.0249 92.8992 44.0847 92.4125C30.3111 91.0535 19.3381 86.3215 11.1658 78.2165C4.88504 71.9908 1.1631 63.8827 0 53.8923ZM16.0508 60.8158C19.0512 60.8158 21.9286 59.2786 24.0501 56.5423C26.1717 53.8059 27.3636 50.0947 27.3636 46.225C27.3636 42.3552 26.1717 38.644 24.0501 35.9077C21.9286 33.1714 19.0512 31.6341 16.0508 31.6341C13.0505 31.6341 10.1731 33.1714 8.05154 35.9077C5.92999 38.644 4.73812 42.3552 4.73812 46.225C4.73812 50.0947 5.92999 53.8059 8.05154 56.5423C10.1731 59.2786 13.0505 60.8158 16.0508 60.8158Z" fill="white"/>
<path id="Vector_2" d="M22.4901 8.01519L35.8781 15.8111C35.9213 15.8363 35.9576 15.872 35.9838 15.9147C36.0099 15.9575 36.025 16.0061 36.0277 16.0562C36.0304 16.1062 36.0207 16.1561 35.9994 16.2015C35.9781 16.2469 35.9459 16.2862 35.9056 16.3161L32.7652 18.5841C32.7178 18.6189 32.6614 18.6392 32.6027 18.6425C32.544 18.6457 32.4856 18.6318 32.4347 18.6025L19.01 10.8158C18.9653 10.7902 18.9279 10.7536 18.9013 10.7095C18.8747 10.6654 18.8598 10.6153 18.858 10.5638C18.8561 10.5124 18.8674 10.4613 18.8908 10.4154C18.9142 10.3695 18.9489 10.3304 18.9916 10.3016L22.1687 8.02437C22.216 7.99285 22.2713 7.97527 22.3281 7.97364C22.3849 7.97202 22.4411 7.98642 22.4901 8.01519Z" fill="white"/>
<path id="Vector_3" d="M28.7608 31.1829C32.5501 21.07 39.2685 15.5269 48.9162 14.5536C49.301 14.5116 49.6913 14.5751 50.0456 14.7372C51.3618 15.331 51.9984 16.0136 51.9556 16.7849C51.8882 17.948 51.2883 18.6612 50.1558 18.9244C46.6206 19.7325 42.8925 20.1824 39.7246 21.8261C35.666 23.9319 32.3511 27.1825 29.7801 31.5778C29.7242 31.673 29.6359 31.7449 29.5313 31.7803C29.4268 31.8157 29.313 31.8123 29.2107 31.7706L28.972 31.6696C28.8798 31.6303 28.8062 31.5575 28.7668 31.4667C28.7274 31.3758 28.7252 31.2741 28.7608 31.1829Z" fill="white"/>
<path id="Vector_4" d="M44.4278 45.0053C44.3483 49.5587 46.8118 53.294 49.9302 53.3484C53.0486 53.4029 55.6409 49.7558 55.7204 45.2024C55.7999 40.6491 53.3364 36.9138 50.218 36.8593C47.0996 36.8049 44.5072 40.452 44.4278 45.0053Z" fill="white"/>
<path id="Vector_5" d="M77.1341 45.0604C77.0892 49.3404 78.9192 52.8295 81.2215 52.8536C83.5237 52.8777 85.4264 49.4277 85.4712 45.1477C85.5161 40.8678 83.6861 37.3787 81.3838 37.3546C79.0816 37.3304 77.1789 40.7805 77.1341 45.0604Z" fill="white"/>
</g>
</svg>
