<svg preserveAspectRatio="xMidYMid meet" style="display: block;" viewBox="0 0 16.6667 16.6667" fill="none" xmlns="http://www.w3.org/2000/svg">
<g id="bookmark" clip-path="url(#clip0_0_251)">
<path id="Vector" d="M13.9841 16.6667C13.7272 16.666 13.473 16.6143 13.2362 16.5148C12.9993 16.4153 12.7845 16.2698 12.6043 16.0868L8.33342 11.841L4.06259 16.0896C3.7883 16.3679 3.43654 16.5571 3.05315 16.6325C2.66977 16.7079 2.27255 16.6661 1.91328 16.5125C1.55044 16.3666 1.24005 16.1146 1.02263 15.7895C0.805204 15.4644 0.690862 15.0813 0.69453 14.6903V3.47222C0.69453 2.55133 1.06035 1.66815 1.71152 1.01699C2.36269 0.365817 3.24586 -5.29819e-06 4.16675 -5.29819e-06L12.5001 -5.29819e-06C12.9561 -5.29819e-06 13.4076 0.0898064 13.8289 0.264302C14.2501 0.438797 14.6329 0.694559 14.9553 1.01699C15.2777 1.33941 15.5335 1.72219 15.708 2.14346C15.8825 2.56472 15.9723 3.01624 15.9723 3.47222V14.6903C15.9762 15.081 15.8623 15.4639 15.6454 15.7889C15.4285 16.114 15.1187 16.3661 14.7563 16.5125C14.5118 16.6148 14.2492 16.6672 13.9841 16.6667ZM4.16675 1.38888C3.61422 1.38888 3.08431 1.60838 2.69361 1.99908C2.30291 2.38978 2.08342 2.91968 2.08342 3.47222V14.6903C2.08317 14.806 2.11722 14.9192 2.18127 15.0156C2.24532 15.1119 2.33649 15.1872 2.44327 15.2318C2.55006 15.2763 2.66766 15.2883 2.78123 15.2661C2.89479 15.2439 2.99922 15.1885 3.08134 15.1069V15.1069L7.84731 10.3701C7.97742 10.2408 8.15343 10.1682 8.33689 10.1682C8.52035 10.1682 8.69636 10.2408 8.82648 10.3701L13.5869 15.1056C13.669 15.1871 13.7734 15.2425 13.887 15.2647C14.0006 15.2869 14.1182 15.275 14.225 15.2304C14.3317 15.1858 14.4229 15.1106 14.487 15.0142C14.551 14.9178 14.5851 14.8046 14.5848 14.6889V3.47222C14.5848 2.91968 14.3653 2.38978 13.9746 1.99908C13.5839 1.60838 13.054 1.38888 12.5015 1.38888H4.16675Z" fill="#69738C"/>
</g>
<defs>
<clipPath id="clip0_0_251">
<rect width="16.6667" height="16.6667" fill="white"/>
</clipPath>
</defs>
</svg>
