<svg preserveAspectRatio="none" width="100%" height="100%" overflow="visible" style="display: block;" viewBox="0 0 16.6667 16.6667" fill="none" xmlns="http://www.w3.org/2000/svg">
<g id="Book" clip-path="url(#clip0_0_282)">
<path id="Vector" d="M15.4167 1.50207C15.0263 1.17563 14.5688 0.939143 14.0767 0.809403C13.5846 0.679663 13.07 0.659851 12.5694 0.751372L9.91527 1.23332C9.3025 1.34585 8.74534 1.66111 8.33333 2.12846C7.92025 1.66031 7.36149 1.34497 6.74722 1.23332L4.09722 0.751372C3.59663 0.659771 3.08203 0.679324 2.58984 0.808647C2.09765 0.93797 1.6399 1.1739 1.249 1.49974C0.858097 1.82558 0.543596 2.23337 0.32776 2.69422C0.111924 3.15508 2.85993e-05 3.65775 -5.29819e-06 4.16665L-5.29819e-06 11.6618C3.46017e-05 12.4748 0.285395 13.2621 0.806337 13.8863C1.32728 14.5106 2.05077 14.9322 2.85069 15.0778L7.21597 15.8715C7.95483 16.0058 8.71183 16.0058 9.45069 15.8715L13.8194 15.0778C14.6187 14.9315 15.3414 14.5096 15.8617 13.8854C16.3819 13.2612 16.6668 12.4743 16.6667 11.6618V4.16665C16.667 3.65793 16.5551 3.1554 16.3391 2.69484C16.123 2.23428 15.8081 1.82702 15.4167 1.50207V1.50207ZM7.63888 14.5333C7.58055 14.525 7.52222 14.5153 7.46388 14.5048L3.0993 13.7118C2.61928 13.6245 2.18513 13.3714 1.87256 12.9968C1.55998 12.6221 1.38881 12.1497 1.38888 11.6618V4.16665C1.38888 3.61412 1.60838 3.08421 1.99908 2.69351C2.38978 2.30281 2.91968 2.08332 3.47222 2.08332C3.59797 2.08362 3.72346 2.095 3.84722 2.11734L6.5 2.60346C6.81917 2.66186 7.10782 2.83017 7.31586 3.07918C7.52389 3.32819 7.63818 3.64218 7.63888 3.96665V14.5333ZM15.2778 11.6618C15.2778 12.1497 15.1067 12.6221 14.7941 12.9968C14.4815 13.3714 14.0474 13.6245 13.5674 13.7118L9.20277 14.5048C9.14444 14.5153 9.08611 14.525 9.02777 14.5333V3.96665C9.02772 3.64138 9.14184 3.32641 9.35022 3.07666C9.5586 2.8269 9.84804 2.65821 10.1681 2.59998L12.8215 2.11387C13.122 2.0592 13.4309 2.07127 13.7262 2.14923C14.0215 2.22718 14.2961 2.36912 14.5304 2.56499C14.7648 2.76085 14.9532 3.00585 15.0824 3.28264C15.2115 3.55942 15.2782 3.86122 15.2778 4.16665V11.6618Z" fill="var(--fill-0, #69738C)"/>
</g>
<defs>
<clipPath id="clip0_0_282">
<rect width="16.6667" height="16.6667" fill="white"/>
</clipPath>
</defs>
</svg>
