<svg preserveAspectRatio="xMidYMid meet" style="display: block;" viewBox="0 0 16.6667 16.6667" fill="none" xmlns="http://www.w3.org/2000/svg">
<g id="Card">
<path id="Vector" fill-rule="evenodd" clip-rule="evenodd" d="M3.47222 2.08333H13.1944C14.115 2.08444 14.9975 2.45061 15.6485 3.10154C16.2994 3.75247 16.6656 4.635 16.6667 5.55556V11.1111C16.6656 12.0317 16.2994 12.9142 15.6485 13.5651C14.9975 14.2161 14.115 14.5822 13.1944 14.5833H3.47222C2.55167 14.5822 1.66914 14.2161 1.01821 13.5651C0.367279 12.9142 0.00110268 12.0317 0 11.1111V5.55556C0.00110268 4.635 0.367279 3.75247 1.01821 3.10154C1.66914 2.45061 2.55167 2.08444 3.47222 2.08333ZM13.1944 3.47222H3.47222C2.91969 3.47222 2.38978 3.69172 1.99908 4.08242C1.60838 4.47312 1.38889 5.00302 1.38889 5.55556H15.2778C15.2778 5.00302 15.0583 4.47312 14.6676 4.08242C14.2769 3.69172 13.747 3.47222 13.1944 3.47222ZM3.47222 13.1944H13.1944C13.747 13.1944 14.2769 12.975 14.6676 12.5842C15.0583 12.1935 15.2778 11.6636 15.2778 11.1111V6.94444H1.38889V11.1111C1.38889 11.6636 1.60838 12.1935 1.99908 12.5842C2.38978 12.975 2.91969 13.1944 3.47222 13.1944ZM4.86111 10.764C4.86111 11.3393 4.39474 11.8056 3.81944 11.8056C3.24415 11.8056 2.77778 11.3393 2.77778 10.764C2.77778 10.1887 3.24415 9.72231 3.81944 9.72231C4.39474 9.72231 4.86111 10.1887 4.86111 10.764Z" fill="#69738C"/>
</g>
</svg>
