<svg preserveAspectRatio="none" width="100%" height="100%" overflow="visible" style="display: block;" viewBox="0 0 16.6667 16.6667" fill="none" xmlns="http://www.w3.org/2000/svg">
<g id="Certificated">
<g id="Vector">
<path d="M8.33333 16.6667C7.20417 16.6667 6.13889 16.1708 5.41111 15.3062C4.34167 15.4285 3.23958 15.025 2.44097 14.2264C1.64306 13.4278 1.24028 12.3236 1.33681 11.1972C0.495833 10.5278 0 9.4625 0 8.33333C0 7.20417 0.495833 6.13889 1.36111 5.41111C1.23958 4.34375 1.64236 3.23958 2.44097 2.44097C3.23958 1.64236 4.34167 1.2375 5.46944 1.33681C6.13889 0.496528 7.20417 0 8.33333 0C9.4625 0 10.5278 0.495833 11.2556 1.36042C12.3264 1.24028 13.4271 1.64167 14.2257 2.44028C15.0236 3.23889 15.4264 4.34306 15.3299 5.46944C16.1708 6.13889 16.6667 7.20417 16.6667 8.33333C16.6667 9.4625 16.1708 10.5278 15.3056 11.2556C15.4271 12.3229 15.0243 13.4271 14.2257 14.2257C13.4264 15.0243 12.3222 15.4243 11.1972 15.3299C10.5278 16.1701 9.4625 16.6667 8.33333 16.6667ZM5.46736 13.9417C5.85694 13.9417 6.21806 14.109 6.47292 14.4111C6.93681 14.9618 7.61458 15.2778 8.33333 15.2778C9.05208 15.2778 9.72986 14.9618 10.1937 14.4111C10.4736 14.0785 10.8812 13.9104 11.316 13.9458C12.034 14.0062 12.7354 13.7514 13.2437 13.2431C13.7514 12.7354 14.0076 12.0326 13.9465 11.3153C13.909 10.8819 14.0785 10.4729 14.4118 10.1924C14.9618 9.72917 15.2778 9.05069 15.2778 8.33264C15.2778 7.61458 14.9618 6.93611 14.4118 6.47292C14.0792 6.19306 13.909 5.78333 13.9465 5.35C14.0076 4.63264 13.7521 3.92986 13.2437 3.42222C12.7354 2.91458 12.0299 2.6625 11.3167 2.71944C10.8819 2.75833 10.4736 2.58681 10.1937 2.25486C9.72986 1.70417 9.05208 1.38819 8.33333 1.38819C7.61458 1.38819 6.93681 1.70417 6.47292 2.25486C6.19236 2.5875 5.78333 2.75417 5.35069 2.72014C4.62917 2.65764 3.93125 2.91458 3.42292 3.42292C2.91528 3.93056 2.65903 4.63333 2.72014 5.35069C2.75764 5.78403 2.58819 6.19305 2.25486 6.47361C1.70486 6.9368 1.38889 7.61528 1.38889 8.33333C1.38889 9.05139 1.70486 9.72986 2.25486 10.1931C2.5875 10.4729 2.75764 10.8826 2.72014 11.316C2.65903 12.0333 2.91458 12.7361 3.42292 13.2437C3.93125 13.7514 4.64028 14.0042 5.35 13.9465C5.38958 13.9431 5.42847 13.9417 5.46736 13.9417ZM8.88958 10.5104L12.1806 7.33819C12.4562 7.07222 12.4646 6.63194 12.1979 6.35625C11.9319 6.08056 11.4924 6.07222 11.216 6.33819L7.91597 9.51944C7.64444 9.79097 7.20625 9.79097 6.91597 9.50208L5.33403 8.03194C5.05486 7.77153 4.61458 7.78681 4.35278 8.06806C4.09167 8.34861 4.10764 8.78819 4.38889 9.04931L5.95278 10.5021C6.35972 10.909 6.89514 11.1125 7.42917 11.1125C7.96042 11.1125 8.48889 10.9118 8.89028 10.5111L8.88958 10.5104Z" fill="var(--fill-0, #69738C)"/>
<path d="M12.1806 7.33819L8.88958 10.5104L8.89028 10.5111C8.48889 10.9118 7.96042 11.1125 7.42917 11.1125C6.89514 11.1125 6.35972 10.909 5.95278 10.5021L4.38889 9.04931C4.10764 8.78819 4.09167 8.34861 4.35278 8.06806C4.61458 7.78681 5.05486 7.77153 5.33403 8.03194L6.91597 9.50208C7.20625 9.79097 7.64444 9.79097 7.91597 9.51944L11.216 6.33819C11.4924 6.07222 11.9319 6.08056 12.1979 6.35625C12.4646 6.63194 12.4562 7.07222 12.1806 7.33819Z" fill="var(--fill-0, #69738C)"/>
</g>
</g>
</svg>
