<svg preserveAspectRatio="none" width="100%" height="100%" overflow="visible" style="display: block;" viewBox="0 0 16.6667 16.6667" fill="none" xmlns="http://www.w3.org/2000/svg">
<g id="Chat-arrow-grow" clip-path="url(#clip0_0_198)">
<g id="Vector">
<path d="M15.6247 2.76119H13.4817C13.3444 2.76122 13.2101 2.80196 13.096 2.87827C12.9818 2.95458 12.8928 3.06303 12.8402 3.1899C12.7877 3.31678 12.7739 3.45638 12.8007 3.59107C12.8275 3.72576 12.8936 3.84949 12.9907 3.94661L13.7449 4.70077L11.2546 7.19036C11.1223 7.31681 10.9463 7.38738 10.7633 7.38738C10.5803 7.38738 10.4043 7.31681 10.272 7.19036L10.1539 7.07161C9.75711 6.69249 9.22944 6.48093 8.68064 6.48093C8.13185 6.48093 7.60418 6.69249 7.20738 7.07161L3.66571 10.6133C3.53522 10.7441 3.46206 10.9215 3.46232 11.1063C3.46258 11.2911 3.53624 11.4682 3.6671 11.5987C3.79796 11.7292 3.9753 11.8023 4.1601 11.8021C4.3449 11.8018 4.52203 11.7282 4.65252 11.5973L8.19419 8.05563C8.32642 7.92902 8.50243 7.85834 8.68551 7.85834C8.86858 7.85834 9.04459 7.92902 9.17682 8.05563L9.29488 8.17438C9.69184 8.55319 10.2195 8.76453 10.7681 8.76453C11.3168 8.76453 11.8445 8.55319 12.2414 8.17438L14.7317 5.68411L15.4859 6.43827C15.5833 6.53379 15.7067 6.59849 15.8407 6.62428C15.9747 6.65007 16.1133 6.63581 16.2393 6.58329C16.3652 6.53076 16.4729 6.4423 16.5489 6.32894C16.6248 6.21559 16.6657 6.08236 16.6664 5.94591V3.80286C16.6664 3.52659 16.5567 3.26164 16.3613 3.06629C16.166 2.87094 15.901 2.76119 15.6247 2.76119Z" fill="var(--fill-0, #69738C)"/>
<path d="M15.9722 15.2612H3.47222C2.91969 15.2612 2.38978 15.0417 1.99908 14.651C1.60838 14.2603 1.38889 13.7304 1.38889 13.1778V0.694505C1.38889 0.510327 1.31572 0.333693 1.18549 0.203459C1.05526 0.0732255 0.878623 6.10352e-05 0.694444 6.10352e-05C0.510266 6.10352e-05 0.333632 0.0732255 0.203398 0.203459C0.0731645 0.333693 0 0.510327 0 0.694505V13.1778C0.00110268 14.0984 0.367279 14.9809 1.01821 15.6319C1.66914 16.2828 2.55167 16.649 3.47222 16.6501H15.9722C16.1564 16.6501 16.333 16.5769 16.4633 16.4467C16.5935 16.3164 16.6667 16.1398 16.6667 15.9556C16.6667 15.7714 16.5935 15.5948 16.4633 15.4646C16.333 15.3343 16.1564 15.2612 15.9722 15.2612Z" fill="var(--fill-0, #69738C)"/>
</g>
</g>
<defs>
<clipPath id="clip0_0_198">
<rect width="16.6667" height="16.6667" fill="white"/>
</clipPath>
</defs>
</svg>
