<svg preserveAspectRatio="none" width="100%" height="100%" overflow="visible" style="display: block;" viewBox="0 0 16.6667 16.6667" fill="none" xmlns="http://www.w3.org/2000/svg">
<g id="comments-dots" clip-path="url(#clip0_0_181)">
<path id="Vector" d="M9.37503 7.29167C9.37503 7.86667 8.90836 8.33333 8.33336 8.33333C7.75836 8.33333 7.29169 7.86667 7.29169 7.29167C7.29169 6.71667 7.75836 6.25 8.33336 6.25C8.90836 6.25 9.37503 6.71667 9.37503 7.29167ZM11.8056 6.25C11.2306 6.25 10.7639 6.71667 10.7639 7.29167C10.7639 7.86667 11.2306 8.33333 11.8056 8.33333C12.3806 8.33333 12.8472 7.86667 12.8472 7.29167C12.8472 6.71667 12.3806 6.25 11.8056 6.25ZM4.86114 6.25C4.28614 6.25 3.81947 6.71667 3.81947 7.29167C3.81947 7.86667 4.28614 8.33333 4.86114 8.33333C5.43614 8.33333 5.90281 7.86667 5.90281 7.29167C5.90281 6.71667 5.43614 6.25 4.86114 6.25ZM16.6667 2.77778V11.1111C16.6667 12.6431 15.4209 13.8889 13.8889 13.8889H11.9084L9.23614 16.0972C8.98545 16.3208 8.66392 16.4333 8.33892 16.4333C8.00836 16.4333 7.67572 16.3167 7.41044 16.0812L4.80697 13.8889H2.77711C1.24517 13.8889 -0.000666905 12.6431 -0.000666905 11.1111V2.77778C2.75394e-05 1.24583 1.24586 -2.38419e-07 2.77781 -2.38419e-07H13.8889C15.4209 -2.38419e-07 16.6667 1.24583 16.6667 2.77778ZM15.2778 2.77778C15.2778 2.01181 14.6549 1.38889 13.8889 1.38889H2.77781C2.01183 1.38889 1.38892 2.01181 1.38892 2.77778V11.1111C1.38892 11.8771 2.01183 12.5 2.77781 12.5H5.06114C5.22433 12.5 5.38336 12.5576 5.50906 12.6632L8.32017 15.0312L11.2167 12.659C11.341 12.5562 11.4972 12.5 11.6591 12.5H13.8896C14.6556 12.5 15.2785 11.8771 15.2785 11.1111L15.2778 2.77778Z" fill="var(--fill-0, #69738C)"/>
</g>
<defs>
<clipPath id="clip0_0_181">
<rect width="16.6667" height="16.6667" fill="white"/>
</clipPath>
</defs>
</svg>
