<svg preserveAspectRatio="none" width="100%" height="100%" overflow="visible" style="display: block;" viewBox="0 0 16.6667 16.6667" fill="none" xmlns="http://www.w3.org/2000/svg">
<g id="Grid-alt" clip-path="url(#clip0_0_236)">
<path id="Vector" d="M13.1944 0H3.47222C2.55167 0.00110268 1.66914 0.367279 1.01821 1.01821C0.367279 1.66914 0.00110268 2.55167 0 3.47222L0 13.1944C0.00110268 14.115 0.367279 14.9975 1.01821 15.6485C1.66914 16.2994 2.55167 16.6656 3.47222 16.6667H13.1944C14.115 16.6656 14.9975 16.2994 15.6485 15.6485C16.2994 14.9975 16.6656 14.115 16.6667 13.1944V3.47222C16.6656 2.55167 16.2994 1.66914 15.6485 1.01821C14.9975 0.367279 14.115 0.00110268 13.1944 0ZM11.1111 7.63889H9.02778V5.55556H11.1111V7.63889ZM12.5 5.55556H15.2778V7.63889H12.5V5.55556ZM9.02778 4.16667V1.38889H11.1111V4.16667H9.02778ZM7.63889 4.16667H5.55556V1.38889H7.63889V4.16667ZM7.63889 5.55556V7.63889H5.55556V5.55556H7.63889ZM4.16667 7.63889H1.38889V5.55556H4.16667V7.63889ZM1.38889 9.02778H4.16667V11.1111H1.38889V9.02778ZM5.55556 9.02778H7.63889V11.1111H5.55556V9.02778ZM7.63889 12.5V15.2778H5.55556V12.5H7.63889ZM9.02778 12.5H11.1111V15.2778H9.02778V12.5ZM9.02778 11.1111V9.02778H11.1111V11.1111H9.02778ZM12.5 9.02778H15.2778V11.1111H12.5V9.02778ZM15.2778 3.47222V4.16667H12.5V1.38889H13.1944C13.747 1.38889 14.2769 1.60838 14.6676 1.99908C15.0583 2.38978 15.2778 2.91969 15.2778 3.47222ZM3.47222 1.38889H4.16667V4.16667H1.38889V3.47222C1.38889 2.91969 1.60838 2.38978 1.99908 1.99908C2.38978 1.60838 2.91969 1.38889 3.47222 1.38889ZM1.38889 13.1944V12.5H4.16667V15.2778H3.47222C2.91969 15.2778 2.38978 15.0583 1.99908 14.6676C1.60838 14.2769 1.38889 13.747 1.38889 13.1944ZM13.1944 15.2778H12.5V12.5H15.2778V13.1944C15.2778 13.747 15.0583 14.2769 14.6676 14.6676C14.2769 15.0583 13.747 15.2778 13.1944 15.2778Z" fill="var(--fill-0, #69738C)"/>
</g>
<defs>
<clipPath id="clip0_0_236">
<rect width="16.6667" height="16.6667" fill="white"/>
</clipPath>
</defs>
</svg>
