<svg preserveAspectRatio="none" width="100%" height="100%" overflow="visible" style="display: block;" viewBox="0 0 16.6667 16.6667" fill="none" xmlns="http://www.w3.org/2000/svg">
<g id="Home" clip-path="url(#clip0_0_186)">
<path id="Vector" d="M16.0564 6.29786L10.789 1.0298C10.1371 0.379797 9.25408 0.0147866 8.33348 0.0147866C7.41288 0.0147866 6.52984 0.379797 5.87793 1.0298L0.610564 6.29786C0.416415 6.49077 0.262488 6.72029 0.157705 6.97313C0.0529219 7.22597 -0.000632034 7.49709 0.000147466 7.77078V14.5881C0.000147466 15.1407 0.219641 15.6706 0.610342 16.0613C1.00104 16.452 1.53095 16.6715 2.08348 16.6715H14.5835C15.136 16.6715 15.6659 16.452 16.0566 16.0613C16.4473 15.6706 16.6668 15.1407 16.6668 14.5881V7.77078C16.6676 7.49709 16.614 7.22597 16.5093 6.97313C16.4045 6.72029 16.2505 6.49077 16.0564 6.29786ZM10.4168 15.2826H6.25015V12.5506C6.25015 11.9981 6.46964 11.4682 6.86034 11.0775C7.25104 10.6868 7.78095 10.4673 8.33348 10.4673C8.88602 10.4673 9.41592 10.6868 9.80662 11.0775C10.1973 11.4682 10.4168 11.9981 10.4168 12.5506V15.2826ZM15.2779 14.5881C15.2779 14.7723 15.2048 14.949 15.0745 15.0792C14.9443 15.2094 14.7677 15.2826 14.5835 15.2826H11.8057V12.5506C11.8057 11.6297 11.4399 10.7466 10.7887 10.0954C10.1375 9.44424 9.25437 9.07842 8.33348 9.07842C7.41259 9.07842 6.52942 9.44424 5.87825 10.0954C5.22708 10.7466 4.86126 11.6297 4.86126 12.5506V15.2826H2.08348C1.8993 15.2826 1.72267 15.2094 1.59243 15.0792C1.4622 14.949 1.38904 14.7723 1.38904 14.5881V7.77078C1.38968 7.58673 1.46278 7.41035 1.59251 7.2798L6.85987 2.01383C7.25133 1.6242 7.78117 1.40546 8.33348 1.40546C8.8858 1.40546 9.41563 1.6242 9.80709 2.01383L15.0745 7.28189C15.2037 7.41192 15.2767 7.58746 15.2779 7.77078V14.5881Z" fill="var(--fill-0, #69738C)"/>
</g>
<defs>
<clipPath id="clip0_0_186">
<rect width="16.6667" height="16.6667" fill="white"/>
</clipPath>
</defs>
</svg>
