<svg preserveAspectRatio="xMidYMid meet" style="display: block;" viewBox="0 0 16.6667 16.6667" fill="none" xmlns="http://www.w3.org/2000/svg">
<g id="marker" clip-path="url(#clip0_0_292)">
<g id="Vector">
<path d="M8.33333 4.16662C7.78394 4.16662 7.24689 4.32953 6.79008 4.63476C6.33328 4.93998 5.97725 5.37381 5.767 5.88138C5.55676 6.38896 5.50175 6.94748 5.60893 7.48631C5.71611 8.02515 5.98067 8.5201 6.36915 8.90858C6.75763 9.29706 7.25258 9.56162 7.79142 9.6688C8.33025 9.77598 8.88877 9.72097 9.39634 9.51073C9.90392 9.30048 10.3377 8.94445 10.643 8.48764C10.9482 8.03084 11.1111 7.49379 11.1111 6.94439C11.1111 6.20768 10.8185 5.50114 10.2975 4.98021C9.77658 4.45927 9.07005 4.16662 8.33333 4.16662ZM8.33333 8.33328C8.05864 8.33328 7.79011 8.25183 7.56171 8.09921C7.33331 7.9466 7.15529 7.72968 7.05017 7.4759C6.94505 7.22211 6.91754 6.94285 6.97113 6.67343C7.02472 6.40402 7.157 6.15654 7.35124 5.9623C7.54548 5.76806 7.79296 5.63578 8.06238 5.58219C8.33179 5.5286 8.61105 5.55611 8.86484 5.66123C9.11862 5.76635 9.33554 5.94437 9.48815 6.17277C9.64077 6.40117 9.72222 6.6697 9.72222 6.94439C9.72222 7.31275 9.57589 7.66602 9.31543 7.92649C9.05496 8.18695 8.70169 8.33328 8.33333 8.33328Z" fill="#69738C"/>
<path d="M8.33321 16.6668C7.74845 16.6698 7.17148 16.5327 6.65062 16.2668C6.12975 16.001 5.68015 15.6143 5.33946 15.139C2.69293 11.4883 1.35057 8.74389 1.35057 6.98139C1.35057 5.12948 2.08624 3.35342 3.39574 2.04392C4.70524 0.734423 6.4813 -0.0012456 8.33321 -0.0012456C10.1851 -0.0012456 11.9612 0.734423 13.2707 2.04392C14.5802 3.35342 15.3158 5.12948 15.3158 6.98139C15.3158 8.74389 13.9735 11.4883 11.327 15.139C10.9863 15.6143 10.5367 16.001 10.0158 16.2668C9.49494 16.5327 8.91797 16.6698 8.33321 16.6668ZM8.33321 1.51473C6.8835 1.51638 5.49364 2.09301 4.46854 3.11811C3.44344 4.14321 2.86681 5.53307 2.86516 6.98278C2.86516 8.37862 4.17974 10.9599 6.56585 14.2508C6.76841 14.5298 7.03416 14.7569 7.34135 14.9135C7.64853 15.0701 7.98842 15.1517 8.33321 15.1517C8.678 15.1517 9.01789 15.0701 9.32508 14.9135C9.63226 14.7569 9.89801 14.5298 10.1006 14.2508C12.4867 10.9599 13.8013 8.37862 13.8013 6.98278C13.7996 5.53307 13.223 4.14321 12.1979 3.11811C11.1728 2.09301 9.78292 1.51638 8.33321 1.51473Z" fill="#69738C"/>
</g>
</g>
<defs>
<clipPath id="clip0_0_292">
<rect width="16.6667" height="16.6667" fill="white"/>
</clipPath>
</defs>
</svg>
