<svg preserveAspectRatio="xMidYMid meet" style="display: block;" viewBox="0 0 16.6667 16.6667" fill="none" xmlns="http://www.w3.org/2000/svg">
<g id="Money-hand" clip-path="url(#clip0_0_296)">
<path id="Vector" fill-rule="evenodd" clip-rule="evenodd" d="M6.51503 6.94876H6.2511C6.2511 7.32728 5.94388 7.63757 5.56634 7.64285H8.92483C9.7166 7.64285 10.4111 8.06628 10.7931 8.69797L13.0296 6.24759C13.4116 5.83804 13.9255 5.59508 14.4812 5.56732C15.0437 5.54649 15.5785 5.73391 15.9883 6.10876V6.10182C16.8287 6.87233 16.8982 8.18429 16.1411 9.0381L11.4113 14.3415C10.0917 15.82 8.2025 16.6669 6.22306 16.6669H2.77814C1.24321 16.6669 -2.28882e-05 15.4244 -2.28882e-05 13.8903V10.4195C-2.28882e-05 8.88539 1.24321 7.64285 2.77814 7.64285H5.54679C5.16925 7.63757 4.86202 7.32728 4.86202 6.94876H4.6745C3.93134 6.94876 3.2368 6.54615 2.86869 5.90752C2.67422 5.57433 2.78534 5.15089 3.11872 4.95653C3.4521 4.76216 3.87577 4.87323 4.07025 5.20642C4.19526 5.42161 4.42446 5.5535 4.6745 5.5535H6.50808C6.74423 5.5535 6.9387 5.35914 6.9387 5.12312C6.9387 4.90794 6.7859 4.72746 6.57754 4.69275L4.29944 4.31096C3.41738 4.16519 2.7784 3.40856 2.7784 2.51309C2.7784 1.51351 3.59101 0.694401 4.5981 0.694401H4.86202C4.86202 0.312615 5.17456 0.000244141 5.55656 0.000244141C5.93856 0.000244141 6.2511 0.312615 6.2511 0.694401H6.43863C7.18179 0.694401 7.87633 1.09701 8.24444 1.73564C8.43891 2.06883 8.32778 2.49227 7.9944 2.68663C7.65408 2.881 7.23041 2.76993 7.04288 2.43674C6.91786 2.22155 6.68866 2.08966 6.43863 2.08966H4.60504C4.3689 2.08966 4.17443 2.28402 4.17443 2.52003C4.17443 2.73522 4.32723 2.9157 4.53559 2.95041L6.81368 3.3322C7.69575 3.47797 8.33473 4.2346 8.33473 5.13007C8.33473 6.12965 7.52211 6.94876 6.51503 6.94876ZM10.3764 13.4252L15.1062 8.12182H15.0993C15.3563 7.83721 15.3354 7.39295 15.0507 7.13611C14.9118 7.01116 14.7312 6.95563 14.5437 6.95563C14.3561 6.96257 14.1825 7.04587 14.0575 7.1847L10.9807 10.5583C10.7167 11.3011 10.0569 11.8703 9.23737 11.9883L5.65354 12.5019C5.27849 12.5575 4.92427 12.2937 4.86871 11.9119C4.81314 11.5301 5.07707 11.1831 5.45907 11.1275L9.0429 10.6138C9.43184 10.5583 9.72355 10.2182 9.72355 9.82944C9.72355 9.39212 9.36933 9.0381 8.93177 9.0381H2.77814C2.01415 9.0381 1.38906 9.66285 1.38906 10.4264V13.8972C1.38906 14.6608 2.01415 15.2855 2.77814 15.2855H6.23001C7.81356 15.2855 9.32071 14.6052 10.3764 13.4252Z" fill="#69738C"/>
</g>
<defs>
<clipPath id="clip0_0_296">
<rect width="16.6667" height="16.6667" fill="white"/>
</clipPath>
</defs>
</svg>
