<svg preserveAspectRatio="xMidYMid meet" style="display: block;" viewBox="0 0 20 20" fill="none" xmlns="http://www.w3.org/2000/svg">
<g id="Page">
<path id="Vector" d="M5.76479 0H14.5883C17.021 0 19.0001 1.86917 19.0001 4.16667V15.8333C19.0001 18.1308 17.021 20 14.5883 20H5.76479C3.33214 20 1.35303 18.1308 1.35303 15.8333V4.16667C1.35303 1.86917 3.33214 0 5.76479 0ZM14.5883 1.66667H5.76479C4.30538 1.66667 3.11773 2.78833 3.11773 4.16667H17.2354C17.2354 2.78833 16.0477 1.66667 14.5883 1.66667ZM5.76479 18.3333H14.5883C16.0477 18.3333 17.2354 17.2117 17.2354 15.8333V5.83333H3.11773V15.8333C3.11773 17.2117 4.30538 18.3333 5.76479 18.3333ZM5.76479 9.16667C5.76479 9.6275 6.16009 10 6.64714 10H13.706C14.193 10 14.5883 9.6275 14.5883 9.16667C14.5883 8.70583 14.193 8.33333 13.706 8.33333H6.64714C6.16009 8.33333 5.76479 8.70583 5.76479 9.16667ZM9.2942 12.5C9.2942 12.9608 9.6895 13.3333 10.1766 13.3333H13.706C14.193 13.3333 14.5883 12.9608 14.5883 12.5C14.5883 12.0392 14.193 11.6667 13.706 11.6667H10.1766C9.6895 11.6667 9.2942 12.0392 9.2942 12.5Z" fill="#69738C"/>
</g>
</svg>
