<svg preserveAspectRatio="xMidYMid meet" style="display: block;" viewBox="0 0 14.9998 20" fill="none" xmlns="http://www.w3.org/2000/svg">
<path id="Vector" fill-rule="evenodd" clip-rule="evenodd" d="M10.8332 0H4.16662C3.06197 0.0013232 2.00294 0.44073 1.22184 1.22184C0.44073 2.00294 0.0013232 3.06197 0 4.16662V19.1665C0.000117404 19.318 0.0415716 19.4667 0.1199 19.5965C0.198228 19.7262 0.310465 19.8322 0.444527 19.9029C0.578589 19.9736 0.729399 20.0064 0.880724 19.9978C1.03205 19.9892 1.17816 19.9394 1.30332 19.854L3.0583 18.6548L4.81328 19.854C4.95194 19.9489 5.11606 19.9997 5.28411 19.9997C5.45216 19.9997 5.61628 19.9489 5.75494 19.854L7.50492 18.6548L9.2549 19.854C9.39364 19.9491 9.55793 20 9.72615 20C9.89437 20 10.0587 19.9491 10.1974 19.854L11.9474 18.6556L13.6974 19.8531C13.8225 19.9383 13.9684 19.9879 14.1195 19.9964C14.2706 20.005 14.4212 19.9722 14.5551 19.9016C14.689 19.831 14.8012 19.7253 14.8795 19.5958C14.9579 19.4662 14.9995 19.3178 14.9998 19.1665V4.16662C14.9985 3.06197 14.5591 2.00294 13.778 1.22184C12.9969 0.44073 11.9379 0.0013232 10.8332 0ZM13.3332 17.5831L12.4165 16.9565C12.2777 16.8612 12.1133 16.8102 11.9449 16.8102C11.7765 16.8102 11.612 16.8612 11.4732 16.9565L9.72323 18.1556L7.97325 16.9565C7.83451 16.8614 7.67023 16.8104 7.502 16.8104C7.33378 16.8104 7.1695 16.8614 7.03076 16.9565L5.28078 18.1556L3.5308 16.9565C3.39222 16.8617 3.22826 16.811 3.06038 16.811C2.89251 16.811 2.72854 16.8617 2.58997 16.9565L1.66665 17.5831V4.16662C1.66665 3.50359 1.93004 2.86771 2.39887 2.39887C2.86771 1.93004 3.50359 1.66665 4.16662 1.66665H10.8332C11.4963 1.66665 12.1321 1.93004 12.601 2.39887C13.0698 2.86771 13.3332 3.50359 13.3332 4.16662V17.5831ZM10.8333 6.66651H4.16671C3.70647 6.66651 3.33338 7.0396 3.33338 7.49984C3.33338 7.96007 3.70647 8.33316 4.16671 8.33316H10.8333C11.2935 8.33316 11.6666 7.96007 11.6666 7.49984C11.6666 7.0396 11.2935 6.66651 10.8333 6.66651ZM4.16671 9.99989H9.16665C9.62689 9.99989 9.99998 10.373 9.99998 10.8332C9.99998 11.2934 9.62689 11.6665 9.16665 11.6665H4.16671C3.70647 11.6665 3.33338 11.2934 3.33338 10.8332C3.33338 10.373 3.70647 9.99989 4.16671 9.99989Z" fill="#69738C"/>
</svg>
