<svg preserveAspectRatio="xMidYMid meet" style="display: block;" viewBox="0 0 16.6667 16.6667" fill="none" xmlns="http://www.w3.org/2000/svg">
<g id="Search" clip-path="url(#clip0_0_171)">
<path id="Vector" d="M16.463 15.4817L12.3179 11.3366C13.4475 9.95507 14.0029 8.19222 13.8692 6.41269C13.7355 4.63315 12.9229 2.97308 11.5996 1.77585C10.2762 0.578625 8.54331 -0.0641658 6.75932 -0.0195604C4.97533 0.025045 3.27672 0.753634 2.01485 2.0155C0.752987 3.27737 0.0243986 4.97597 -0.0202068 6.75997C-0.0648122 8.54396 0.577978 10.2769 1.77521 11.6002C2.97244 12.9236 4.63251 13.7361 6.41204 13.8698C8.19158 14.0035 9.95443 13.4481 11.336 12.3185L15.4811 16.4637C15.6121 16.5902 15.7875 16.6602 15.9696 16.6586C16.1517 16.657 16.3258 16.584 16.4546 16.4552C16.5833 16.3265 16.6564 16.1523 16.658 15.9702C16.6595 15.7881 16.5895 15.6127 16.463 15.4817ZM6.94429 12.5005C5.8455 12.5005 4.7714 12.1747 3.85779 11.5642C2.94418 10.9538 2.23211 10.0861 1.81163 9.07096C1.39114 8.05581 1.28112 6.93877 1.49548 5.8611C1.70985 4.78343 2.23896 3.79352 3.01592 3.01657C3.79288 2.23961 4.78278 1.71049 5.86045 1.49613C6.93813 1.28177 8.05516 1.39179 9.07031 1.81227C10.0855 2.23276 10.9531 2.94483 11.5636 3.85844C12.174 4.77204 12.4998 5.84615 12.4998 6.94494C12.4982 8.41785 11.9123 9.82997 10.8708 10.8715C9.82932 11.913 8.41721 12.4988 6.94429 12.5005Z" fill="#69738C"/>
</g>
<defs>
<clipPath id="clip0_0_171">
<rect width="16.6667" height="16.6667" fill="white"/>
</clipPath>
</defs>
</svg>
