<svg preserveAspectRatio="xMidYMid meet" style="display: block;" viewBox="0 0 14.9954 16.6667" fill="none" xmlns="http://www.w3.org/2000/svg">
<g id="Vector">
<path d="M7.49773 5.55598C6.94833 5.55598 6.41128 5.7189 5.95448 6.02412C5.49767 6.32935 5.14164 6.76318 4.93139 7.27075C4.72115 7.77832 4.66614 8.33684 4.77332 8.87568C4.8805 9.41452 5.14506 9.90947 5.53354 10.2979C5.92202 10.6864 6.41697 10.951 6.95581 11.0582C7.49464 11.1653 8.05316 11.1103 8.56074 10.9001C9.06831 10.6899 9.50214 10.3338 9.80736 9.87701C10.1126 9.42021 10.2755 8.88315 10.2755 8.33376C10.2755 7.59705 9.98285 6.89051 9.46191 6.36958C8.94098 5.84864 8.23444 5.55598 7.49773 5.55598ZM7.49773 9.72265C7.22303 9.72265 6.9545 9.64119 6.7261 9.48858C6.4977 9.33597 6.31968 9.11905 6.21456 8.86527C6.10944 8.61148 6.08193 8.33222 6.13552 8.0628C6.18911 7.79339 6.32139 7.54591 6.51563 7.35167C6.70987 7.15743 6.95735 7.02515 7.22677 6.97156C7.49619 6.91797 7.77544 6.94547 8.02923 7.0506C8.28302 7.15572 8.49993 7.33374 8.65255 7.56214C8.80516 7.79054 8.88662 8.05907 8.88662 8.33376C8.88662 8.70212 8.74029 9.05539 8.47982 9.31586C8.21935 9.57632 7.86608 9.72265 7.49773 9.72265Z" fill="#69738C"/>
<path d="M13.9519 9.65278L13.6435 9.475C13.7823 8.71975 13.7823 7.94553 13.6435 7.19028L13.9519 7.0125C14.189 6.87571 14.3968 6.69355 14.5635 6.47643C14.7302 6.25931 14.8525 6.01148 14.9235 5.7471C14.9944 5.48271 15.0126 5.20693 14.9769 4.93553C14.9413 4.66412 14.8525 4.40239 14.7157 4.16528C14.579 3.92817 14.3968 3.72033 14.1797 3.55361C13.9626 3.3869 13.7147 3.26459 13.4503 3.19365C13.186 3.12272 12.9102 3.10456 12.6388 3.1402C12.3674 3.17584 12.1056 3.26459 11.8685 3.40139L11.5595 3.57986C10.9758 3.08119 10.3051 2.69462 9.58102 2.43958V2.08333C9.58102 1.5308 9.36153 1.00089 8.97083 0.610194C8.58013 0.219493 8.05023 0 7.49769 0C6.94516 0 6.41525 0.219493 6.02455 0.610194C5.63385 1.00089 5.41436 1.5308 5.41436 2.08333V2.43958C4.69032 2.69553 4.01981 3.08306 3.43658 3.58264L3.12616 3.40278C2.6473 3.12651 2.0783 3.05179 1.54434 3.19504C1.01039 3.3383 0.555207 3.6878 0.27894 4.16667C0.00267297 4.64553 -0.0720514 5.21453 0.0712055 5.74848C0.214463 6.28244 0.563966 6.73762 1.04283 7.01389L1.35116 7.19167C1.21235 7.94691 1.21235 8.72114 1.35116 9.47639L1.04283 9.65417C0.563966 9.93043 0.214463 10.3856 0.0712055 10.9196C-0.0720514 11.4535 0.00267297 12.0225 0.27894 12.5014C0.555207 12.9803 1.01039 13.3298 1.54434 13.473C2.0783 13.6163 2.6473 13.5415 3.12616 13.2653L3.43519 13.0868C4.01906 13.5855 4.69004 13.9721 5.41436 14.2271V14.5833C5.41436 15.1359 5.63385 15.6658 6.02455 16.0565C6.41525 16.4472 6.94516 16.6667 7.49769 16.6667C8.05023 16.6667 8.58013 16.4472 8.97083 16.0565C9.36153 15.6658 9.58102 15.1359 9.58102 14.5833V14.2271C10.3051 13.9711 10.9756 13.5836 11.5588 13.084L11.8692 13.2632C12.3481 13.5395 12.9171 13.6142 13.451 13.4709C13.985 13.3277 14.4402 12.9782 14.7164 12.4993C14.9927 12.0204 15.0674 11.4514 14.9242 10.9175C14.7809 10.3835 14.4314 9.92835 13.9526 9.65208L13.9519 9.65278ZM12.1824 7.03056C12.4176 7.88268 12.4176 8.78259 12.1824 9.63472C12.1414 9.78303 12.1507 9.94079 12.209 10.0832C12.2674 10.2256 12.3713 10.3446 12.5046 10.4215L13.2574 10.8562C13.417 10.9483 13.5335 11.1001 13.5812 11.278C13.6289 11.456 13.604 11.6456 13.5119 11.8052C13.4198 11.9648 13.2681 12.0813 13.0902 12.129C12.9122 12.1767 12.7226 12.1518 12.563 12.0597L11.8088 11.6236C11.6754 11.5463 11.5201 11.5157 11.3673 11.5364C11.2145 11.5572 11.073 11.6281 10.9651 11.7382C10.3469 12.3692 9.56823 12.8194 8.71297 13.0403C8.56369 13.0787 8.43142 13.1656 8.33699 13.2874C8.24257 13.4093 8.19136 13.5591 8.19144 13.7132V14.5833C8.19144 14.7675 8.11828 14.9441 7.98804 15.0744C7.85781 15.2046 7.68117 15.2778 7.497 15.2778C7.31282 15.2778 7.13618 15.2046 7.00595 15.0744C6.87572 14.9441 6.80255 14.7675 6.80255 14.5833V13.7139C6.80263 13.5597 6.75142 13.41 6.657 13.2881C6.56258 13.1663 6.43031 13.0794 6.28102 13.041C5.42571 12.8192 4.64722 12.368 4.02963 11.7361C3.92167 11.6261 3.78015 11.5551 3.62738 11.5343C3.47462 11.5136 3.31929 11.5443 3.18588 11.6215L2.43311 12.0569C2.3541 12.1033 2.26671 12.1335 2.17597 12.1459C2.08523 12.1583 1.99294 12.1526 1.90439 12.1292C1.81585 12.1058 1.73282 12.0651 1.66007 12.0095C1.58731 11.9539 1.52629 11.8844 1.48049 11.8051C1.4347 11.7258 1.40505 11.6382 1.39324 11.5474C1.38144 11.4565 1.38772 11.3643 1.41171 11.2759C1.43571 11.1875 1.47695 11.1048 1.53306 11.0324C1.58917 10.96 1.65905 10.8994 1.73866 10.8542L2.49144 10.4194C2.62474 10.3425 2.72871 10.2235 2.78704 10.0811C2.84536 9.9387 2.85473 9.78095 2.81366 9.63264C2.57849 8.78051 2.57849 7.8806 2.81366 7.02847C2.85399 6.88047 2.84417 6.72329 2.78576 6.58145C2.72734 6.43962 2.6236 6.32111 2.49075 6.24444L1.73797 5.80972C1.57838 5.71763 1.46191 5.56592 1.41418 5.38795C1.36644 5.20999 1.39137 5.02035 1.48345 4.86076C1.57554 4.70117 1.72726 4.5847 1.90522 4.53697C2.08319 4.48924 2.27282 4.51416 2.43241 4.60625L3.18658 5.04236C3.31962 5.1198 3.47462 5.15084 3.62722 5.1306C3.77983 5.11037 3.92138 5.04 4.02963 4.93056C4.64775 4.29954 5.42646 3.84932 6.28172 3.62847C6.43146 3.58997 6.56408 3.50261 6.65855 3.38021C6.75302 3.25781 6.80394 3.10739 6.80325 2.95278V2.08333C6.80325 1.89916 6.87641 1.72252 7.00664 1.59229C7.13688 1.46205 7.31351 1.38889 7.49769 1.38889C7.68187 1.38889 7.8585 1.46205 7.98874 1.59229C8.11897 1.72252 8.19214 1.89916 8.19214 2.08333V2.95278C8.19206 3.10691 8.24326 3.2567 8.33769 3.37853C8.43211 3.50036 8.56438 3.58731 8.71366 3.62569C9.56923 3.84733 10.348 4.29853 10.9657 4.93056C11.0737 5.0406 11.2152 5.11159 11.368 5.13234C11.5208 5.15308 11.6761 5.12241 11.8095 5.04514L12.5623 4.60972C12.6413 4.5634 12.7287 4.53317 12.8194 4.52077C12.9101 4.50836 13.0024 4.51402 13.091 4.53743C13.1795 4.56084 13.2626 4.60153 13.3353 4.65716C13.4081 4.71279 13.4691 4.78226 13.5149 4.86158C13.5607 4.94089 13.5903 5.02848 13.6021 5.1193C13.6139 5.21012 13.6077 5.30237 13.5837 5.39076C13.5597 5.47914 13.5184 5.56191 13.4623 5.63429C13.4062 5.70667 13.3363 5.76723 13.2567 5.8125L12.5039 6.24722C12.3713 6.3241 12.2679 6.44269 12.2097 6.58451C12.1516 6.72633 12.142 6.88271 12.1824 7.03056Z" fill="#69738C"/>
</g>
</svg>
