<svg preserveAspectRatio="none" width="100%" height="100%" overflow="visible" style="display: block;" viewBox="0 0 16.2577 16.6671" fill="none" xmlns="http://www.w3.org/2000/svg">
<g id="Vector">
<path d="M15.7729 2.83125C15.5776 2.59683 15.333 2.4083 15.0566 2.27904C14.7802 2.14978 14.4787 2.08296 14.1736 2.08333H2.94583L2.91667 1.83958C2.85698 1.33293 2.61346 0.865786 2.23228 0.526721C1.85111 0.187655 1.35877 0.000237357 0.848611 0H0.694444C0.510266 0 0.333632 0.0731645 0.203398 0.203398C0.0731645 0.333632 0 0.510266 0 0.694444C0 0.878623 0.0731645 1.05526 0.203398 1.18549C0.333632 1.31572 0.510266 1.38889 0.694444 1.38889H0.848611C1.0187 1.38891 1.18287 1.45136 1.30998 1.56439C1.43709 1.67741 1.51829 1.83316 1.53819 2.00208L2.49375 10.1271C2.59295 10.9721 2.99894 11.7512 3.63466 12.3167C4.27037 12.8821 5.09157 13.1945 5.94236 13.1944H13.1944C13.3786 13.1944 13.5553 13.1213 13.6855 12.991C13.8157 12.8608 13.8889 12.6842 13.8889 12.5C13.8889 12.3158 13.8157 12.1392 13.6855 12.009C13.5553 11.8787 13.3786 11.8056 13.1944 11.8056H5.94236C5.51254 11.8043 5.09361 11.6702 4.74301 11.4216C4.39241 11.1729 4.1273 10.8219 3.98403 10.4167H12.2618C13.0759 10.4167 13.8641 10.1307 14.4888 9.60864C15.1134 9.08656 15.5347 8.3616 15.6792 7.56042L16.2243 4.53681C16.2787 4.23681 16.2665 3.92852 16.1885 3.63378C16.1105 3.33903 15.9686 3.06505 15.7729 2.83125ZM14.8611 4.29028L14.3153 7.31389C14.2286 7.79514 13.9753 8.23055 13.5999 8.54389C13.2245 8.85722 12.7508 9.02852 12.2618 9.02778H3.76319L3.10972 3.47222H14.1736C14.2756 3.47161 14.3765 3.49349 14.4691 3.53629C14.5617 3.57909 14.6438 3.64177 14.7094 3.71987C14.775 3.79796 14.8226 3.88956 14.8489 3.98815C14.8751 4.08674 14.8793 4.18989 14.8611 4.29028Z" fill="var(--fill-0, #69738C)"/>
<path d="M4.86121 16.6671C5.62828 16.6671 6.2501 16.0453 6.2501 15.2782C6.2501 14.5112 5.62828 13.8893 4.86121 13.8893C4.09415 13.8893 3.47233 14.5112 3.47233 15.2782C3.47233 16.0453 4.09415 16.6671 4.86121 16.6671Z" fill="var(--fill-0, #69738C)"/>
<path d="M11.8056 16.6671C12.5726 16.6671 13.1944 16.0453 13.1944 15.2782C13.1944 14.5112 12.5726 13.8893 11.8056 13.8893C11.0385 13.8893 10.4167 14.5112 10.4167 15.2782C10.4167 16.0453 11.0385 16.6671 11.8056 16.6671Z" fill="var(--fill-0, #69738C)"/>
</g>
</svg>
