<svg preserveAspectRatio="none" width="100%" height="100%" overflow="visible" style="display: block;" viewBox="0 0 16.6667 16.6667" fill="none" xmlns="http://www.w3.org/2000/svg">
<g id="Shop">
<path id="Vector" d="M16.6667 6.94448C16.6667 6.89379 16.6611 6.84325 16.65 6.79378L15.7472 2.7188C15.5795 1.94536 15.1509 1.2531 14.5334 0.758098C13.9159 0.2631 13.147 -0.00453914 12.3556 5.82559e-05H4.31111C3.52018 -0.00390027 2.7519 0.264031 2.13495 0.758976C1.518 1.25392 1.08986 1.94582 0.922223 2.7188L0.0166676 6.79378C0.00556213 6.84325 -2.75416e-05 6.89379 9.50971e-07 6.94448V7.63892C-0.000559332 8.31502 0.246474 8.96793 0.694445 9.47433V13.1945C0.695548 14.115 1.06172 14.9975 1.71265 15.6485C2.36358 16.2994 3.24612 16.6656 4.16667 16.6667H12.5C13.4206 16.6656 14.3031 16.2994 14.954 15.6485C15.6049 14.9975 15.9711 14.115 15.9722 13.1945V9.47433C16.4202 8.96793 16.6672 8.31502 16.6667 7.63892V6.94448ZM1.38889 7.02017L2.27778 3.02019C2.3785 2.55647 2.63543 2.14142 3.00556 1.84448C3.3757 1.54754 3.83659 1.38672 4.31111 1.38894H4.86111V3.47227C4.86111 3.65645 4.93428 3.83308 5.06451 3.96331C5.19474 4.09355 5.37138 4.16671 5.55556 4.16671C5.73973 4.16671 5.91637 4.09355 6.0466 3.96331C6.17684 3.83308 6.25 3.65645 6.25 3.47227V1.38894H10.4167V3.47227C10.4167 3.65645 10.4898 3.83308 10.6201 3.96331C10.7503 4.09355 10.9269 4.16671 11.1111 4.16671C11.2953 4.16671 11.4719 4.09355 11.6022 3.96331C11.7324 3.83308 11.8056 3.65645 11.8056 3.47227V1.38894H12.3556C12.8301 1.38672 13.291 1.54754 13.6611 1.84448C14.0312 2.14142 14.2882 2.55647 14.3889 3.02019L15.2778 7.02017V7.63892C15.2778 8.00727 15.1314 8.36054 14.871 8.62101C14.6105 8.88148 14.2572 9.0278 13.8889 9.0278H13.1944C12.8261 9.0278 12.4728 8.88148 12.2124 8.62101C11.9519 8.36054 11.8056 8.00727 11.8056 7.63892C11.8056 7.45474 11.7324 7.27811 11.6022 7.14788C11.4719 7.01764 11.2953 6.94448 11.1111 6.94448C10.9269 6.94448 10.7503 7.01764 10.6201 7.14788C10.4898 7.27811 10.4167 7.45474 10.4167 7.63892C10.4167 8.00727 10.2703 8.36054 10.0099 8.62101C9.7494 8.88148 9.39613 9.0278 9.02778 9.0278H7.63889C7.27053 9.0278 6.91726 8.88148 6.6568 8.62101C6.39633 8.36054 6.25 8.00727 6.25 7.63892C6.25 7.45474 6.17684 7.27811 6.0466 7.14788C5.91637 7.01764 5.73973 6.94448 5.55556 6.94448C5.37138 6.94448 5.19474 7.01764 5.06451 7.14788C4.93428 7.27811 4.86111 7.45474 4.86111 7.63892C4.86111 8.00727 4.71478 8.36054 4.45432 8.62101C4.19385 8.88148 3.84058 9.0278 3.47222 9.0278H2.77778C2.40942 9.0278 2.05615 8.88148 1.79569 8.62101C1.53522 8.36054 1.38889 8.00727 1.38889 7.63892V7.02017ZM12.5 15.2778H4.16667C3.61413 15.2778 3.08423 15.0583 2.69353 14.6676C2.30283 14.2769 2.08333 13.747 2.08333 13.1945V10.3285C2.31014 10.3872 2.54349 10.4169 2.77778 10.4167H3.47222C3.86654 10.4169 4.25636 10.3329 4.61563 10.1704C4.9749 10.0079 5.29535 9.7706 5.55556 9.47433C5.81576 9.7706 6.13621 10.0079 6.49548 10.1704C6.85475 10.3329 7.24457 10.4169 7.63889 10.4167H9.02778C9.42209 10.4169 9.81191 10.3329 10.1712 10.1704C10.5305 10.0079 10.8509 9.7706 11.1111 9.47433C11.3713 9.7706 11.6918 10.0079 12.051 10.1704C12.4103 10.3329 12.8001 10.4169 13.1944 10.4167H13.8889C14.1232 10.4169 14.3565 10.3872 14.5833 10.3285V13.1945C14.5833 13.747 14.3638 14.2769 13.9731 14.6676C13.5824 15.0583 13.0525 15.2778 12.5 15.2778Z" fill="var(--fill-0, #69738C)"/>
</g>
</svg>
