<svg preserveAspectRatio="xMidYMid meet" style="display: block;" viewBox="0 0 16.6667 16.6667" fill="none" xmlns="http://www.w3.org/2000/svg">
<path id="Vector" d="M8.33333 0C7.1875 0 6.25 0.9375 6.25 2.08333V14.5833C6.25 15.7292 7.1875 16.6667 8.33333 16.6667C9.47917 16.6667 10.4167 15.7292 10.4167 14.5833V2.08333C10.4167 0.9375 9.47917 0 8.33333 0ZM9.02778 14.5833C9.02778 14.9653 8.71528 15.2778 8.33333 15.2778C7.95139 15.2778 7.63889 14.9653 7.63889 14.5833V2.08333C7.63889 1.70139 7.95139 1.38889 8.33333 1.38889C8.71528 1.38889 9.02778 1.70139 9.02778 2.08333V14.5833ZM14.5833 4.16667C13.4375 4.16667 12.5 5.10417 12.5 6.25V14.5833C12.5 15.7292 13.4375 16.6667 14.5833 16.6667C15.7292 16.6667 16.6667 15.7292 16.6667 14.5833V6.25C16.6667 5.10417 15.7292 4.16667 14.5833 4.16667ZM15.2778 14.5833C15.2778 14.9653 14.9653 15.2778 14.5833 15.2778C14.2014 15.2778 13.8889 14.9653 13.8889 14.5833V6.25C13.8889 5.86806 14.2014 5.55556 14.5833 5.55556C14.9653 5.55556 15.2778 5.86806 15.2778 6.25V14.5833ZM2.08333 8.33333C0.9375 8.33333 0 9.27083 0 10.4167V14.5833C0 15.7292 0.9375 16.6667 2.08333 16.6667C3.22917 16.6667 4.16667 15.7292 4.16667 14.5833V10.4167C4.16667 9.27083 3.22917 8.33333 2.08333 8.33333ZM2.77778 14.5833C2.77778 14.9653 2.46528 15.2778 2.08333 15.2778C1.70139 15.2778 1.38889 14.9653 1.38889 14.5833V10.4167C1.38889 10.0347 1.70139 9.72222 2.08333 9.72222C2.46528 9.72222 2.77778 10.0347 2.77778 10.4167V14.5833Z" fill="#69738C"/>
</svg>
