<svg preserveAspectRatio="xMidYMid meet" style="display: block;" viewBox="0 0 16.6667 16.6667" fill="none" xmlns="http://www.w3.org/2000/svg">
<g id="Tickets">
<path id="Vector" d="M5.49107 6.4281C5.76259 6.69962 5.76259 7.13919 5.49107 7.41002C5.21955 7.68154 4.77998 7.68154 4.50916 7.41002C4.23764 7.1385 4.23764 6.69893 4.50916 6.4281C4.78068 6.15659 5.22024 6.15659 5.49107 6.4281ZM15.1102 10.6537L14.7179 11.046C14.6991 11.9022 14.3672 12.7522 13.7214 13.4064L11.5221 15.6341C10.8673 16.2972 9.9937 16.6639 9.06179 16.6667H9.04998C8.12293 16.6667 7.25143 16.3056 6.5959 15.65L1.44606 10.5439C0.994685 10.0933 0.776636 9.47315 0.846078 8.84053L1.37731 4.0379C1.41273 3.72125 1.65786 3.46917 1.97313 3.42612L6.757 2.77197C7.4042 2.68586 8.05557 2.906 8.5125 3.36292L13.7033 8.50998C13.9721 8.77872 14.1873 9.08149 14.3498 9.4044C14.9137 8.5947 14.8345 7.46349 14.1123 6.74129L8.84096 1.59909C8.68194 1.44007 8.4625 1.36646 8.25001 1.39632L3.46613 2.05047C3.0849 2.10185 2.7356 1.83589 2.68352 1.45674C2.63213 1.07689 2.8981 0.726898 3.27725 0.674816L8.06182 0.0199762C8.70138 -0.0709931 9.3597 0.152611 9.81732 0.611624L15.0873 5.75382C16.4386 7.10447 16.4463 9.30024 15.1095 10.6544L15.1102 10.6537ZM12.7228 9.49398L7.53198 4.34692C7.37712 4.19206 7.15977 4.12054 6.9438 4.14762L2.69741 4.72885L2.2259 8.99261C2.20298 9.20302 2.2752 9.40995 2.42519 9.55925L7.57503 14.6653C7.97016 15.0612 8.49306 15.2771 9.04929 15.2771H9.05623C9.61594 15.2757 10.1402 15.0556 10.5326 14.657L12.7318 12.4293C13.5339 11.6168 13.5297 10.2995 12.7221 9.49259L12.7228 9.49398Z" fill="#69738C"/>
</g>
</svg>
