<svg preserveAspectRatio="none" width="100%" height="100%" overflow="visible" style="display: block;" viewBox="0 0 16.6667 16.6667" fill="none" xmlns="http://www.w3.org/2000/svg">
<g id="Time-past" clip-path="url(#clip0_0_214)">
<g id="Vector">
<path d="M8.33333 0C6.2816 0.00146276 4.30287 0.761543 2.77778 2.13403V0.694444C2.77778 0.510266 2.70461 0.333632 2.57438 0.203398C2.44415 0.0731645 2.26751 0 2.08333 0C1.89916 0 1.72252 0.0731645 1.59229 0.203398C1.46205 0.333632 1.38889 0.510266 1.38889 0.694444V2.77778C1.38889 3.33031 1.60838 3.86022 1.99908 4.25092C2.38978 4.64162 2.91969 4.86111 3.47222 4.86111H5.55556C5.73973 4.86111 5.91637 4.78795 6.0466 4.65771C6.17684 4.52748 6.25 4.35084 6.25 4.16667C6.25 3.98249 6.17684 3.80585 6.0466 3.67562C5.91637 3.54539 5.73973 3.47222 5.55556 3.47222H3.47222C3.4488 3.46875 3.42561 3.46388 3.40278 3.45764C4.53439 2.31794 6.02648 1.6063 7.62435 1.44421C9.22222 1.28212 10.8268 1.67962 12.1643 2.56886C13.5017 3.4581 14.489 4.78395 14.9578 6.3201C15.4265 7.85625 15.3476 9.50747 14.7344 10.9919C14.1213 12.4763 13.012 13.7019 11.5958 14.4595C10.1796 15.2171 8.54444 15.4598 6.96932 15.146C5.39419 14.8322 3.9768 13.9815 2.95907 12.739C1.94134 11.4966 1.38637 9.9394 1.38889 8.33333C1.38889 8.14916 1.31572 7.97252 1.18549 7.84229C1.05526 7.71205 0.878623 7.63889 0.694444 7.63889C0.510266 7.63889 0.333632 7.71205 0.203398 7.84229C0.0731645 7.97252 0 8.14916 0 8.33333C0 9.98151 0.488741 11.5927 1.40442 12.9631C2.3201 14.3335 3.62159 15.4016 5.1443 16.0323C6.66702 16.6631 8.34258 16.8281 9.95909 16.5065C11.5756 16.185 13.0605 15.3913 14.2259 14.2259C15.3913 13.0605 16.185 11.5756 16.5065 9.95909C16.8281 8.34258 16.6631 6.66702 16.0323 5.1443C15.4016 3.62159 14.3335 2.3201 12.9631 1.40442C11.5927 0.488741 9.98151 0 8.33333 0Z" fill="var(--fill-0, #69738C)"/>
<path d="M8.33328 4.16667C8.1491 4.16667 7.97247 4.23983 7.84224 4.37006C7.712 4.5003 7.63884 4.67693 7.63884 4.86111V8.33333C7.63888 8.5175 7.71207 8.6941 7.84231 8.82431L9.92564 10.9076C10.0566 11.0341 10.232 11.1041 10.4141 11.1026C10.5962 11.101 10.7704 11.0279 10.8991 10.8992C11.0279 10.7704 11.1009 10.5962 11.1025 10.4142C11.1041 10.2321 11.0341 10.0567 10.9076 9.9257L9.02773 8.04583V4.86111C9.02773 4.67693 8.95456 4.5003 8.82433 4.37006C8.69409 4.23983 8.51746 4.16667 8.33328 4.16667Z" fill="var(--fill-0, #69738C)"/>
</g>
</g>
<defs>
<clipPath id="clip0_0_214">
<rect width="16.6667" height="16.6667" fill="white"/>
</clipPath>
</defs>
</svg>
