<svg preserveAspectRatio="none" width="100%" height="100%" overflow="visible" style="display: block;" viewBox="0 0 20 18.3333" fill="none" xmlns="http://www.w3.org/2000/svg">
<path id="Vector" d="M15.8333 3.33333H14.1025C13.8225 1.7475 12.6417 0.438333 11.0408 0.0266666C10.6 -0.0875 10.1417 0.180833 10.0258 0.625833C9.91083 1.07167 10.18 1.52583 10.6258 1.64C11.7292 1.92417 12.5 2.92 12.5 4.06167V13.3333H3.33333C2.41417 13.3333 1.66667 12.5858 1.66667 11.6667V8.33333H3.75C4.21083 8.33333 4.58333 7.96 4.58333 7.5C4.58333 7.04 4.21083 6.66667 3.75 6.66667H1.66667C0.7475 6.66667 0 7.41417 0 8.33333V11.6667C0 13.2333 1.08667 14.5508 2.54583 14.9058C2.51583 15.0733 2.5 15.2442 2.5 15.4167C2.5 17.025 3.80833 18.3333 5.41667 18.3333C7.025 18.3333 8.33333 17.025 8.33333 15.4167C8.33333 15.2758 8.3225 15.1375 8.3025 15H11.6975C11.6775 15.1375 11.6667 15.2758 11.6667 15.4167C11.6667 17.025 12.975 18.3333 14.5833 18.3333C16.1917 18.3333 17.5 17.025 17.5 15.4167C17.5 15.2442 17.4842 15.0733 17.4542 14.9058C18.9133 14.5508 20 13.2333 20 11.6667V7.5C20 5.2025 18.1308 3.33333 15.8333 3.33333ZM18.3333 7.5V8.33333H14.1667V5H15.8333C17.2117 5 18.3333 6.12167 18.3333 7.5ZM6.66667 15.4167C6.66667 16.1058 6.10583 16.6667 5.41667 16.6667C4.7275 16.6667 4.16667 16.1058 4.16667 15.4167C4.16667 15.2592 4.1975 15.12 4.2425 15H6.59167C6.63667 15.12 6.6675 15.2592 6.6675 15.4167H6.66667ZM14.5833 16.6667C13.8942 16.6667 13.3333 16.1058 13.3333 15.4167C13.3333 15.2592 13.3642 15.12 13.4092 15H15.7583C15.8033 15.12 15.8342 15.2592 15.8342 15.4167C15.8342 16.1058 15.2725 16.6667 14.5833 16.6667ZM16.6667 13.3333H14.1667V10H18.3333V11.6667C18.3333 12.5858 17.5858 13.3333 16.6667 13.3333ZM0 0.833333C0 0.373333 0.3725 0 0.833333 0H7.62833C8.08917 0 8.46167 0.373333 8.46167 0.833333C8.46167 1.29333 8.08917 1.66667 7.62833 1.66667H0.833333C0.3725 1.66667 0 1.29333 0 0.833333ZM0 4.16667C0 3.70667 0.3725 3.33333 0.833333 3.33333H5.96167C6.4225 3.33333 6.795 3.70667 6.795 4.16667C6.795 4.62667 6.4225 5 5.96167 5H0.833333C0.3725 5 0 4.62667 0 4.16667Z" fill="var(--fill-0, #69738C)"/>
</svg>
