<svg preserveAspectRatio="xMidYMid meet" style="display: block;" viewBox="0 0 16.6667 16.6667" fill="none" xmlns="http://www.w3.org/2000/svg">
<g id="Truck-side" clip-path="url(#clip0_0_203)">
<path id="Vector" d="M13.1944 3.4718H11.7361C11.5749 2.68806 11.1485 1.98384 10.5286 1.47785C9.9088 0.971861 9.13347 0.695031 8.33333 0.694021H3.47222C2.55166 0.695123 1.66913 1.0613 1.0182 1.71223C0.367273 2.36316 0.00109632 3.24569 -6.35783e-06 4.16624L-6.35783e-06 10.4162C0.00173934 11.0382 0.212173 11.6416 0.597588 12.1298C0.983004 12.6179 1.5211 12.9626 2.12569 13.1086C2.06025 13.4561 2.07143 13.8138 2.15846 14.1565C2.24549 14.4993 2.40627 14.8189 2.62957 15.0932C2.85288 15.3674 3.13334 15.5896 3.45137 15.7442C3.76941 15.8989 4.11736 15.9823 4.47094 15.9886C4.82453 15.9949 5.17523 15.9239 5.49858 15.7807C5.82192 15.6375 6.11012 15.4254 6.34306 15.1594C6.576 14.8933 6.74806 14.5796 6.84726 14.2401C6.94645 13.9007 6.97037 13.5437 6.91735 13.194H9.75208C9.73421 13.3089 9.72469 13.425 9.7236 13.5412C9.7236 14.1859 9.97968 14.8041 10.4355 15.2599C10.8913 15.7157 11.5095 15.9718 12.1542 15.9718C12.7988 15.9718 13.417 15.7157 13.8728 15.2599C14.3286 14.8041 14.5847 14.1859 14.5847 13.5412C14.5839 13.396 14.5697 13.2512 14.5424 13.1086C15.1467 12.9623 15.6845 12.6175 16.0696 12.1294C16.4548 11.6413 16.665 11.038 16.6667 10.4162V6.94402C16.6656 6.02347 16.2994 5.14094 15.6485 4.49001C14.9975 3.83908 14.115 3.4729 13.1944 3.4718ZM15.2778 6.94402V7.63847H11.8055V4.86069H13.1944C13.747 4.86069 14.2769 5.08018 14.6676 5.47088C15.0583 5.86158 15.2778 6.39149 15.2778 6.94402ZM1.38888 10.4162V4.16624C1.38888 3.61371 1.60838 3.0838 1.99908 2.6931C2.38978 2.3024 2.91968 2.08291 3.47222 2.08291H8.33333C8.88586 2.08291 9.41577 2.3024 9.80647 2.6931C10.1972 3.0838 10.4167 3.61371 10.4167 4.16624V11.8051H2.77777C2.40942 11.8051 2.05615 11.6588 1.79568 11.3983C1.53521 11.1379 1.38888 10.7846 1.38888 10.4162ZM5.55555 13.5412C5.55555 13.8175 5.4458 14.0825 5.25045 14.2778C5.0551 14.4732 4.79015 14.5829 4.51388 14.5829C4.23762 14.5829 3.97266 14.4732 3.77731 14.2778C3.58196 14.0825 3.47222 13.8175 3.47222 13.5412C3.47264 13.4226 3.49452 13.3049 3.5368 13.194H5.49097C5.53324 13.3049 5.55512 13.4226 5.55555 13.5412ZM12.1528 14.5829C11.8765 14.5829 11.6116 14.4732 11.4162 14.2778C11.2209 14.0825 11.1111 13.8175 11.1111 13.5412C11.1114 13.4225 11.1333 13.3049 11.1757 13.194H13.1299C13.1723 13.3049 13.1941 13.4225 13.1944 13.5412C13.1944 13.8175 13.0847 14.0825 12.8893 14.2778C12.694 14.4732 12.429 14.5829 12.1528 14.5829ZM13.8889 11.8051H11.8055V9.02735H15.2778V10.4162C15.2778 10.7846 15.1314 11.1379 14.871 11.3983C14.6105 11.6588 14.2572 11.8051 13.8889 11.8051Z" fill="#69738C"/>
</g>
<defs>
<clipPath id="clip0_0_203">
<rect width="16.6667" height="16.6667" fill="white"/>
</clipPath>
</defs>
</svg>
