<svg preserveAspectRatio="xMidYMid meet" style="display: block;" viewBox="0 0 16.6667 16.6667" fill="none" xmlns="http://www.w3.org/2000/svg">
<g id="User-add" clip-path="url(#clip0_0_193)">
<g id="Vector">
<path d="M15.9722 7.63894H14.5833V6.25005C14.5833 6.06587 14.5102 5.88924 14.3799 5.759C14.2497 5.62877 14.0731 5.55561 13.8889 5.55561C13.7047 5.55561 13.5281 5.62877 13.3978 5.759C13.2676 5.88924 13.1944 6.06587 13.1944 6.25005V7.63894H11.8056C11.6214 7.63894 11.4447 7.7121 11.3145 7.84234C11.1843 7.97257 11.1111 8.14921 11.1111 8.33338C11.1111 8.51756 11.1843 8.6942 11.3145 8.82443C11.4447 8.95466 11.6214 9.02783 11.8056 9.02783H13.1944V10.4167C13.1944 10.6009 13.2676 10.7775 13.3978 10.9078C13.5281 11.038 13.7047 11.1112 13.8889 11.1112C14.0731 11.1112 14.2497 11.038 14.3799 10.9078C14.5102 10.7775 14.5833 10.6009 14.5833 10.4167V9.02783H15.9722C16.1564 9.02783 16.333 8.95466 16.4633 8.82443C16.5935 8.6942 16.6667 8.51756 16.6667 8.33338C16.6667 8.14921 16.5935 7.97257 16.4633 7.84234C16.333 7.7121 16.1564 7.63894 15.9722 7.63894Z" fill="#69738C"/>
<path d="M6.25 8.33334C7.07409 8.33334 7.87967 8.08897 8.56487 7.63113C9.25008 7.17329 9.78413 6.52255 10.0995 5.76119C10.4149 4.99983 10.4974 4.16205 10.3366 3.3538C10.1758 2.54554 9.779 1.80312 9.19628 1.2204C8.61356 0.637678 7.87113 0.240842 7.06287 0.0800702C6.25462 -0.0807015 5.41684 0.00181235 4.65548 0.317177C3.89413 0.632543 3.24338 1.16659 2.78554 1.8518C2.3277 2.537 2.08333 3.34259 2.08333 4.16668C2.08444 5.27141 2.52378 6.33057 3.30494 7.11174C4.0861 7.8929 5.14527 8.33224 6.25 8.33334ZM6.25 1.3889C6.79939 1.3889 7.33645 1.55181 7.79325 1.85704C8.25005 2.16226 8.60609 2.59609 8.81633 3.10367C9.02657 3.61124 9.08158 4.16976 8.9744 4.70859C8.86722 5.24743 8.60266 5.74238 8.21418 6.13086C7.8257 6.51934 7.33075 6.7839 6.79192 6.89108C6.25308 6.99826 5.69456 6.94325 5.18699 6.73301C4.67942 6.52276 4.24559 6.16673 3.94036 5.70993C3.63513 5.25312 3.47222 4.71607 3.47222 4.16668C3.47222 3.42996 3.76488 2.72342 4.28581 2.20249C4.80675 1.68156 5.51329 1.3889 6.25 1.3889Z" fill="#69738C"/>
<path d="M6.24999 9.72227C4.59295 9.72411 3.00431 10.3832 1.83261 11.5549C0.660902 12.7266 0.00183173 14.3152 -6.35783e-06 15.9723C-6.35783e-06 16.1565 0.0731581 16.3331 0.203392 16.4633C0.333625 16.5936 0.51026 16.6667 0.694438 16.6667C0.878616 16.6667 1.05525 16.5936 1.18548 16.4633C1.31572 16.3331 1.38888 16.1565 1.38888 15.9723C1.38888 14.683 1.90103 13.4466 2.81267 12.5349C3.7243 11.6233 4.96075 11.1112 6.24999 11.1112C7.53924 11.1112 8.77568 11.6233 9.68732 12.5349C10.599 13.4466 11.1111 14.683 11.1111 15.9723C11.1111 16.1565 11.1843 16.3331 11.3145 16.4633C11.4447 16.5936 11.6214 16.6667 11.8055 16.6667C11.9897 16.6667 12.1664 16.5936 12.2966 16.4633C12.4268 16.3331 12.5 16.1565 12.5 15.9723C12.4982 14.3152 11.8391 12.7266 10.6674 11.5549C9.49568 10.3832 7.90703 9.72411 6.24999 9.72227Z" fill="#69738C"/>
</g>
</g>
<defs>
<clipPath id="clip0_0_193">
<rect width="16.6667" height="16.6667" fill="white"/>
</clipPath>
</defs>
</svg>
