<svg preserveAspectRatio="none" width="100%" height="100%" overflow="visible" style="display: block;" viewBox="0 0 16.6667 16.6667" fill="none" xmlns="http://www.w3.org/2000/svg">
<path id="Vector" d="M8.33333 11.1111C7.78394 11.1111 7.24689 10.9482 6.79008 10.643C6.33328 10.3377 5.97724 9.90392 5.767 9.39634C5.55676 8.88877 5.50175 8.33025 5.60893 7.79142C5.71611 7.25258 5.98067 6.75763 6.36915 6.36915C6.75763 5.98067 7.25258 5.71611 7.79142 5.60893C8.33025 5.50175 8.88877 5.55676 9.39634 5.767C9.90392 5.97725 10.3377 6.33328 10.643 6.79008C10.9482 7.24689 11.1111 7.78394 11.1111 8.33333C11.1111 9.07005 10.8185 9.77659 10.2975 10.2975C9.77658 10.8185 9.07005 11.1111 8.33333 11.1111ZM8.33333 6.94445C8.05864 6.94445 7.79011 7.0259 7.56171 7.17852C7.33331 7.33113 7.15529 7.54804 7.05017 7.80183C6.94504 8.05562 6.91754 8.33488 6.97113 8.60429C7.02472 8.87371 7.157 9.12119 7.35124 9.31543C7.54548 9.50967 7.79296 9.64195 8.06237 9.69554C8.33179 9.74913 8.61105 9.72162 8.86484 9.6165C9.11862 9.51138 9.33554 9.33336 9.48815 9.10496C9.64076 8.87656 9.72222 8.60803 9.72222 8.33333C9.72222 7.96498 9.57589 7.61171 9.31543 7.35124C9.05496 7.09078 8.70169 6.94445 8.33333 6.94445ZM12.5 15.9722C12.5 14.8672 12.061 13.8073 11.2796 13.0259C10.4982 12.2445 9.4384 11.8056 8.33333 11.8056C7.22826 11.8056 6.16846 12.2445 5.38705 13.0259C4.60565 13.8073 4.16667 14.8672 4.16667 15.9722C4.16667 16.1564 4.23983 16.333 4.37006 16.4633C4.5003 16.5935 4.67693 16.6667 4.86111 16.6667C5.04529 16.6667 5.22192 16.5935 5.35216 16.4633C5.48239 16.333 5.55556 16.1564 5.55556 15.9722C5.55556 15.2355 5.84821 14.529 6.36915 14.008C6.89008 13.4871 7.59662 13.1944 8.33333 13.1944C9.07005 13.1944 9.77658 13.4871 10.2975 14.008C10.8185 14.529 11.1111 15.2355 11.1111 15.9722C11.1111 16.1564 11.1843 16.333 11.3145 16.4633C11.4447 16.5935 11.6214 16.6667 11.8056 16.6667C11.9897 16.6667 12.1664 16.5935 12.2966 16.4633C12.4268 16.333 12.5 16.1564 12.5 15.9722ZM12.5 5.55556C11.9506 5.55556 11.4136 5.39264 10.9567 5.08742C10.4999 4.78219 10.1439 4.34836 9.93367 3.84079C9.72342 3.33322 9.66841 2.7747 9.7756 2.23586C9.88278 1.69703 10.1473 1.20207 10.5358 0.813594C10.9243 0.425114 11.4192 0.160557 11.9581 0.0533755C12.4969 -0.0538057 13.0554 0.00120357 13.563 0.211447C14.0706 0.42169 14.5044 0.777725 14.8096 1.23453C15.1149 1.69133 15.2778 2.22839 15.2778 2.77778C15.2778 3.51449 14.9851 4.22103 14.4642 4.74197C13.9433 5.2629 13.2367 5.55556 12.5 5.55556ZM12.5 1.38889C12.2253 1.38889 11.9568 1.47035 11.7284 1.62296C11.5 1.77557 11.322 1.99249 11.2168 2.24627C11.1117 2.50006 11.0842 2.77932 11.1378 3.04874C11.1914 3.31816 11.3237 3.56563 11.5179 3.75987C11.7121 3.95411 11.9596 4.08639 12.229 4.13998C12.4985 4.19357 12.7777 4.16607 13.0315 4.06095C13.2853 3.95582 13.5022 3.77781 13.6548 3.5494C13.8074 3.321 13.8889 3.05248 13.8889 2.77778C13.8889 2.40942 13.7426 2.05615 13.4821 1.79569C13.2216 1.53522 12.8684 1.38889 12.5 1.38889ZM16.6667 10.4167C16.6656 9.31194 16.2262 8.25277 15.4451 7.47161C14.6639 6.69045 13.6047 6.2511 12.5 6.25C12.3158 6.25 12.1392 6.32317 12.009 6.4534C11.8787 6.58363 11.8056 6.76027 11.8056 6.94445C11.8056 7.12862 11.8787 7.30526 12.009 7.43549C12.1392 7.56573 12.3158 7.63889 12.5 7.63889C13.2367 7.63889 13.9433 7.93155 14.4642 8.45248C14.9851 8.97342 15.2778 9.67996 15.2778 10.4167C15.2778 10.6008 15.3509 10.7775 15.4812 10.9077C15.6114 11.0379 15.788 11.1111 15.9722 11.1111C16.1564 11.1111 16.333 11.0379 16.4633 10.9077C16.5935 10.7775 16.6667 10.6008 16.6667 10.4167ZM4.16667 5.55556C3.61727 5.55556 3.08022 5.39264 2.62342 5.08742C2.16661 4.78219 1.81058 4.34836 1.60033 3.84079C1.39009 3.33322 1.33508 2.7747 1.44226 2.23586C1.54944 1.69703 1.814 1.20207 2.20248 0.813594C2.59096 0.425114 3.08591 0.160557 3.62475 0.0533755C4.16359 -0.0538057 4.7221 0.00120357 5.22968 0.211447C5.73725 0.42169 6.17108 0.777725 6.4763 1.23453C6.78153 1.69133 6.94444 2.22839 6.94444 2.77778C6.94444 3.51449 6.65179 4.22103 6.13085 4.74197C5.60992 5.2629 4.90338 5.55556 4.16667 5.55556ZM4.16667 1.38889C3.89197 1.38889 3.62344 1.47035 3.39504 1.62296C3.16664 1.77557 2.98862 1.99249 2.8835 2.24627C2.77838 2.50006 2.75087 2.77932 2.80446 3.04874C2.85806 3.31816 2.99033 3.56563 3.18457 3.75987C3.37881 3.95411 3.62629 4.08639 3.89571 4.13998C4.16513 4.19357 4.44439 4.16607 4.69817 4.06095C4.95196 3.95582 5.16887 3.77781 5.32149 3.5494C5.4741 3.321 5.55556 3.05248 5.55556 2.77778C5.55556 2.40942 5.40923 2.05615 5.14876 1.79569C4.88829 1.53522 4.53502 1.38889 4.16667 1.38889ZM1.38889 10.4167C1.38889 9.67996 1.68155 8.97342 2.20248 8.45248C2.72342 7.93155 3.42995 7.63889 4.16667 7.63889C4.35084 7.63889 4.52748 7.56573 4.65771 7.43549C4.78795 7.30526 4.86111 7.12862 4.86111 6.94445C4.86111 6.76027 4.78795 6.58363 4.65771 6.4534C4.52748 6.32317 4.35084 6.25 4.16667 6.25C3.06194 6.2511 2.00277 6.69045 1.22161 7.47161C0.440444 8.25277 0.00110308 9.31194 0 10.4167C0 10.6008 0.0731645 10.7775 0.203398 10.9077C0.333632 11.0379 0.510266 11.1111 0.694444 11.1111C0.878623 11.1111 1.05526 11.0379 1.18549 10.9077C1.31572 10.7775 1.38889 10.6008 1.38889 10.4167Z" fill="var(--fill-0, #69738C)"/>
</svg>
