<svg preserveAspectRatio="xMidYMid meet" style="display: block;" viewBox="0 0 20 20" fill="none" xmlns="http://www.w3.org/2000/svg">
<g id="User-headset" clip-path="url(#clip0_0_244)">
<path id="Vector" d="M7.08333 7.91667C7.08333 8.37583 7.19 8.81083 7.38 9.1975C6.97167 9.72083 6.7175 10.37 6.68333 11.0775C5.89917 10.2542 5.41667 9.14083 5.41667 7.9175C5.41667 5.075 8.01833 2.82833 10.9658 3.43333C12.7008 3.79 14.1067 5.1875 14.4767 6.92C14.5883 7.44333 14.6092 7.95583 14.5525 8.44583C14.5042 8.86083 14.14 9.1675 13.7217 9.1675H13.6842C13.1908 9.1675 12.8442 8.72833 12.8983 8.23833C12.935 7.90917 12.9158 7.56333 12.8317 7.21083C12.5833 6.16667 11.7317 5.32083 10.6858 5.08C8.78083 4.6425 7.0825 6.08583 7.0825 7.9175L7.08333 7.91667ZM3.84167 6.8375C4.07 5.51 4.71917 4.3 5.72583 3.35583C7 2.16167 8.66833 1.57167 10.4175 1.68C13.7117 1.89333 16.2875 4.77917 16.2492 8.23417C16.2333 9.68083 15.0217 10.8325 13.5758 10.8325H11.5708C11.3675 10.1417 10.7358 9.63333 9.97917 9.63333C9.05833 9.63333 8.3125 10.3792 8.3125 11.3C8.3125 12.2208 9.05833 12.9667 9.97917 12.9667C10.4275 12.9667 10.8333 12.7875 11.1325 12.4992H13.5758C15.925 12.4992 17.8825 10.6283 17.9158 8.28C17.9775 3.92917 14.7092 0.2875 10.525 0.0175C8.305 -0.126667 6.19917 0.6275 4.58667 2.14083C3.3375 3.31167 2.50667 4.86167 2.2075 6.52917C2.11667 7.03583 2.5175 7.50083 3.03167 7.50083C3.425 7.50083 3.77583 7.22667 3.84167 6.83833V6.8375ZM10 14.1667C6.92083 14.1667 4.25667 16.0767 3.37083 18.9183C3.23333 19.3575 3.47917 19.825 3.91833 19.9625C4.35667 20.095 4.82417 19.8533 4.96167 19.415C5.61917 17.3067 7.69 15.8333 9.99917 15.8333C12.3083 15.8333 14.38 17.3067 15.0367 19.415C15.1483 19.7717 15.4767 20 15.8325 20C15.915 20 15.9975 19.9875 16.0808 19.9625C16.52 19.825 16.765 19.3575 16.6283 18.9183C15.7425 16.0767 13.0783 14.1667 9.99917 14.1667H10Z" fill="#69738C"/>
</g>
<defs>
<clipPath id="clip0_0_244">
<rect width="20" height="20" fill="white"/>
</clipPath>
</defs>
</svg>
