<svg preserveAspectRatio="none" width="100%" height="100%" overflow="visible" style="display: block;" viewBox="0 0 16.6667 16.6667" fill="none" xmlns="http://www.w3.org/2000/svg">
<g id="user-check">
<g id="Vector">
<path d="M11.3033 16.4667C11.4367 16.5917 11.6118 16.6667 11.7952 16.6667H11.8118C11.9952 16.6667 12.1786 16.6 12.3036 16.4667C12.4287 16.3333 12.5037 16.1582 12.5037 15.9749C12.5037 14.316 11.8452 12.7322 10.6698 11.5569C9.50281 10.3815 7.91068 9.723 6.25185 9.723C4.59303 9.723 3.00922 10.3815 1.83388 11.5569C0.658528 12.7239 0 14.316 0 15.9749C0 16.1582 0.0666864 16.3333 0.200059 16.4667C0.333432 16.5917 0.508484 16.6667 0.691872 16.6667C0.875259 16.6667 1.05031 16.6 1.18368 16.4667C1.30872 16.3333 1.38374 16.1582 1.38374 15.9749C1.38374 14.6911 1.90056 13.4491 2.80917 12.5405C3.71777 11.6236 4.9598 11.1151 6.24352 11.1151C7.52723 11.1151 8.76926 11.6319 9.67787 12.5405C10.5948 13.4491 11.1033 14.6828 11.1033 15.9749C11.1033 16.1582 11.17 16.3416 11.3033 16.4667Z" fill="var(--fill-0, #69738C)"/>
<path fill-rule="evenodd" clip-rule="evenodd" d="M3.91783 7.63072C4.5993 8.0878 5.40505 8.32946 6.22771 8.33092C7.32772 8.32236 8.38602 7.88892 9.16938 7.10556C9.95295 6.33033 10.3947 5.27169 10.3947 4.16302C10.3947 3.33778 10.153 2.52921 9.69454 1.84567C9.23607 1.16214 8.58588 0.628645 7.82732 0.311885C7.06876 0.00345982 6.22684 -0.0798982 5.41827 0.078482C4.6097 0.236862 3.86781 0.636981 3.29264 1.22049C2.70914 1.80399 2.30902 2.54588 2.15064 3.35445C1.98392 4.16302 2.06728 5.00494 2.38404 5.7635C2.7008 6.52206 3.23429 7.17225 3.91783 7.63072ZM6.22771 8.33092C6.2302 8.33092 6.23269 8.33093 6.23518 8.33093H6.22684C6.22713 8.33092 6.22742 8.33092 6.22771 8.33092ZM4.69306 1.85401C5.15153 1.55392 5.68502 1.3872 6.23518 1.3872C6.97707 1.3872 7.67727 1.67896 8.20243 2.20411C8.72758 2.72927 9.01934 3.43781 9.01934 4.17136C9.01934 4.72152 8.86096 5.25502 8.55253 5.71348C8.24411 6.17195 7.81065 6.53039 7.30216 6.73879C6.79368 6.94718 6.23518 7.00553 5.69335 6.89717C5.15153 6.7888 4.65971 6.53039 4.26793 6.13861C3.88448 5.74683 3.61774 5.25501 3.50937 4.71319C3.40101 4.17136 3.45936 3.61286 3.66775 3.10438C3.87615 2.59589 4.23459 2.16243 4.69306 1.85401Z" fill="var(--fill-0, #69738C)"/>
<path d="M12.1566 9.97307C12.29 10.1064 12.4651 10.1815 12.6568 10.1815L12.6485 10.1731H12.6651C12.8568 10.1731 13.0402 10.0898 13.1736 9.94807L15.8994 6.98886C16.1662 6.70544 16.1495 6.25531 15.8577 5.98856C15.566 5.72182 15.1242 5.74682 14.8574 6.03024L12.6318 8.44762L12.0399 7.85578C11.7649 7.5807 11.3147 7.5807 11.0396 7.85578C10.7646 8.13086 10.7646 8.581 11.0396 8.85608L12.1566 9.97307Z" fill="var(--fill-0, #69738C)"/>
</g>
</g>
</svg>
