<svg preserveAspectRatio="none" width="100%" height="100%" overflow="visible" style="display: block;" viewBox="0 0 16.6667 16.6667" fill="none" xmlns="http://www.w3.org/2000/svg">
<g id="user-group">
<g id="Vector">
<path fill-rule="evenodd" clip-rule="evenodd" d="M14.7167 3.0577C14.7167 4.74526 13.3501 6.11535 11.6667 6.11535C9.98341 6.11535 8.61674 4.74526 8.61674 3.0577C8.61674 1.37015 9.98341 6.10352e-05 11.6667 6.10352e-05C13.3501 6.10352e-05 14.7167 1.37015 14.7167 3.0577ZM13.3001 3.0577C13.3001 2.15545 12.5667 1.42028 11.6667 1.42028C10.7667 1.42028 10.0334 2.15545 10.0334 3.0577C10.0334 3.95996 10.7667 4.69513 11.6667 4.69513C12.5667 4.69513 13.3001 3.95996 13.3001 3.0577Z" fill="var(--fill-0, #69738C)"/>
<path d="M13.7917 7.56063C14.6417 7.94492 15.375 8.57149 15.8833 9.35678V9.36514C16.3917 10.1504 16.6667 11.0694 16.6667 12.0134C16.6667 12.1972 16.6 12.3727 16.4667 12.5063C16.3333 12.6316 16.1583 12.7068 15.975 12.7068C15.7917 12.7068 15.6167 12.64 15.4833 12.5063C15.3583 12.3727 15.2833 12.1972 15.2833 12.0134C15.2833 11.3367 15.0917 10.6768 14.725 10.117C14.3583 9.54893 13.8333 9.10616 13.225 8.83047C12.6167 8.55478 11.9333 8.47124 11.275 8.57149C10.6083 8.67174 9.99167 8.96414 9.49167 9.41526C9.425 9.4821 9.34167 9.52387 9.25833 9.55729C9.175 9.5907 9.08333 9.59906 8.99167 9.59906C8.9 9.5907 8.80833 9.57399 8.725 9.53222C8.64167 9.49045 8.56667 9.43197 8.50833 9.36514C8.44167 9.29831 8.4 9.21476 8.36667 9.13122C8.33333 9.04768 8.33333 8.95578 8.33333 8.86389C8.33333 8.77199 8.35833 8.68009 8.4 8.59655C8.44167 8.51301 8.5 8.43782 8.56667 8.37934C9.26667 7.75278 10.1333 7.33506 11.0583 7.19304C11.9833 7.05102 12.9333 7.17633 13.7917 7.56063Z" fill="var(--fill-0, #69738C)"/>
<path d="M5.2 10.4011C3.81968 10.4033 2.49804 10.9544 1.525 11.9299C0.55 12.9073 0 14.2357 0 15.6225V15.9733C0 16.1571 0.075 16.3326 0.2 16.4662C0.325 16.5999 0.508333 16.6667 0.691667 16.6667C0.875 16.6667 1.05 16.5915 1.18333 16.4662C1.31667 16.3326 1.38333 16.1571 1.38333 15.9733V15.6225C1.38333 14.6032 1.78333 13.6341 2.5 12.9157C3.21667 12.1972 4.19167 11.7962 5.2 11.7962C6.20833 11.7962 7.18333 12.1972 7.9 12.9157C8.61667 13.6341 9.01667 14.6116 9.01667 15.6225V15.9733C9.01667 16.1571 9.09167 16.3326 9.21667 16.4662C9.34167 16.5999 9.525 16.6667 9.70833 16.6667C9.89167 16.6667 10.0667 16.5915 10.2 16.4662C10.3333 16.3326 10.4 16.1571 10.4 15.9733V15.6225C10.4 14.2357 9.85 12.9073 8.875 11.9299C7.90196 10.9544 6.58032 10.4033 5.2 10.4011Z" fill="var(--fill-0, #69738C)"/>
<path d="M5.2 10.4011L5.19167 10.4011H5.20833L5.2 10.4011Z" fill="var(--fill-0, #69738C)"/>
<path fill-rule="evenodd" clip-rule="evenodd" d="M8.05007 6.4161C8.05007 8.10365 6.68341 9.47374 5.00007 9.47374C3.31674 9.47374 1.95007 8.10365 1.95007 6.4161C1.95007 4.72855 3.31674 3.35846 5.00007 3.35846C6.68341 3.35846 8.05007 4.72855 8.05007 6.4161ZM6.63341 6.4161C6.63341 5.51385 5.90007 4.77867 5.00007 4.77867C4.10007 4.77867 3.36674 5.51385 3.36674 6.4161C3.36674 7.31836 4.10007 8.05353 5.00007 8.05353C5.90007 8.05353 6.63341 7.31836 6.63341 6.4161Z" fill="var(--fill-0, #69738C)"/>
</g>
</g>
</svg>
