<svg preserveAspectRatio="none" width="100%" height="100%" overflow="visible" style="display: block;" viewBox="0 0 20 20" fill="none" xmlns="http://www.w3.org/2000/svg">
<g id="Warehouse">
<path id="Vector" fill-rule="evenodd" clip-rule="evenodd" d="M9.33795 1.89476C9.74926 1.66066 10.2507 1.66066 10.6621 1.89476L17.6155 5.85234C18.0434 6.09589 18.3085 6.55544 18.3085 7.05389V19.1404C18.3085 19.6151 18.6871 20 19.1542 20C19.6213 20 20 19.6151 20 19.1404V7.05389C20 5.93317 19.4041 4.89993 18.442 4.35234L11.4885 0.394762C10.5637 -0.131587 9.43625 -0.131587 8.51145 0.394762L1.55799 4.35234C0.59587 4.89993 0 5.93317 0 7.0539V19.1404C0 19.6151 0.378665 20 0.845771 20C1.31288 20 1.69154 19.6151 1.69154 19.1404V7.0539C1.69154 6.55544 1.95657 6.09589 2.38448 5.85234L9.33795 1.89476ZM6.09767 8.95069H13.9018C14.183 8.95069 14.411 9.1824 14.411 9.46823V10.8378H5.58845V9.46823C5.58845 9.1824 5.81644 8.95069 6.09767 8.95069ZM5.58845 12.557V13.9026H14.411V12.557H5.58845ZM5.58845 16.9037V15.6218H14.411V16.9037C14.411 17.1895 14.183 17.4212 13.9018 17.4212H6.09767C5.81644 17.4212 5.58845 17.1895 5.58845 16.9037ZM3.89691 9.46823C3.89691 8.23292 4.88223 7.23151 6.09767 7.23151H13.9018C15.1172 7.23151 16.1025 8.23292 16.1025 9.46823V16.9037C16.1025 18.139 15.1172 19.1404 13.9018 19.1404H6.09767C4.88223 19.1404 3.89691 18.139 3.89691 16.9037V9.46823Z" fill="var(--fill-0, #69738C)"/>
</g>
</svg>
