<svg preserveAspectRatio="xMidYMid meet" overflow="visible" style="display: block;" viewBox="0 0 21 24" fill="none" xmlns="http://www.w3.org/2000/svg">
<path id="Vector" d="M21 24C21 24 17.4647 22.6088 14.6046 21.4944H2.57812C1.15441 21.4944 0 20.2704 0 18.7608V2.7336C0 1.224 1.15441 0 2.57812 0H18.4211C19.8448 0 20.9993 1.224 20.9993 2.7336V16.5368L21 24ZM17.8961 15.0136C17.6482 14.7079 17.2156 14.6725 16.9269 14.9344C16.9044 14.9544 14.6653 16.9456 10.4992 16.9456C6.38491 16.9456 4.11134 14.9688 4.07083 14.9328C3.78221 14.6722 3.35071 14.7079 3.10319 15.0128C2.98435 15.1594 2.92534 15.3505 2.93928 15.5437C2.95323 15.7369 3.03897 15.9162 3.17745 16.0416C3.28397 16.1376 5.83058 18.404 10.4992 18.404C15.1687 18.404 17.7153 16.1376 17.8218 16.0416C17.9601 15.9162 18.0456 15.7371 18.0596 15.5441C18.0735 15.3511 18.0147 15.1601 17.8961 15.0136Z" fill="white"/>
</svg>
