<svg preserveAspectRatio="xMidYMid meet" overflow="visible" style="display: block;" viewBox="0 0 19.895 22.0724" fill="none" xmlns="http://www.w3.org/2000/svg">
<g id="Group">
<path id="Vector" d="M16.0575 12.3825C15.7475 12.6925 15.7475 13.1825 16.0575 13.4825C16.2075 13.6325 16.4075 13.7125 16.6075 13.7125C16.8075 13.7125 17.0075 13.6325 17.1575 13.4825C20.8075 9.8325 20.8075 3.8825 17.1575 0.2325C16.8475 -0.0775 16.3575 -0.0775 16.0575 0.2325C15.7575 0.5425 15.7475 1.0325 16.0575 1.3325C19.0975 4.3725 19.0975 9.3325 16.0575 12.3725V12.3825Z" fill="white"/>
<path id="Vector_2" d="M13.2974 10.6625C13.4474 10.8125 13.6474 10.8925 13.8474 10.8925C14.0474 10.8925 14.2474 10.8125 14.3974 10.6625C16.5274 8.53245 16.5274 5.06245 14.3974 2.93245C14.0874 2.62245 13.5974 2.62245 13.2974 2.93245C12.9874 3.24245 12.9874 3.73245 13.2974 4.03245C14.8174 5.55245 14.8174 8.03245 13.2974 9.55245C12.9874 9.86245 12.9874 10.3525 13.2974 10.6525V10.6625Z" fill="white"/>
<path id="Vector_3" d="M3.2875 13.7125C3.4875 13.7125 3.6875 13.6325 3.8375 13.4825C4.1475 13.1725 4.1475 12.6825 3.8375 12.3825C0.7975 9.3325 0.7975 4.3825 3.8375 1.3325C4.1475 1.0225 4.1475 0.5325 3.8375 0.2325C3.5375 -0.0775 3.0475 -0.0775 2.7375 0.2325C-0.9125 3.8825 -0.9125 9.8325 2.7375 13.4825C2.8875 13.6325 3.0875 13.7125 3.2875 13.7125Z" fill="white"/>
<path id="Vector_4" d="M5.49765 10.6625C5.64765 10.8125 5.84765 10.8925 6.04765 10.8925C6.24765 10.8925 6.44765 10.8125 6.59765 10.6625C6.90765 10.3525 6.90765 9.86246 6.59765 9.56246C5.07765 8.04246 5.07765 5.56246 6.59765 4.04246C6.90765 3.73246 6.90765 3.24246 6.59765 2.94246C6.28765 2.63246 5.79765 2.63246 5.49765 2.94246C3.36765 5.07246 3.36765 8.54246 5.49765 10.6725V10.6625Z" fill="white"/>
<path id="Vector_5" d="M16.0076 20.7124L11.5976 8.65239C12.3076 8.09239 12.6976 7.14239 12.4076 6.12239C12.1876 5.36239 11.5676 4.75239 10.7976 4.55239C9.22756 4.13239 7.81756 5.31239 7.81756 6.81239C7.81756 7.56239 8.17756 8.23239 8.72756 8.66239L4.49756 20.2224C4.16756 21.1224 4.83756 22.0724 5.78756 22.0724H15.3976C15.7576 21.9224 15.9976 21.5624 15.9976 21.1524C15.9976 20.6024 15.5476 20.1524 14.9976 20.1524H6.65756L7.75756 17.1524H12.4476C12.4476 17.1524 12.5176 17.1124 12.5576 17.0824L14.1376 21.4124C14.2776 21.8024 14.6576 22.0724 15.0776 22.0724C15.7776 22.0724 16.2576 21.3824 16.0176 20.7324L16.0076 20.7124ZM8.44756 15.2224L10.1576 10.5524L11.8676 15.2224H8.44756Z" fill="white"/>
</g>
</svg>
