<svg preserveAspectRatio="xMidYMid meet" overflow="visible" style="display: block;" viewBox="0 0 3.98509 7.77853" fill="none" xmlns="http://www.w3.org/2000/svg">
<path id="Vector" d="M3.49767 2.71155L0.947666 0.161551C0.843576 0.0580786 0.702769 0 0.555999 0C0.409229 0 0.268423 0.0580786 0.164332 0.161551C0.112261 0.213197 0.070931 0.274643 0.0427262 0.342342C0.0145214 0.410042 0 0.482656 0 0.555996C0 0.629336 0.0145214 0.70195 0.0427262 0.76965C0.070931 0.837349 0.112261 0.898794 0.164332 0.95044L2.71989 3.49489C2.77196 3.54653 2.81329 3.60798 2.84149 3.67568C2.8697 3.74338 2.88422 3.81599 2.88422 3.88933C2.88422 3.96267 2.8697 4.03528 2.84149 4.10298C2.81329 4.17068 2.77196 4.23213 2.71989 4.28377L0.164332 6.82822C0.0597192 6.9321 0.000655509 7.07327 0.000134574 7.2207C-0.00038636 7.36812 0.0576786 7.50972 0.161555 7.61433C0.265432 7.71894 0.406611 7.77801 0.554035 7.77853C0.70146 7.77905 0.843053 7.72098 0.947666 7.61711L3.49767 5.06711C3.80978 4.75461 3.98509 4.331 3.98509 3.88933C3.98509 3.44766 3.80978 3.02405 3.49767 2.71155Z" fill="#69738C"/>
</svg>
