<svg preserveAspectRatio="xMidYMid meet" overflow="visible" style="display: block;" viewBox="0 0 19 19" fill="none" xmlns="http://www.w3.org/2000/svg">
<path id="Vector" d="M9.5 0C8.19375 0 7.125 1.06875 7.125 2.375V16.625C7.125 17.9313 8.19375 19 9.5 19C10.8063 19 11.875 17.9313 11.875 16.625V2.375C11.875 1.06875 10.8063 0 9.5 0ZM10.2917 16.625C10.2917 17.0604 9.93542 17.4167 9.5 17.4167C9.06458 17.4167 8.70833 17.0604 8.70833 16.625V2.375C8.70833 1.93958 9.06458 1.58333 9.5 1.58333C9.93542 1.58333 10.2917 1.93958 10.2917 2.375V16.625ZM16.625 4.75C15.3188 4.75 14.25 5.81875 14.25 7.125V16.625C14.25 17.9313 15.3188 19 16.625 19C17.9313 19 19 17.9313 19 16.625V7.125C19 5.81875 17.9313 4.75 16.625 4.75ZM17.4167 16.625C17.4167 17.0604 17.0604 17.4167 16.625 17.4167C16.1896 17.4167 15.8333 17.0604 15.8333 16.625V7.125C15.8333 6.68958 16.1896 6.33333 16.625 6.33333C17.0604 6.33333 17.4167 6.68958 17.4167 7.125V16.625ZM2.375 9.5C1.06875 9.5 0 10.5688 0 11.875V16.625C0 17.9313 1.06875 19 2.375 19C3.68125 19 4.75 17.9313 4.75 16.625V11.875C4.75 10.5688 3.68125 9.5 2.375 9.5ZM3.16667 16.625C3.16667 17.0604 2.81042 17.4167 2.375 17.4167C1.93958 17.4167 1.58333 17.0604 1.58333 16.625V11.875C1.58333 11.4396 1.93958 11.0833 2.375 11.0833C2.81042 11.0833 3.16667 11.4396 3.16667 11.875V16.625Z" fill="#495057"/>
</svg>
