<svg preserveAspectRatio="xMidYMid meet" overflow="visible" style="display: block;" viewBox="0 0 81.4965 76.7583" fill="none" xmlns="http://www.w3.org/2000/svg">
<path id="Union" fill-rule="evenodd" clip-rule="evenodd" d="M0 44.7442V36.4953C0.443165 33.5932 1.0928 30.7521 1.94892 27.972C2.45755 26.3202 2.70179 24.8438 2.68165 23.5426C2.63129 19.9697 2.62374 16.3789 2.65899 12.7703C2.65885 12.6308 2.6266 12.4937 2.56488 12.3705C2.50316 12.2472 2.41374 12.1413 2.30395 12.0613C-1.80539 9.00422 1.38237 2.94337 5.90718 4.98652C8.48308 6.14533 8.98164 9.7361 6.83632 11.5353C6.55934 11.7691 6.42085 12.0664 6.42085 12.4273L6.4133 17.7944C6.4133 18.2924 6.55682 18.3382 6.84387 17.9316C8.39999 15.7055 10.2154 13.5251 12.2903 11.3904C12.5219 11.1516 12.7813 11.116 13.0683 11.2837L24.0442 17.7258C24.3262 17.8884 24.364 18.0968 24.1575 18.3509C22.4 20.5109 21.0881 22.9404 20.2219 25.6392C20.1867 25.7426 20.1853 25.8547 20.2179 25.959C20.2505 26.0633 20.3155 26.1543 20.4032 26.2186C27.3679 31.517 28.6143 41.6871 24.2104 49.0516C19.9273 56.2103 10.8475 57.2852 5.52193 50.6221C4.54496 49.4023 4.40647 49.4912 5.10647 50.8889C9.93344 60.5177 21.4079 60.5939 26.0611 50.7822C26.192 50.5077 26.3683 50.4721 26.5899 50.6754C31.51 55.1582 37.314 57.9586 44.0017 59.0768C50.2765 60.1238 56.4884 59.8595 62.6373 58.2839C70.4984 56.2662 74.9905 51.2752 76.1135 43.3109C76.7783 38.6249 76.3779 33.6212 74.9125 28.2998C71.8682 17.2455 63.5664 10.3689 52.3564 8.9661C45.9456 8.16816 39.7035 8.96102 33.6302 11.3447C33.3784 11.4464 33.1366 11.4286 32.905 11.2913L22.0046 4.88742C21.9697 4.86808 21.941 4.83937 21.9216 4.80437C21.9022 4.76936 21.8927 4.72936 21.8943 4.68866C21.8958 4.64795 21.9083 4.60806 21.9304 4.57324C21.9525 4.53842 21.9834 4.50999 22.0197 4.49098C45.9809 -7.60785 74.852 5.77939 80.5628 32.1803C81.7412 37.6338 81.8042 43.006 80.7517 48.2968C77.8585 62.7895 66.9808 71.8389 53.074 75.4144C52.3992 75.5872 52.301 75.4169 52.7794 74.9036C53.8017 73.8211 54.6352 72.4615 55.2798 70.8249C55.4862 70.3014 55.8513 69.938 56.3751 69.7347L59.6988 68.4311C59.7571 68.4091 59.809 68.373 59.8501 68.3259C59.8912 68.2788 59.9201 68.2222 59.9343 68.1611C59.9485 68.1 59.9475 68.0363 59.9315 67.9757C59.9154 67.9151 59.8848 67.8594 59.8423 67.8136L53.7463 61.1809C53.7196 61.152 53.6871 61.1291 53.651 61.1137C53.615 61.0982 53.5761 61.0906 53.5369 61.0914C53.4977 61.0921 53.4591 61.1011 53.4236 61.1178C53.3881 61.1346 53.3565 61.1587 53.3308 61.1885C50.4956 64.36 47.4589 67.0563 44.2208 69.2773C44.1921 69.2985 44.1703 69.3277 44.1579 69.3613C44.1455 69.3949 44.1432 69.4315 44.1513 69.4664C44.1593 69.5013 44.1774 69.5331 44.2032 69.5578C44.2289 69.5824 44.2613 69.5989 44.2963 69.6051L48.1866 70.215C48.251 70.2247 48.3115 70.2521 48.3615 70.2942C48.4115 70.3362 48.4491 70.3914 48.4702 70.4535C48.4912 70.5157 48.4949 70.5825 48.4809 70.6467C48.4668 70.7108 48.4356 70.7699 48.3906 70.8173C45.7467 73.7067 40.3305 77.1297 36.2665 76.7257C24.9356 75.5974 15.9086 71.6686 9.1856 64.9394C4.0187 59.7705 0.956833 53.0388 0 44.7442ZM13.2043 50.4925C15.6725 50.4925 18.0397 49.2162 19.785 46.9443C21.5303 44.6725 22.5108 41.5912 22.5108 38.3784C22.5108 35.1655 21.5303 32.0843 19.785 29.8124C18.0397 27.5406 15.6725 26.2643 13.2043 26.2643C10.7361 26.2643 8.36893 27.5406 6.62363 29.8124C4.87833 32.0843 3.89783 35.1655 3.89783 38.3784C3.89783 41.5912 4.87833 44.6725 6.62363 46.9443C8.36893 49.2162 10.7361 50.4925 13.2043 50.4925ZM18.4996 6.65621L29.5132 13.1287C29.5488 13.1497 29.5787 13.1793 29.6002 13.2148C29.6217 13.2504 29.6341 13.2907 29.6364 13.3322C29.6386 13.3738 29.6306 13.4153 29.6131 13.4529C29.5955 13.4906 29.569 13.5233 29.5359 13.548L26.9525 15.4311C26.9135 15.46 26.867 15.4768 26.8187 15.4795C26.7704 15.4822 26.7224 15.4707 26.6805 15.4464L15.6366 8.98144C15.5999 8.96016 15.5691 8.92979 15.5473 8.89318C15.5254 8.85657 15.5131 8.81494 15.5116 8.77221C15.5101 8.72949 15.5194 8.68708 15.5386 8.64899C15.5579 8.6109 15.5864 8.57838 15.6215 8.55451L18.2352 6.66383C18.2741 6.63766 18.3196 6.62306 18.3663 6.62171C18.4131 6.62037 18.4593 6.63232 18.4996 6.65621ZM40.2398 12.084C32.3032 12.8921 26.7762 17.4943 23.6589 25.8906C23.6297 25.9662 23.6314 26.0507 23.6639 26.1261C23.6963 26.2016 23.7568 26.262 23.8327 26.2946L24.0291 26.3785C24.1132 26.4131 24.2068 26.4159 24.2928 26.3865C24.3788 26.3571 24.4515 26.2974 24.4974 26.2184C26.6125 22.5692 29.3395 19.8704 32.6784 18.122C34.6772 17.0754 36.947 16.6117 39.2085 16.1498C39.8956 16.0094 40.5819 15.8692 41.2596 15.7129C42.1913 15.4944 42.6848 14.9022 42.7402 13.9366C42.7755 13.2962 42.2517 12.7295 41.169 12.2365C40.8775 12.1019 40.5564 12.0492 40.2398 12.084ZM36.5467 37.3664C36.4813 41.1468 38.5079 44.2481 41.0732 44.2933C43.6386 44.3385 45.7712 41.3105 45.8366 37.5301C45.902 33.7496 43.8754 30.6484 41.31 30.6032C38.7447 30.558 36.6121 33.586 36.5467 37.3664ZM66.8159 43.8825C64.922 43.8625 63.4165 40.9656 63.4534 37.4122C63.4902 33.8588 65.0555 30.9944 66.9494 31.0144C68.8434 31.0344 70.3488 33.9313 70.312 37.4847C70.2751 41.0381 68.7099 43.9025 66.8159 43.8825Z" fill="#F49A3D"/>
</svg>
