<svg preserveAspectRatio="xMidYMid meet" overflow="visible" style="display: block;" viewBox="0 0 16.6667 16.6667" fill="none" xmlns="http://www.w3.org/2000/svg">
<g id="Vector">
<path d="M13.1944 1.38889H12.5V0.694444C12.5 0.510266 12.4268 0.333632 12.2966 0.203398C12.1664 0.0731645 11.9897 0 11.8056 0C11.6214 0 11.4447 0.0731645 11.3145 0.203398C11.1843 0.333632 11.1111 0.510266 11.1111 0.694444V1.38889H5.55556V0.694444C5.55556 0.510266 5.48239 0.333632 5.35216 0.203398C5.22192 0.0731645 5.04529 0 4.86111 0C4.67693 0 4.5003 0.0731645 4.37006 0.203398C4.23983 0.333632 4.16667 0.510266 4.16667 0.694444V1.38889H3.47222C2.55167 1.38999 1.66914 1.75617 1.01821 2.4071C0.367279 3.05803 0.00110268 3.94056 0 4.86111V13.1944C0.00110268 14.115 0.367279 14.9975 1.01821 15.6485C1.66914 16.2994 2.55167 16.6656 3.47222 16.6667H13.1944C14.115 16.6656 14.9975 16.2994 15.6485 15.6485C16.2994 14.9975 16.6656 14.115 16.6667 13.1944V4.86111C16.6656 3.94056 16.2994 3.05803 15.6485 2.4071C14.9975 1.75617 14.115 1.38999 13.1944 1.38889ZM1.38889 4.86111C1.38889 4.30858 1.60838 3.77867 1.99908 3.38797C2.38978 2.99727 2.91969 2.77778 3.47222 2.77778H13.1944C13.747 2.77778 14.2769 2.99727 14.6676 3.38797C15.0583 3.77867 15.2778 4.30858 15.2778 4.86111V5.55556H1.38889V4.86111ZM13.1944 15.2778H3.47222C2.91969 15.2778 2.38978 15.0583 1.99908 14.6676C1.60838 14.2769 1.38889 13.747 1.38889 13.1944V6.94444H15.2778V13.1944C15.2778 13.747 15.0583 14.2769 14.6676 14.6676C14.2769 15.0583 13.747 15.2778 13.1944 15.2778Z" fill="#858EA6"/>
<path d="M8.33333 11.4583C8.90863 11.4583 9.375 10.992 9.375 10.4167C9.375 9.84137 8.90863 9.375 8.33333 9.375C7.75804 9.375 7.29167 9.84137 7.29167 10.4167C7.29167 10.992 7.75804 11.4583 8.33333 11.4583Z" fill="#858EA6"/>
<path d="M4.861 11.4583C5.4363 11.4583 5.90267 10.992 5.90267 10.4167C5.90267 9.84137 5.4363 9.375 4.861 9.375C4.2857 9.375 3.81933 9.84137 3.81933 10.4167C3.81933 10.992 4.2857 11.4583 4.861 11.4583Z" fill="#858EA6"/>
<path d="M11.8057 11.4583C12.381 11.4583 12.8473 10.992 12.8473 10.4167C12.8473 9.84137 12.381 9.375 11.8057 9.375C11.2304 9.375 10.764 9.84137 10.764 10.4167C10.764 10.992 11.2304 11.4583 11.8057 11.4583Z" fill="#858EA6"/>
</g>
</svg>
