<svg preserveAspectRatio="xMidYMid meet" overflow="visible" style="display: block;" viewBox="0 0 9.72332 4.98135" fill="none" xmlns="http://www.w3.org/2000/svg">
<path id="Vector" d="M9.52138 0.205415C9.45683 0.140326 9.38002 0.0886633 9.2954 0.0534073C9.21077 0.0181514 9.12 0 9.02833 0C8.93665 0 8.84589 0.0181514 8.76126 0.0534073C8.67664 0.0886633 8.59983 0.140326 8.53527 0.205415L5.35472 3.38596C5.29016 3.45105 5.21335 3.50272 5.12873 3.53797C5.0441 3.57323 4.95334 3.59138 4.86166 3.59138C4.76999 3.59138 4.67922 3.57323 4.59459 3.53797C4.50997 3.50272 4.43316 3.45105 4.36861 3.38596L1.18805 0.205415C1.12349 0.140326 1.04669 0.0886633 0.962062 0.0534073C0.877438 0.0181514 0.78667 0 0.694995 0C0.60332 0 0.512552 0.0181514 0.427928 0.0534073C0.343303 0.0886633 0.266497 0.140326 0.201939 0.205415C0.0725983 0.335528 0 0.511535 0 0.694997C0 0.878459 0.0725983 1.05447 0.201939 1.18458L3.38944 4.37207C3.78007 4.76221 4.30958 4.98135 4.86166 4.98135C5.41375 4.98135 5.94326 4.76221 6.33388 4.37207L9.52138 1.18458C9.65072 1.05447 9.72332 0.878459 9.72332 0.694997C9.72332 0.511535 9.65072 0.335528 9.52138 0.205415Z" fill="#858EA6"/>
</svg>
