<svg preserveAspectRatio="xMidYMid meet" overflow="visible" style="display: block;" viewBox="0 0 14.9984 7.8885" fill="none" xmlns="http://www.w3.org/2000/svg">
<path id="Vector" d="M14.45 2.62862L12.0313 0.184874C11.9731 0.126294 11.904 0.0797971 11.8279 0.0480667C11.7517 0.0163363 11.67 0 11.5875 0C11.505 0 11.4233 0.0163363 11.3471 0.0480667C11.271 0.0797971 11.2019 0.126294 11.1438 0.184874C11.0273 0.301975 10.962 0.460383 10.962 0.625499C10.962 0.790615 11.0273 0.949022 11.1438 1.06612L13.3688 3.30987H0.625C0.45924 3.30987 0.300269 3.37572 0.183058 3.49293C0.065848 3.61014 0 3.76911 0 3.93487C0 4.10063 0.065848 4.25961 0.183058 4.37682C0.300269 4.49403 0.45924 4.55987 0.625 4.55987H13.4063L11.1438 6.81612C11.0852 6.87423 11.0387 6.94335 11.0069 7.01951C10.9752 7.09568 10.9589 7.17737 10.9589 7.25987C10.9589 7.34238 10.9752 7.42407 11.0069 7.50023C11.0387 7.5764 11.0852 7.64552 11.1438 7.70362C11.2019 7.7622 11.271 7.8087 11.3471 7.84043C11.4233 7.87216 11.505 7.8885 11.5875 7.8885C11.67 7.8885 11.7517 7.87216 11.8279 7.84043C11.904 7.8087 11.9731 7.7622 12.0313 7.70362L14.45 5.27862C14.8011 4.92706 14.9984 4.4505 14.9984 3.95362C14.9984 3.45675 14.8011 2.98019 14.45 2.62862Z" fill="white"/>
</svg>
