<svg preserveAspectRatio="xMidYMid meet" overflow="visible" style="display: block;" viewBox="0 0 7.5 7.5" fill="none" xmlns="http://www.w3.org/2000/svg">
<path id="Vector" d="M6.875 3.125H4.375V0.625C4.375 0.45924 4.30915 0.300269 4.19194 0.183058C4.07473 0.0658481 3.91576 0 3.75 0C3.58424 0 3.42527 0.0658481 3.30806 0.183058C3.19085 0.300269 3.125 0.45924 3.125 0.625V3.125H0.625C0.45924 3.125 0.300269 3.19085 0.183058 3.30806C0.0658481 3.42527 0 3.58424 0 3.75C0 3.91576 0.0658481 4.07473 0.183058 4.19194C0.300269 4.30915 0.45924 4.375 0.625 4.375H3.125V6.875C3.125 7.04076 3.19085 7.19973 3.30806 7.31694C3.42527 7.43415 3.58424 7.5 3.75 7.5C3.91576 7.5 4.07473 7.43415 4.19194 7.31694C4.30915 7.19973 4.375 7.04076 4.375 6.875V4.375H6.875C7.04076 4.375 7.19973 4.30915 7.31694 4.19194C7.43415 4.07473 7.5 3.91576 7.5 3.75C7.5 3.58424 7.43415 3.42527 7.31694 3.30806C7.19973 3.19085 7.04076 3.125 6.875 3.125Z" fill="white"/>
</svg>
