<svg preserveAspectRatio="xMidYMid meet" overflow="visible" style="display: block;" viewBox="0 0 10 9.99401" fill="none" xmlns="http://www.w3.org/2000/svg">
<path id="Vector" d="M9.63376 3.76984L6.47334 0.609011C6.08219 0.219006 5.55237 0 5.00001 0C4.44765 0 3.91782 0.219006 3.52667 0.609011L0.366255 3.76984C0.249766 3.88559 0.157409 4.0233 0.0945394 4.175C0.0316697 4.32671 -0.000462667 4.48938 5.03312e-06 4.65359V8.74401C5.03312e-06 9.07553 0.131701 9.39347 0.366122 9.62789C0.600542 9.86231 0.918485 9.99401 1.25001 9.99401H8.75001C9.08153 9.99401 9.39947 9.86231 9.63389 9.62789C9.86831 9.39347 10 9.07553 10 8.74401V4.65359C10.0005 4.48938 9.96834 4.32671 9.90547 4.175C9.8426 4.0233 9.75025 3.88559 9.63376 3.76984ZM6.25001 9.16068H3.75001V7.52151C3.75001 7.18999 3.8817 6.87205 4.11612 6.63763C4.35054 6.40321 4.66849 6.27151 5.00001 6.27151C5.33153 6.27151 5.64947 6.40321 5.88389 6.63763C6.11831 6.87205 6.25001 7.18999 6.25001 7.52151V9.16068ZM9.16667 8.74401C9.16667 8.85452 9.12277 8.9605 9.04463 9.03864C8.96649 9.11678 8.86051 9.16068 8.75001 9.16068H7.08334V7.52151C7.08334 6.96898 6.86385 6.43907 6.47315 6.04837C6.08244 5.65767 5.55254 5.43818 5.00001 5.43818C4.44747 5.43818 3.91757 5.65767 3.52687 6.04837C3.13617 6.43907 2.91667 6.96898 2.91667 7.52151V9.16068H1.25001C1.1395 9.16068 1.03352 9.11678 0.955377 9.03864C0.877237 8.9605 0.833339 8.85452 0.833339 8.74401V4.65359C0.833725 4.54317 0.877584 4.43734 0.955422 4.35901L4.11584 1.19943C4.35071 0.965648 4.66862 0.834404 5.00001 0.834404C5.3314 0.834404 5.6493 0.965648 5.88417 1.19943L9.04459 4.36026C9.12212 4.43828 9.16596 4.5436 9.16667 4.65359V8.74401Z" fill="#69738C"/>
</svg>
