<svg preserveAspectRatio="xMidYMid meet" overflow="visible" style="display: block;" viewBox="0 0 8.75099 4.48322" fill="none" xmlns="http://www.w3.org/2000/svg">
<path id="Vector" d="M8.56925 0.184874C8.51114 0.126293 8.44202 0.0797969 8.36586 0.0480666C8.28969 0.0163362 8.208 0 8.1255 0C8.04299 0 7.9613 0.0163362 7.88514 0.0480666C7.80897 0.0797969 7.73985 0.126293 7.68175 0.184874L4.81925 3.04737C4.76114 3.10595 4.69202 3.15244 4.61586 3.18417C4.53969 3.2159 4.458 3.23224 4.3755 3.23224C4.29299 3.23224 4.2113 3.2159 4.13514 3.18417C4.05897 3.15244 3.98985 3.10595 3.93175 3.04737L1.06925 0.184874C1.01114 0.126293 0.942018 0.0797969 0.865856 0.0480666C0.789694 0.0163362 0.708003 0 0.625495 0C0.542988 0 0.461297 0.0163362 0.385135 0.0480666C0.308973 0.0797969 0.239847 0.126293 0.181745 0.184874C0.0653384 0.301975 0 0.460382 0 0.625498C0 0.790613 0.0653384 0.949021 0.181745 1.06612L3.0505 3.93487C3.40206 4.28599 3.87862 4.48322 4.3755 4.48322C4.87237 4.48322 5.34893 4.28599 5.7005 3.93487L8.56925 1.06612C8.68565 0.949021 8.75099 0.790613 8.75099 0.625498C8.75099 0.460382 8.68565 0.301975 8.56925 0.184874Z" fill="#69738C"/>
</svg>
