<svg preserveAspectRatio="xMidYMid meet" width="20" height="20" viewBox="0 0 19.9271 19.9267" fill="none" xmlns="http://www.w3.org/2000/svg">
<path id="Vector" d="M19.0442 0.883386C18.4776 0.317717 17.7098 0 16.9092 0C16.1086 0 15.3407 0.317717 14.7742 0.883386L1.22085 14.4367C0.832722 14.8227 0.524981 15.2817 0.315428 15.7874C0.105874 16.293 -0.00133165 16.8352 1.24844e-05 17.3826V19.0934C1.24844e-05 19.3144 0.0878099 19.5264 0.24409 19.6826C0.40037 19.8389 0.612332 19.9267 0.833346 19.9267H2.54418C3.09148 19.9283 3.63365 19.8212 4.13931 19.6118C4.64496 19.4024 5.10406 19.0948 5.49001 18.7067L19.0442 5.15255C19.6096 4.58605 19.9271 3.81836 19.9271 3.01797C19.9271 2.21758 19.6096 1.44989 19.0442 0.883386ZM4.31168 17.5284C3.84168 17.9953 3.20665 18.2581 2.54418 18.2601H1.66668V17.3826C1.66584 17.0541 1.73014 16.7288 1.85588 16.4254C1.98161 16.122 2.16628 15.8466 2.39918 15.6151L12.685 5.32922L14.6017 7.24589L4.31168 17.5284ZM17.865 3.97422L15.7767 6.06339L13.86 4.15089L15.9492 2.06172C16.075 1.93614 16.2244 1.83658 16.3887 1.76873C16.553 1.70087 16.7291 1.66604 16.9069 1.66624C17.0847 1.66643 17.2607 1.70164 17.4249 1.76985C17.5891 1.83807 17.7382 1.93795 17.8638 2.0638C17.9893 2.18965 18.0889 2.339 18.1568 2.50333C18.2246 2.66766 18.2594 2.84374 18.2592 3.02153C18.2591 3.19931 18.2238 3.37532 18.1556 3.5395C18.0874 3.70367 17.9875 3.85281 17.8617 3.97839L17.865 3.97422Z" fill="#69738C"/>
</svg>
