<svg preserveAspectRatio="xMidYMid meet" width="125.327" height="40.7588" overflow="visible" style="display: block;" viewBox="0 0 125.327 40.7588" fill="none" xmlns="http://www.w3.org/2000/svg">
<path id="Union" fill-rule="evenodd" clip-rule="evenodd" d="M0 19.3791C0.209559 18.0307 0.504549 16.7071 0.884969 15.4083C0.939315 15.2227 0.995405 15.0377 1.05324 14.8532C1.32811 13.9761 1.46011 13.1921 1.44922 12.5012C1.42201 10.6039 1.41792 8.69721 1.43698 6.78107C1.43691 6.71622 1.42356 6.6524 1.39788 6.59362C1.39421 6.58522 1.39029 6.57692 1.38612 6.56874C1.35276 6.5033 1.30444 6.44703 1.24511 6.40458C-0.975673 4.78125 0.747064 1.56293 3.19237 2.64785C4.41043 3.18626 4.76897 4.71338 4.06288 5.72678C3.96201 5.87155 3.83942 6.00584 3.6945 6.12526C3.54481 6.2494 3.46997 6.40728 3.46997 6.5989L3.46589 9.44883C3.46589 9.69678 3.53406 9.73363 3.6704 9.55937C3.67949 9.54775 3.68888 9.53519 3.69858 9.5217C4.53953 8.33962 5.52065 7.18184 6.64193 6.04834C6.76712 5.9215 6.90728 5.90261 7.06241 5.99167L12.994 9.4124C13.0035 9.41779 13.0125 9.42329 13.021 9.42887C13.1485 9.51269 13.1599 9.61784 13.0552 9.74435C12.1054 10.8913 11.3965 12.1814 10.9284 13.6144C10.9093 13.6694 10.9086 13.7289 10.9262 13.7843C10.9438 13.8397 10.9789 13.888 11.0263 13.9221C14.3197 16.3839 15.2471 20.8262 13.8331 24.5181C13.6311 25.0455 13.3813 25.5576 13.0838 26.0465C10.7691 29.8477 5.8622 30.4185 2.98417 26.8804C2.48919 26.2732 2.39248 26.2767 2.69403 26.8911C2.71413 26.932 2.736 26.9757 2.75965 27.0221C5.36824 32.135 11.5693 32.1754 14.084 26.9654C14.1547 26.8197 14.25 26.8008 14.3698 26.9087C17.0287 29.2891 20.1653 30.7761 23.7795 31.3698C27.1705 31.9258 30.5276 31.7855 33.8506 30.9488C38.0989 29.8774 40.5265 27.2272 41.1334 22.9982C41.4702 20.6654 41.3011 18.1844 40.6261 15.5551C40.5811 15.3798 40.5338 15.2039 40.4843 15.0273C38.942 9.52423 34.9024 5.97098 29.4117 4.93457C29.0457 4.86548 28.6732 4.80757 28.2945 4.76101C25.2631 4.39026 22.3014 4.66626 19.4096 5.589C18.9964 5.72082 18.5847 5.86583 18.1745 6.02405C18.0554 6.07128 17.9405 6.06995 17.8298 6.02007C17.8139 6.01294 17.7982 6.00482 17.7826 5.99571L11.8918 2.59522C11.8729 2.58496 11.8574 2.56971 11.8469 2.55112C11.8364 2.53254 11.8313 2.5113 11.8321 2.48968C11.833 2.46807 11.8397 2.44688 11.8517 2.4284C11.8636 2.40991 11.8803 2.39481 11.8999 2.38472C14.3279 1.18012 16.8491 0.451306 19.3637 0.154605C20.6597 0.00168661 21.9539 -0.0364472 23.2326 0.0342264C32.7051 0.557762 41.3286 7.05215 43.5379 17.0878C44.1747 19.9836 44.2088 22.8362 43.64 25.6457C42.2719 32.3794 37.6001 36.9001 31.4187 39.197C30.5357 39.5251 29.6218 39.8078 28.6823 40.0451C28.3177 40.1369 28.2646 40.0465 28.5231 39.7739C29.0756 39.1991 29.526 38.4771 29.8744 37.6081C29.986 37.3302 30.1833 37.1372 30.4663 37.0292L32.2625 36.337C32.294 36.3253 32.3221 36.3061 32.3443 36.2811C32.3665 36.2561 32.3821 36.226 32.3898 36.1936C32.3965 36.1653 32.3969 36.1358 32.3911 36.1073C32.3903 36.1032 32.3894 36.0992 32.3883 36.0952C32.3807 36.067 32.3671 36.0408 32.3484 36.0185C32.3457 36.0153 32.343 36.0121 32.3401 36.0091L29.0457 32.4872C29.0321 32.4728 29.0159 32.4612 28.9978 32.453L28.9942 32.4514C28.9759 32.4438 28.9563 32.4397 28.9365 32.4396L28.9325 32.4396C28.914 32.4399 28.8957 32.4436 28.8786 32.4505C28.8761 32.4515 28.8737 32.4525 28.8713 32.4537C28.8545 32.4614 28.8393 32.4722 28.8265 32.4854C28.8247 32.4873 28.8229 32.4892 28.8211 32.4912C27.2889 34.1753 25.6478 35.607 23.8979 36.7863C23.8834 36.7969 23.8721 36.8112 23.8652 36.8276L23.8639 36.8309C23.8572 36.8488 23.856 36.8682 23.8603 36.8867C23.8647 36.9053 23.8744 36.9222 23.8883 36.9353C23.9023 36.9483 23.9198 36.9571 23.9387 36.9604L26.0411 37.2843C26.0715 37.2888 26.1004 37.3005 26.1252 37.3183C26.1285 37.3206 26.1317 37.3231 26.1348 37.3256L26.1356 37.3263C26.1626 37.3486 26.1829 37.3779 26.1943 37.4109C26.2043 37.4398 26.2071 37.4706 26.2025 37.5006C26.2019 37.5049 26.2011 37.5092 26.2001 37.5135C26.1935 37.5433 26.1797 37.571 26.1601 37.5944C26.1573 37.5977 26.1544 37.6009 26.1513 37.6041C24.9011 38.9466 22.5038 40.506 20.4527 40.7312C20.1597 40.7633 19.8737 40.7683 19.5992 40.7414C13.4757 40.1423 8.59736 38.0561 4.9641 34.4829C2.17179 31.7382 0.517093 28.1637 0 23.7592V19.3791ZM7.13589 26.8116C8.30304 26.8116 9.42836 26.2927 10.3233 25.3548C10.4512 25.2208 10.5743 25.0783 10.6922 24.9275C11.6354 23.7212 12.1653 22.085 12.1653 20.379C12.1653 18.8862 11.7596 17.4469 11.0263 16.3023C10.9216 16.1387 10.8101 15.9812 10.6922 15.8304C9.80797 14.6995 8.62836 14.0332 7.38528 13.9543C7.30241 13.949 7.21925 13.9464 7.13589 13.9464C5.802 13.9464 4.52275 14.6241 3.57956 15.8304C2.63636 17.0368 2.10647 18.6729 2.10647 20.379C2.10647 22.085 2.63636 23.7212 3.57956 24.9275C4.52275 26.1339 5.802 26.8116 7.13589 26.8116ZM9.9976 3.53438L15.9496 6.9713C15.9689 6.98245 15.985 6.99816 15.9966 7.01702C16.0082 7.03588 16.0149 7.0573 16.0162 7.07936C16.0174 7.10142 16.013 7.12344 16.0036 7.14344C15.9941 7.16344 15.9798 7.18079 15.9619 7.19395L14.5657 8.19386C14.5447 8.2092 14.5195 8.21813 14.4934 8.21957C14.4674 8.22101 14.4414 8.21489 14.4188 8.20195L8.45041 4.76908C8.43055 4.75778 8.41393 4.74165 8.4021 4.72221C8.39028 4.70277 8.38364 4.68067 8.38283 4.65798C8.38201 4.63529 8.38704 4.61277 8.39743 4.59255C8.40783 4.57232 8.42325 4.55505 8.44224 4.54238L9.85472 3.53843C9.87576 3.52453 9.90031 3.51678 9.92558 3.51606C9.95084 3.51534 9.9758 3.52169 9.9976 3.53438ZM21.7465 6.41674C17.4573 6.84585 14.4704 9.28962 12.7858 13.748C12.77 13.7882 12.7709 13.8331 12.7885 13.8731C12.806 13.9132 12.8387 13.9453 12.8797 13.9626L12.9858 14.0071C13.0313 14.0255 13.0819 14.027 13.1284 14.0114C13.1749 13.9958 13.2141 13.9641 13.2389 13.9221C14.382 11.9844 15.8557 10.5513 17.6601 9.62292C18.7403 9.06715 19.967 8.82096 21.1891 8.57567C21.5604 8.50115 21.9313 8.4267 22.2976 8.34369C22.8011 8.22764 23.0678 7.91323 23.0977 7.40045C23.1168 7.06041 22.8337 6.75949 22.2486 6.4977C22.0911 6.42622 21.9176 6.39824 21.7465 6.41674ZM61.941 29.868C59.448 31.8759 56.6938 32.1633 53.6784 30.7302C48.4122 28.2325 47.7549 19.5208 51.8617 15.7802C53.9002 13.9235 56.2339 13.2582 58.8629 13.7845C60.0005 14.0139 61.0156 14.5604 61.9083 15.424C62.0716 15.5832 62.1532 15.5495 62.1532 15.3228V7.82957C62.1532 7.69463 62.2213 7.62716 62.3574 7.62716H66.6438C66.7799 7.62716 66.8479 7.69463 66.8479 7.82957V31.1067L66.8479 31.1097L66.8477 31.1168C66.8452 31.1668 66.824 31.2143 66.7881 31.2499C66.7498 31.2878 66.6979 31.3091 66.6438 31.3091H62.3574C62.3032 31.3091 62.2513 31.2878 62.213 31.2499C62.1748 31.2119 62.1532 31.1604 62.1532 31.1067L62.1573 29.9692C62.1573 29.7857 62.0852 29.7519 61.941 29.868ZM56.4013 26.8683C58.4628 27.8317 60.6428 26.5768 61.994 24.9008C62.1002 24.7659 62.1532 24.6134 62.1532 24.4434V20.7595C62.1533 20.5834 62.0975 20.4131 61.994 20.2737C60.3203 18.0067 56.7442 16.8975 54.9276 19.5977C53.5069 21.7028 53.7723 25.6376 56.4013 26.8683ZM122.404 7.66765C123.784 7.35189 124.758 7.88761 125.327 9.27479V10.6309C124.932 11.4784 124.391 11.983 123.702 12.145C120.359 12.9222 119.408 8.34775 122.404 7.66765ZM99.4656 22.6258C99.4656 25.0114 98.5099 27.2993 96.8088 28.9863C95.1077 30.6732 92.8005 31.6209 90.3947 31.6209C87.989 31.6209 85.6817 30.6732 83.9806 28.9863C82.2795 27.2993 81.3238 25.0114 81.3238 22.6258C81.3238 20.2401 82.2795 17.9522 83.9806 16.2653C85.6817 14.5783 87.989 13.6306 90.3947 13.6306C92.8005 13.6306 95.1077 14.5783 96.8088 16.2653C98.5099 17.9522 99.4656 20.2401 99.4656 22.6258ZM90.4032 27.4391C90.9522 27.4381 91.4955 27.3125 92.0023 27.0693C92.509 26.8261 92.9692 26.4702 93.3566 26.0218C93.744 25.5734 94.051 25.0414 94.26 24.456C94.4691 23.8707 94.5761 23.2436 94.575 22.6104C94.5739 21.9773 94.4647 21.3505 94.2535 20.7659C94.0424 20.1813 93.7336 19.6503 93.3446 19.2033C92.9557 18.7562 92.4942 18.4019 91.9866 18.1605C91.479 17.9191 90.9352 17.7953 90.3862 17.7962C89.8372 17.7972 89.2939 17.9228 88.7871 18.166C88.2804 18.4092 87.8202 18.7651 87.4328 19.2135C87.0454 19.6619 86.7384 20.194 86.5294 20.7793C86.3203 21.3646 86.2133 21.9917 86.2144 22.6249C86.2155 23.2581 86.3248 23.8848 86.5359 24.4694C86.747 25.054 87.0558 25.585 87.4448 26.032C87.8338 26.4791 88.2952 26.8334 88.8028 27.0748C89.3104 27.3163 89.8542 27.44 90.4032 27.4391ZM105.732 29.8194C105.596 29.6979 105.528 29.7276 105.528 29.9084V37.3814C105.528 37.4351 105.506 37.4866 105.468 37.5246C105.43 37.5625 105.378 37.5838 105.324 37.5838H101.037C100.901 37.5838 100.833 37.5164 100.833 37.3814V14.1043C100.833 13.9693 100.901 13.9019 101.037 13.9019H105.324C105.457 13.9019 105.524 13.9693 105.524 14.1043L105.532 15.3349C105.532 15.5022 105.596 15.5319 105.724 15.424C110.28 11.647 116.358 14.0314 118.028 19.5248C118.893 22.3666 118.617 25.0749 117.199 27.6495C114.913 31.799 109.267 32.977 105.732 29.8194ZM105.638 24.7875C106.753 26.5201 109.043 27.6941 111.108 26.9533C115.199 25.4838 114.15 16.8449 108.9 18.1282C107.604 18.4466 106.529 19.1834 105.675 20.3385C105.577 20.468 105.528 20.6151 105.528 20.7798V24.4069C105.528 24.5446 105.565 24.6714 105.638 24.7875ZM74.2124 15.7114C75.927 13.9869 78.0158 13.3756 80.4788 13.8776C80.5492 13.8916 80.6126 13.9292 80.658 13.9838C80.7034 14.0384 80.7281 14.1068 80.7278 14.1771V18.2537C80.7278 18.4642 80.6244 18.5438 80.4175 18.4925C78.0131 17.8772 75.5351 18.8245 74.1226 20.6826C74.0377 20.7956 73.9919 20.9333 73.992 21.0753V31.1067C73.992 31.2416 73.9239 31.3091 73.7879 31.3091H69.3994C69.3452 31.3091 69.2933 31.2878 69.255 31.2498C69.2168 31.2119 69.1953 31.1604 69.1953 31.1067V14.1043C69.1953 14.0506 69.2168 13.9991 69.255 13.9611C69.2933 13.9232 69.3452 13.9018 69.3994 13.9018H73.7919C73.9307 13.9018 73.9988 13.9707 73.9961 14.1083L73.9756 15.6142C73.9729 15.8382 74.0518 15.8706 74.2124 15.7114ZM120.828 13.9302L125.327 13.9221V31.301L120.881 31.2808C120.715 31.2808 120.632 31.1985 120.632 31.0339V14.1245C120.632 13.995 120.698 13.9302 120.828 13.9302ZM19.7507 19.8416C19.7153 21.849 20.8106 23.4958 22.1969 23.5198C23.5833 23.5438 24.7358 21.9359 24.7712 19.9285C24.8065 17.9211 23.7113 16.2744 22.3249 16.2504C20.9385 16.2264 19.786 17.8342 19.7507 19.8416ZM36.1087 23.3016C35.0852 23.291 34.2716 21.7528 34.2916 19.8659C34.3115 17.979 35.1574 16.458 36.1809 16.4686C37.2044 16.4793 38.018 18.0175 37.9981 19.9044C37.9782 21.7912 37.1323 23.3122 36.1087 23.3016Z" fill="#FF6102"/>
</svg>
