<svg preserveAspectRatio="xMidYMid meet" overflow="visible" style="display: block;" viewBox="0 0 18.3277 20" fill="none" xmlns="http://www.w3.org/2000/svg">
<path id="Vector" d="M5.5892 7.71373C5.91502 8.03955 5.91502 8.56703 5.5892 8.89202C5.26338 9.21784 4.7359 9.21784 4.41091 8.89202C4.08508 8.5662 4.08508 8.03872 4.41091 7.71373C4.73673 7.3879 5.26421 7.3879 5.5892 7.71373ZM17.1322 12.7844L16.6614 13.2552C16.6389 14.2827 16.2405 15.3027 15.4656 16.0876L12.8265 18.7609C12.0407 19.5567 10.9924 19.9967 9.87407 20H9.8599C8.74743 20 7.70164 19.5667 6.91499 18.78L0.73519 12.6527C0.19354 12.1119 -0.068118 11.3678 0.0152126 10.6086L0.652692 4.84548C0.695191 4.4655 0.989348 4.16301 1.36767 4.11134L7.10832 3.32637C7.88496 3.22304 8.6666 3.48719 9.21492 4.03551L15.4439 10.212C15.7664 10.5345 16.0247 10.8978 16.2197 11.2853C16.8963 10.3136 16.8013 8.95619 15.9347 8.08955L9.60907 1.91891C9.41825 1.72808 9.15492 1.63975 8.89993 1.67559L3.15928 2.46056C2.70179 2.52222 2.28264 2.20307 2.22014 1.74808C2.15848 1.29226 2.47763 0.872278 2.93262 0.80978L8.6741 0.0239714C9.44158 -0.0851918 10.2316 0.183133 10.7807 0.733949L17.1047 6.90458C18.7263 8.52537 18.7355 11.1603 17.1313 12.7852L17.1322 12.7844ZM14.2673 11.3928L8.03829 5.21631C7.85246 5.03048 7.59164 4.94465 7.33248 4.97715L2.23681 5.67462L1.67099 10.7911C1.64349 11.0436 1.73016 11.2919 1.91015 11.4711L8.08996 17.5984C8.56411 18.0734 9.19159 18.3326 9.85907 18.3326H9.8674C10.539 18.3309 11.1682 18.0667 11.639 17.5884L14.2781 14.9152C15.2406 13.9402 15.2356 12.3594 14.2664 11.3911L14.2673 11.3928Z" fill="#9CD453"/>
</svg>
