<svg preserveAspectRatio="xMidYMid meet" overflow="visible" style="display: block;" viewBox="0 0 16.6667 20" fill="none" xmlns="http://www.w3.org/2000/svg">
<g id="Vector">
<path d="M15.8333 3.33333H13.25C13.0566 2.39284 12.5449 1.54779 11.801 0.940598C11.0572 0.333408 10.1268 0.0012121 9.16667 0H7.5C6.53983 0.0012121 5.60943 0.333408 4.86562 0.940598C4.12182 1.54779 3.61008 2.39284 3.41667 3.33333H0.833333C0.61232 3.33333 0.400358 3.42113 0.244078 3.57741C0.0877973 3.73369 0 3.94565 0 4.16667C0 4.38768 0.0877973 4.59964 0.244078 4.75592C0.400358 4.9122 0.61232 5 0.833333 5H1.66667V15.8333C1.66799 16.938 2.1074 17.997 2.88852 18.7782C3.66963 19.5593 4.72867 19.9987 5.83333 20H10.8333C11.938 19.9987 12.997 19.5593 13.7782 18.7782C14.5593 17.997 14.9987 16.938 15 15.8333V5H15.8333C16.0543 5 16.2663 4.9122 16.4226 4.75592C16.5789 4.59964 16.6667 4.38768 16.6667 4.16667C16.6667 3.94565 16.5789 3.73369 16.4226 3.57741C16.2663 3.42113 16.0543 3.33333 15.8333 3.33333ZM7.5 1.66667H9.16667C9.68356 1.6673 10.1876 1.82781 10.6097 2.1262C11.0317 2.42459 11.3512 2.84624 11.5242 3.33333H5.1425C5.31549 2.84624 5.63492 2.42459 6.05699 2.1262C6.47906 1.82781 6.98311 1.6673 7.5 1.66667ZM13.3333 15.8333C13.3333 16.4964 13.0699 17.1323 12.6011 17.6011C12.1323 18.0699 11.4964 18.3333 10.8333 18.3333H5.83333C5.17029 18.3333 4.53441 18.0699 4.06557 17.6011C3.59673 17.1323 3.33333 16.4964 3.33333 15.8333V5H13.3333V15.8333Z" fill="#69738C"/>
<path d="M6.66674 14.9995C6.88775 14.9995 7.09971 14.9117 7.25599 14.7554C7.41227 14.5991 7.50007 14.3872 7.50007 14.1661V9.16615C7.50007 8.94514 7.41227 8.73318 7.25599 8.5769C7.09971 8.42062 6.88775 8.33282 6.66674 8.33282C6.44572 8.33282 6.23376 8.42062 6.07748 8.5769C5.9212 8.73318 5.8334 8.94514 5.8334 9.16615V14.1661C5.8334 14.3872 5.9212 14.5991 6.07748 14.7554C6.23376 14.9117 6.44572 14.9995 6.66674 14.9995Z" fill="#69738C"/>
<path d="M9.99995 14.9995C10.221 14.9995 10.4329 14.9117 10.5892 14.7554C10.7455 14.5991 10.8333 14.3872 10.8333 14.1661V9.16615C10.8333 8.94514 10.7455 8.73318 10.5892 8.5769C10.4329 8.42062 10.221 8.33282 9.99995 8.33282C9.77894 8.33282 9.56698 8.42062 9.4107 8.5769C9.25441 8.73318 9.16662 8.94514 9.16662 9.16615V14.1661C9.16662 14.3872 9.25441 14.5991 9.4107 14.7554C9.56698 14.9117 9.77894 14.9995 9.99995 14.9995Z" fill="#69738C"/>
</g>
</svg>
