<svg preserveAspectRatio="xMidYMid meet"  overflow="visible" style="display: block;" viewBox="0 0 3.98509 7.77823" fill="none" xmlns="http://www.w3.org/2000/svg">
<path id="Vector" d="M1.27076 4.28377C1.21868 4.23213 1.17735 4.17068 1.14915 4.10298C1.12094 4.03528 1.10642 3.96267 1.10642 3.88933C1.10642 3.81599 1.12094 3.74338 1.14915 3.67568C1.17735 3.60798 1.21868 3.54653 1.27076 3.49488L3.82076 0.95044C3.87283 0.898794 3.91416 0.837349 3.94236 0.76965C3.97057 0.70195 3.98509 0.629336 3.98509 0.555996C3.98509 0.482656 3.97057 0.410042 3.94236 0.342342C3.91416 0.274642 3.87283 0.213197 3.82076 0.161551C3.71667 0.0580786 3.57586 0 3.42909 0C3.28232 0 3.14151 0.0580786 3.03742 0.161551L0.487422 2.71155C0.17531 3.02405 0 3.44766 0 3.88933C0 4.331 0.17531 4.75461 0.487422 5.06711L3.03742 7.61711C3.1409 7.71974 3.28057 7.7776 3.42631 7.77822C3.49943 7.77864 3.57191 7.76463 3.63959 7.73698C3.70728 7.70933 3.76884 7.6686 3.82076 7.61711C3.87283 7.56546 3.91416 7.50402 3.94236 7.43632C3.97057 7.36862 3.98509 7.296 3.98509 7.22266C3.98509 7.14932 3.97057 7.07671 3.94236 7.00901C3.91416 6.94131 3.87283 6.87986 3.82076 6.82822L1.27076 4.28377Z" fill="white"/>
</svg>
