<svg preserveAspectRatio="xMidYMid meet"  overflow="visible" style="display: block;" viewBox="0 0 20 18.32" fill="none" xmlns="http://www.w3.org/2000/svg">
<g id="Vector">
<path d="M19.2696 6.76C19.0195 6.51 18.7094 6.32 18.3892 6.2C17.2786 2.61 13.937 0 9.995 0C6.05303 0 2.71136 2.61 1.61081 6.2C1.28064 6.32 0.98049 6.51 0.730365 6.76C0.26013 7.23 0 7.86 0 8.53C0 9.2 0.26013 9.83 0.730365 10.3C0.92046 10.49 1.14057 10.65 1.38069 10.76C1.41071 10.77 1.44072 10.79 1.47074 10.8C1.52076 11 1.6008 11.18 1.66083 11.38C2.02101 12.06 2.69135 11.79 2.69135 11.79C3.09155 11.65 3.2016 11.17 3.09155 10.78C2.87144 10.02 2.77139 9.22 2.82141 8.38C3.02151 4.68 6.17309 1.65 9.88494 1.58C13.907 1.51 17.2086 4.76 17.2086 8.77C17.2086 12.32 14.6273 15.27 11.2356 15.85C10.9555 15.42 10.4652 15.14 9.90495 15.14C9.02451 15.14 8.31416 15.85 8.31416 16.73C8.31416 17.61 9.02451 18.32 9.90495 18.32C10.5353 18.32 11.0655 17.95 11.3257 17.43C14.8674 16.89 17.7089 14.24 18.5293 10.8C18.7994 10.68 19.0595 10.51 19.2696 10.29C19.7399 9.82 20 9.19 20 8.52C20 7.85 19.7399 7.22 19.2696 6.75V6.76Z" fill="white"/>
<path d="M9.99501 14.4899C9.60482 14.4899 9.22463 14.3299 8.94449 14.0499L7.93398 13.1099H7.32368C6.12308 13.1099 5.14259 12.0499 5.14259 10.7399V6.18995C5.14259 4.88995 6.12308 3.81995 7.32368 3.81995H12.6563C13.8569 3.81995 14.8374 4.87995 14.8374 6.18995V10.7399C14.8374 12.0399 13.8569 13.1099 12.6563 13.1099H12.026L11.0155 14.0799C10.7554 14.3499 10.3852 14.4999 9.99501 14.4999V14.4899ZM7.33368 5.52995C7.07355 5.52995 6.85344 5.83995 6.85344 6.19995V10.7499C6.85344 11.0999 7.08356 11.4199 7.33368 11.4199H8.28416C8.50427 11.4199 8.70437 11.4999 8.86445 11.6499L9.99501 12.7099L11.0956 11.6499C11.2556 11.4999 11.4657 11.4099 11.6859 11.4099H12.6563C12.9165 11.4099 13.1366 11.0999 13.1366 10.7399V6.18995C13.1366 5.83995 12.9065 5.51995 12.6563 5.51995H7.32368L7.33368 5.52995Z" fill="white"/>
</g>
</svg>
