<svg preserveAspectRatio="xMidYMid meet"  overflow="visible" style="display: block;" viewBox="0 0 24.9769 25.0006" fill="none" xmlns="http://www.w3.org/2000/svg">
<g id="Vector">
<path d="M7.29166 25.0006C8.44225 25.0006 9.37499 24.0679 9.37499 22.9173C9.37499 21.7667 8.44225 20.834 7.29166 20.834C6.14107 20.834 5.20833 21.7667 5.20833 22.9173C5.20833 24.0679 6.14107 25.0006 7.29166 25.0006Z" fill="white"/>
<path d="M17.7085 25.0006C18.8591 25.0006 19.7919 24.0679 19.7919 22.9173C19.7919 21.7667 18.8591 20.834 17.7085 20.834C16.5579 20.834 15.6252 21.7667 15.6252 22.9173C15.6252 24.0679 16.5579 25.0006 17.7085 25.0006Z" fill="white"/>
<path d="M24.672 1.39103C24.4766 1.19575 24.2117 1.08604 23.9355 1.08604C23.6593 1.08604 23.3944 1.19575 23.199 1.39103L17.8251 6.7702L16.2095 5.08374C16.1147 4.98511 16.0014 4.90612 15.876 4.85128C15.7507 4.79643 15.6158 4.76681 15.479 4.7641C15.3423 4.7614 15.2063 4.78565 15.0789 4.83549C14.9515 4.88533 14.8352 4.95977 14.7365 5.05457C14.6379 5.14937 14.5589 5.26267 14.5041 5.38799C14.4492 5.51332 14.4196 5.64822 14.4169 5.78499C14.4114 6.06121 14.5159 6.3283 14.7074 6.52749L16.3886 8.27645C16.5678 8.46994 16.7843 8.62509 17.0251 8.73251C17.2659 8.83994 17.526 8.89741 17.7897 8.90145H17.824C18.0824 8.9023 18.3384 8.85182 18.5771 8.75293C18.8159 8.65404 19.0326 8.50872 19.2147 8.32541L24.672 2.86395C24.8672 2.66861 24.9769 2.4037 24.9769 2.12749C24.9769 1.85128 24.8672 1.58637 24.672 1.39103Z" fill="white"/>
<path d="M22.8125 9.39167C22.6778 9.36733 22.5397 9.36978 22.4059 9.39886C22.2722 9.42794 22.1455 9.48309 22.0331 9.56116C21.9207 9.63923 21.8248 9.73868 21.7508 9.85384C21.6769 9.96899 21.6263 10.0976 21.6021 10.2323L21.4687 10.9708C21.3388 11.692 20.9596 12.3446 20.3973 12.8145C19.835 13.2844 19.1255 13.5418 18.3927 13.5417H5.64375L4.66458 5.20833H11.4583C11.7346 5.20833 11.9996 5.09859 12.1949 4.90324C12.3903 4.70789 12.5 4.44293 12.5 4.16667C12.5 3.8904 12.3903 3.62545 12.1949 3.4301C11.9996 3.23475 11.7346 3.125 11.4583 3.125H4.41875L4.375 2.75833C4.28523 1.99854 3.91985 1.29808 3.34811 0.789692C2.77637 0.281307 2.03799 0.000325871 1.27292 0H1.04167C0.765399 0 0.500447 0.109747 0.305097 0.305097C0.109747 0.500447 0 0.765399 0 1.04167C0 1.31793 0.109747 1.58289 0.305097 1.77824C0.500447 1.97359 0.765399 2.08333 1.04167 2.08333H1.27292C1.52806 2.08337 1.77431 2.17704 1.96497 2.34658C2.15563 2.51612 2.27744 2.74974 2.30729 3.00312L3.74063 15.1906C3.88943 16.4581 4.49841 17.6269 5.45199 18.475C6.40556 19.3232 7.63735 19.7917 8.91354 19.7917H19.7917C20.0679 19.7917 20.3329 19.6819 20.5282 19.4866C20.7236 19.2912 20.8333 19.0263 20.8333 18.75C20.8333 18.4737 20.7236 18.2088 20.5282 18.0134C20.3329 17.8181 20.0679 17.7083 19.7917 17.7083H8.91354C8.26721 17.7085 7.63673 17.5082 7.10897 17.1351C6.5812 16.7619 6.18211 16.2344 5.96667 15.625H18.3927C19.6138 15.6251 20.7962 15.1961 21.7331 14.413C22.6701 13.6298 23.3021 12.5424 23.5187 11.3406L23.6521 10.601C23.7009 10.3294 23.64 10.0494 23.4825 9.82262C23.3251 9.59586 23.0841 9.44086 22.8125 9.39167Z" fill="white"/>
</g>
</svg>
