<svg preserveAspectRatio="xMidYMid meet"  overflow="visible" style="display: block;" viewBox="0 0 16.2835 19.9975" fill="none" xmlns="http://www.w3.org/2000/svg">
<path id="Vector" d="M14.5783 6.63826L6.62833 0.804927C6.00741 0.350248 5.27269 0.076422 4.50564 0.0138128C3.73859 -0.0487964 2.96919 0.102257 2.28275 0.450225C1.5963 0.798192 1.01965 1.32948 0.616715 1.98516C0.213783 2.64085 0.000321679 3.39533 0 4.16493V15.8316C0.00013731 16.6015 0.213611 17.3564 0.616729 18.0124C1.01985 18.6684 1.59684 19.1998 2.28368 19.5478C2.97052 19.8957 3.74034 20.0466 4.50771 19.9835C5.27507 19.9205 6.00997 19.6461 6.63083 19.1908L14.5808 13.3574C15.1086 12.9704 15.5377 12.4646 15.8335 11.8808C16.1293 11.2971 16.2835 10.6518 16.2835 9.99743C16.2835 9.34301 16.1293 8.69779 15.8335 8.11404C15.5377 7.53029 15.1086 7.02443 14.5808 6.63743L14.5783 6.63826ZM13.5917 12.0133L5.64167 17.8466C5.26918 18.1188 4.82864 18.2826 4.36881 18.3199C3.90898 18.3572 3.4478 18.2665 3.03631 18.0579C2.62482 17.8494 2.27907 17.531 2.03734 17.138C1.7956 16.7451 1.66731 16.2929 1.66667 15.8316V4.16493C1.66204 3.70272 1.78791 3.24858 2.02981 2.8547C2.27172 2.46081 2.61983 2.14317 3.03417 1.93826C3.38658 1.759 3.77629 1.66536 4.17167 1.66493C4.70158 1.66695 5.21685 1.839 5.64167 2.15576L13.5917 7.98909C13.9079 8.22134 14.1651 8.52476 14.3423 8.87482C14.5195 9.22487 14.6119 9.61173 14.6119 10.0041C14.6119 10.3965 14.5195 10.7833 14.3423 11.1334C14.1651 11.4834 13.9079 11.7868 13.5917 12.0191V12.0133Z" fill="white"/>
</svg>
