<svg preserveAspectRatio="xMidYMid meet"  overflow="visible" style="display: block;" viewBox="0 0 22 22" fill="none" xmlns="http://www.w3.org/2000/svg">
<path id="Vector" d="M11 0C8.82441 0 6.69767 0.645139 4.88873 1.85383C3.07979 3.06253 1.66989 4.78049 0.83733 6.79048C0.00476614 8.80047 -0.213071 11.0122 0.211367 13.146C0.635804 15.2798 1.68345 17.2398 3.22183 18.7782C4.76021 20.3165 6.72022 21.3642 8.85401 21.7886C10.9878 22.2131 13.1995 21.9952 15.2095 21.1627C17.2195 20.3301 18.9375 18.9202 20.1462 17.1113C21.3549 15.3023 22 13.1756 22 11C21.9968 8.08359 20.8369 5.28753 18.7747 3.22531C16.7125 1.16309 13.9164 0.00315432 11 0V0ZM11.9167 20.1199V18.3333C11.9167 18.0902 11.8201 17.8571 11.6482 17.6851C11.4763 17.5132 11.2431 17.4167 11 17.4167C10.7569 17.4167 10.5237 17.5132 10.3518 17.6851C10.1799 17.8571 10.0833 18.0902 10.0833 18.3333V20.1199C7.98066 19.9058 6.01625 18.9728 4.52175 17.4783C3.02724 15.9837 2.09418 14.0193 1.88009 11.9167H3.66667C3.90979 11.9167 4.14294 11.8201 4.31485 11.6482C4.48676 11.4763 4.58334 11.2431 4.58334 11C4.58334 10.7569 4.48676 10.5237 4.31485 10.3518C4.14294 10.1799 3.90979 10.0833 3.66667 10.0833H1.88009C2.09418 7.98065 3.02724 6.01625 4.52175 4.52174C6.01625 3.02724 7.98066 2.09418 10.0833 1.88008V3.66667C10.0833 3.90978 10.1799 4.14294 10.3518 4.31485C10.5237 4.48676 10.7569 4.58333 11 4.58333C11.2431 4.58333 11.4763 4.48676 11.6482 4.31485C11.8201 4.14294 11.9167 3.90978 11.9167 3.66667V1.88008C14.0193 2.09418 15.9838 3.02724 17.4783 4.52174C18.9728 6.01625 19.9058 7.98065 20.1199 10.0833H18.3333C18.0902 10.0833 17.8571 10.1799 17.6852 10.3518C17.5132 10.5237 17.4167 10.7569 17.4167 11C17.4167 11.2431 17.5132 11.4763 17.6852 11.6482C17.8571 11.8201 18.0902 11.9167 18.3333 11.9167H20.1199C19.9058 14.0193 18.9728 15.9837 17.4783 17.4783C15.9838 18.9728 14.0193 19.9058 11.9167 20.1199V20.1199ZM14.6667 11C14.6667 11.2431 14.5701 11.4763 14.3982 11.6482C14.2263 11.8201 13.9931 11.9167 13.75 11.9167H11.9167V13.75C11.9167 13.9931 11.8201 14.2263 11.6482 14.3982C11.4763 14.5701 11.2431 14.6667 11 14.6667C10.7569 14.6667 10.5237 14.5701 10.3518 14.3982C10.1799 14.2263 10.0833 13.9931 10.0833 13.75V11.9167H8.25C8.00689 11.9167 7.77373 11.8201 7.60182 11.6482C7.42991 11.4763 7.33334 11.2431 7.33334 11C7.33334 10.7569 7.42991 10.5237 7.60182 10.3518C7.77373 10.1799 8.00689 10.0833 8.25 10.0833H10.0833V8.25C10.0833 8.00688 10.1799 7.77373 10.3518 7.60182C10.5237 7.42991 10.7569 7.33333 11 7.33333C11.2431 7.33333 11.4763 7.42991 11.6482 7.60182C11.8201 7.77373 11.9167 8.00688 11.9167 8.25V10.0833H13.75C13.9931 10.0833 14.2263 10.1799 14.3982 10.3518C14.5701 10.5237 14.6667 10.7569 14.6667 11Z" fill="white"/>
</svg>
