<svg preserveAspectRatio="xMidYMid meet"  overflow="visible" style="display: block;" viewBox="0 0 25.0006 25.0006" fill="none" xmlns="http://www.w3.org/2000/svg">
<g id="Vector">
<path d="M19.3954 13.5254L19.1298 13.1964C18.8641 12.8802 18.5351 12.6145 18.1429 12.4373L16.1186 11.4884C15.8023 11.3366 15.4481 11.2607 15.0938 11.2607C14.8661 11.2607 14.651 11.286 14.4359 11.3493C13.9678 11.4884 13.5376 11.7415 13.196 12.0957C13.0569 11.9819 12.8291 11.7921 12.6394 11.615C13.0569 10.9191 13.1328 9.99553 12.8038 9.23642L11.8423 6.9591C11.4501 6.04817 10.5645 5.46618 9.59028 5.46618H9.07155C8.3251 5.46618 7.81902 5.71922 7.50273 5.909C6.87014 6.25059 6.37672 6.73136 6.00981 7.37661C5.55435 8.17367 5.31396 9.09725 5.31396 10.0588V10.1474C5.31396 12.2223 6.99666 14.4743 8.40101 15.9925C8.64139 16.2455 9.24868 16.7516 9.3752 16.8528C9.86862 17.2324 11.1718 18.1686 12.8038 18.7126C13.1328 18.8265 13.4491 18.9024 13.7654 18.9783L13.8539 19.0036C14.107 19.0669 14.4992 19.1428 15.0938 19.1428H15.1824C15.4734 19.1428 16.0174 19.1301 16.6626 18.9151C17.2446 18.7253 17.5483 18.5355 17.8899 18.3078C18.6869 17.7764 19.1424 17.0426 19.3322 16.6504C19.5473 16.2202 19.6738 15.6382 19.6738 15.0942C19.6738 14.6767 19.6738 14.2845 19.5093 13.867L19.3828 13.5254H19.3954ZM17.3965 15.6762C17.2826 15.9166 17.0422 16.2708 16.6879 16.4986C16.4729 16.6504 16.3337 16.739 15.9794 16.8528C15.6505 16.9667 15.3722 16.9667 15.1571 16.9667H15.0938C14.6763 16.9667 14.4612 16.9034 14.2082 16.8528C13.9678 16.8022 13.7274 16.739 13.487 16.6504C12.0068 16.157 10.8555 15.2587 10.7036 15.1322C10.5645 15.031 10.0964 14.6134 9.99514 14.5122C8.43896 12.8295 7.49008 11.1848 7.49008 10.1094V10.0714C7.49008 9.47681 7.6419 8.92013 7.89493 8.47731C8.07206 8.17367 8.26184 7.98389 8.55283 7.83207C8.6667 7.76881 8.78056 7.65495 9.08421 7.65495C9.21072 7.65495 9.46376 7.65495 9.59028 7.65495C9.70415 7.65495 9.80536 7.71821 9.85597 7.83207L10.8302 10.1094C10.8808 10.2233 10.8555 10.4763 10.7542 10.5649L10.0964 11.3113C10.0964 11.3113 9.85597 11.5517 10.3367 12.2602C10.4759 12.4626 10.9314 12.9687 11.0452 13.0826C11.3742 13.4115 11.7917 13.7658 12.0068 13.9176C12.1333 14.0188 12.7026 14.3984 12.9304 14.4996C13.196 14.6514 13.4491 14.74 13.6642 14.74C13.8539 14.74 14.0184 14.6641 14.1196 14.4996L14.7396 13.6646C14.8155 13.5633 14.9293 13.4874 15.0559 13.4495C15.0812 13.4495 15.0938 13.4495 15.1191 13.4495C15.1571 13.4495 15.195 13.4495 15.233 13.4748L17.2573 14.4237C17.3458 14.4616 17.4218 14.5249 17.485 14.5881C17.4977 14.6134 17.5103 14.6261 17.523 14.6388C17.5483 14.6894 17.5483 14.9677 17.5483 15.0942C17.5483 15.3346 17.485 15.575 17.4344 15.6889L17.3965 15.6762Z" fill="white"/>
<path d="M21.4197 3.65698C18.2062 0.430763 13.5883 -0.758508 9.08421 0.48137C4.98502 1.60738 1.74615 4.84625 0.632791 8.93279C-0.202229 12.0072 0.126718 15.2081 1.55637 17.9535L0.0381555 23.5962C-0.0630591 23.9758 0.0381555 24.3933 0.329147 24.6717C0.544228 24.8867 0.822568 25.0006 1.11356 25.0006C1.21477 25.0006 1.30334 25.0006 1.40455 24.9626L7.23704 23.4191C9.99514 24.7349 13.0569 24.988 16.1186 24.1403C20.1799 23.0143 23.4061 19.826 24.5194 15.8027C25.7467 11.3872 24.5953 6.84524 21.4197 3.66963V3.65698ZM22.3686 15.1954C21.4577 18.4723 18.8261 21.0659 15.5113 21.9895C12.9177 22.698 10.3367 22.4702 8.02146 21.3316C7.79372 21.2177 7.54069 21.1544 7.275 21.1544C7.13583 21.1544 6.99666 21.1671 6.84484 21.2051L2.66973 22.3184L3.74514 18.3204C3.85901 17.9029 3.8084 17.4728 3.59332 17.0932C2.32814 14.7779 2.03714 12.159 2.7583 9.51477C3.65658 6.18734 6.30081 3.54311 9.64089 2.63218C13.3732 1.60738 17.1814 2.58157 19.813 5.23846C22.4066 7.84473 23.3555 11.577 22.3433 15.2081L22.3686 15.1954Z" fill="white"/>
</g>
</svg>
