<svg preserveAspectRatio="xMidYMid meet"  overflow="visible" style="display: block;" viewBox="0 0 16.6667 15.2775" fill="none" xmlns="http://www.w3.org/2000/svg">
<path id="Vector" d="M15.4167 0.807408C15.0263 0.480969 14.5688 0.244484 14.0767 0.114744C13.5846 -0.0149955 13.07 -0.0348082 12.5694 0.0567132L9.91528 0.538658C9.3025 0.651188 8.74534 0.966454 8.33333 1.4338C7.92025 0.965646 7.3615 0.650309 6.74722 0.538658L4.09722 0.0567132C3.59664 -0.0348883 3.08204 -0.0153353 2.58984 0.113988C2.09765 0.243311 1.63991 0.479244 1.249 0.805084C0.858102 1.13092 0.543602 1.53871 0.327765 1.99957C0.111929 2.46042 3.38975e-05 2.96309 0 3.47199V10.9671C3.98999e-05 11.7802 0.2854 12.5674 0.806343 13.1917C1.32728 13.8159 2.05077 14.2376 2.85069 14.3831L7.21597 15.1769C7.95483 15.3111 8.71184 15.3111 9.4507 15.1769L13.8194 14.3831C14.6187 14.2368 15.3414 13.8149 15.8617 13.1907C16.3819 12.5665 16.6668 11.7797 16.6667 10.9671V3.47199C16.667 2.96327 16.5551 2.46074 16.3391 2.00018C16.123 1.53962 15.8081 1.13236 15.4167 0.807408ZM7.63889 13.8387C7.58056 13.8303 7.52222 13.8206 7.46389 13.8102L3.09931 13.0171C2.61928 12.9298 2.18514 12.6768 1.87256 12.3021C1.55999 11.9275 1.38882 11.455 1.38889 10.9671V3.47199C1.38889 2.91946 1.60838 2.38955 1.99908 1.99885C2.38978 1.60815 2.91969 1.38866 3.47222 1.38866C3.59798 1.38896 3.72347 1.40034 3.84722 1.42269L6.5 1.9088C6.81918 1.9672 7.10783 2.13551 7.31586 2.38452C7.5239 2.63353 7.63819 2.94752 7.63889 3.27199V13.8387ZM15.2778 10.9671C15.2779 11.455 15.1067 11.9275 14.7941 12.3021C14.4815 12.6768 14.0474 12.9298 13.5674 13.0171L9.20278 13.8102C9.14445 13.8206 9.08611 13.8303 9.02778 13.8387V3.27199C9.02773 2.94672 9.14184 2.63175 9.35023 2.382C9.55861 2.13224 9.84804 1.96355 10.1681 1.90532L12.8215 1.41921C13.122 1.36454 13.4309 1.37661 13.7262 1.45457C14.0215 1.53252 14.2961 1.67446 14.5304 1.87033C14.7648 2.06619 14.9532 2.31119 15.0824 2.58798C15.2115 2.86476 15.2782 3.16656 15.2778 3.47199V10.9671Z" fill="#32394D"/>
</svg>
