<svg preserveAspectRatio="xMidYMid meet"  overflow="visible" style="display: block;" viewBox="0 0 16.6667 15.2667" fill="none" xmlns="http://www.w3.org/2000/svg">
<g id="Vector">
<path d="M16.058 5.63333C15.8496 5.425 15.5911 5.26667 15.3243 5.16667C14.3989 2.175 11.6141 0 8.32916 0C5.04419 0 2.25946 2.175 1.34234 5.16667C1.0672 5.26667 0.817075 5.425 0.608638 5.63333C0.216775 6.025 0 6.55 0 7.10833C0 7.66667 0.216775 8.19167 0.608638 8.58333C0.76705 8.74167 0.950475 8.875 1.15058 8.96667C1.17559 8.975 1.2006 8.99167 1.22561 9C1.2673 9.16667 1.334 9.31667 1.38403 9.48333C1.68418 10.05 2.24279 9.825 2.24279 9.825C2.57629 9.70833 2.668 9.30833 2.57629 8.98333C2.39286 8.35 2.30949 7.68333 2.35118 6.98333C2.51793 3.9 5.14424 1.375 8.23745 1.31667C11.5891 1.25833 14.3405 3.96667 14.3405 7.30833C14.3405 10.2667 12.1894 12.725 9.36301 13.2083C9.12956 12.85 8.72103 12.6167 8.25413 12.6167C7.52043 12.6167 6.92846 13.2083 6.92846 13.9417C6.92846 14.675 7.52043 15.2667 8.25413 15.2667C8.77939 15.2667 9.22128 14.9583 9.43805 14.525C12.3895 14.075 14.7574 11.8667 15.4411 9C15.6662 8.9 15.8829 8.75833 16.058 8.575C16.4499 8.18333 16.6667 7.65833 16.6667 7.1C16.6667 6.54167 16.4499 6.01667 16.058 5.625V5.63333Z" fill="#32394D"/>
<path d="M8.32918 12.075C8.00401 12.075 7.68719 11.9416 7.45374 11.7083L6.61165 10.925H6.10306C5.10256 10.925 4.28549 10.0416 4.28549 8.94996V5.15829C4.28549 4.07496 5.10256 3.18329 6.10306 3.18329H10.547C11.5475 3.18329 12.3645 4.06662 12.3645 5.15829V8.94996C12.3645 10.0333 11.5475 10.925 10.547 10.925H10.0217L9.1796 11.7333C8.96283 11.9583 8.65434 12.0833 8.32918 12.0833V12.075ZM6.1114 4.60829C5.89463 4.60829 5.7112 4.86662 5.7112 5.16662V8.95829C5.7112 9.24996 5.90296 9.51662 6.1114 9.51662H6.90346C7.08689 9.51662 7.25364 9.58329 7.38704 9.70829L8.32918 10.5916L9.2463 9.70829C9.3797 9.58329 9.55479 9.50829 9.73821 9.50829H10.547C10.7637 9.50829 10.9472 9.24996 10.9472 8.94996V5.15829C10.9472 4.86662 10.7554 4.59995 10.547 4.59995H6.10306L6.1114 4.60829Z" fill="#32394D"/>
</g>
</svg>
