<svg preserveAspectRatio="xMidYMid meet"  style="display: block;" viewBox="0 0 16.6667 16.6667" fill="none" xmlns="http://www.w3.org/2000/svg">
<path id="Vector" fill-rule="evenodd" clip-rule="evenodd" d="M3.47222 15.2778H15.9722C16.1564 15.2778 16.333 15.3509 16.4633 15.4812C16.5935 15.6114 16.6667 15.788 16.6667 15.9722C16.6667 16.1564 16.5935 16.333 16.4633 16.4633C16.333 16.5935 16.1564 16.6667 15.9722 16.6667H3.47222C2.55167 16.6656 1.66914 16.2994 1.01821 15.6485C0.367279 14.9975 0.00110268 14.115 0 13.1944V0.694444C0 0.510266 0.0731645 0.333632 0.203398 0.203398C0.333632 0.0731645 0.510266 0 0.694444 0C0.878623 0 1.05526 0.0731645 1.18549 0.203398C1.31572 0.333632 1.38889 0.510266 1.38889 0.694444V13.1944C1.38889 13.747 1.60838 14.2769 1.99908 14.6676C2.38978 15.0583 2.91969 15.2778 3.47222 15.2778ZM4.6576 13.6854C4.52737 13.8156 4.35073 13.8888 4.16655 13.8888C3.98238 13.8888 3.80574 13.8156 3.67551 13.6854C3.54527 13.5551 3.47211 13.3785 3.47211 13.1943V8.33321C3.47211 8.14903 3.54527 7.9724 3.67551 7.84216C3.80574 7.71193 3.98238 7.63876 4.16655 7.63876C4.35073 7.63876 4.52737 7.71193 4.6576 7.84216C4.78783 7.9724 4.861 8.14903 4.861 8.33321V13.1943C4.861 13.3785 4.78783 13.5551 4.6576 13.6854ZM6.94457 6.94444V13.1944C6.94457 13.3786 7.01774 13.5553 7.14797 13.6855C7.2782 13.8157 7.45484 13.8889 7.63902 13.8889C7.82319 13.8889 7.99983 13.8157 8.13006 13.6855C8.2603 13.5553 8.33346 13.3786 8.33346 13.1944V6.94444C8.33346 6.76026 8.2603 6.58363 8.13006 6.4534C7.99983 6.32316 7.82319 6.25 7.63902 6.25C7.45484 6.25 7.2782 6.32316 7.14797 6.4534C7.01774 6.58363 6.94457 6.76026 6.94457 6.94444ZM10.4167 13.1945V9.02778C10.4167 8.84361 10.4898 8.66697 10.6201 8.53674C10.7503 8.4065 10.9269 8.33334 11.1111 8.33334C11.2953 8.33334 11.4719 8.4065 11.6022 8.53674C11.7324 8.66697 11.8056 8.84361 11.8056 9.02778V13.1945C11.8056 13.3786 11.7324 13.5553 11.6022 13.6855C11.4719 13.8157 11.2953 13.8889 11.1111 13.8889C10.9269 13.8889 10.7503 13.8157 10.6201 13.6855C10.4898 13.5553 10.4167 13.3786 10.4167 13.1945ZM13.8888 6.2499V13.1943C13.8888 13.3785 13.962 13.5552 14.0922 13.6854C14.2224 13.8156 14.3991 13.8888 14.5832 13.8888C14.7674 13.8888 14.944 13.8156 15.0743 13.6854C15.2045 13.5552 15.2777 13.3785 15.2777 13.1943V6.2499C15.2777 6.06572 15.2045 5.88908 15.0743 5.75885C14.944 5.62862 14.7674 5.55545 14.5832 5.55545C14.3991 5.55545 14.2224 5.62862 14.0922 5.75885C13.962 5.88908 13.8888 6.06572 13.8888 6.2499ZM4.65773 6.0465C4.52753 6.17674 4.35092 6.24993 4.16676 6.24997C4.02943 6.24994 3.8952 6.2092 3.78102 6.13289C3.66685 6.05658 3.57786 5.94813 3.52532 5.82126C3.47277 5.69438 3.45901 5.55478 3.4858 5.42009C3.51258 5.2854 3.5787 5.16167 3.67579 5.06455L6.16606 2.57427C6.55675 2.18371 7.08655 1.9643 7.63898 1.9643C8.19141 1.9643 8.72121 2.18371 9.1119 2.57427L10.6202 4.08191C10.7505 4.2121 10.9271 4.28524 11.1112 4.28524C11.2953 4.28524 11.4719 4.2121 11.6022 4.08191L15.4813 0.203441C15.6123 0.0769427 15.7877 0.00694662 15.9698 0.00852885C16.1519 0.0101111 16.3261 0.0831451 16.4548 0.211901C16.5836 0.340656 16.6566 0.514832 16.6582 0.696913C16.6598 0.878994 16.5898 1.05441 16.4633 1.18539L12.5841 5.06455C12.1934 5.45512 11.6636 5.67452 11.1112 5.67452C10.5588 5.67452 10.029 5.45512 9.63829 5.06455L8.12995 3.55622C7.99759 3.43013 7.82179 3.35979 7.63898 3.35979C7.45617 3.35979 7.28037 3.43013 7.14801 3.55622L4.65773 6.0465Z" fill="#32394D"/>
</svg>
