<svg preserveAspectRatio="xMidYMid meet"  overflow="visible" style="display: block;" viewBox="0 0 16.6667 12.5" fill="none" xmlns="http://www.w3.org/2000/svg">
<g id="Vector">
<path d="M4.86111 8.68064C4.86111 9.25594 4.39474 9.72231 3.81944 9.72231C3.24415 9.72231 2.77778 9.25594 2.77778 8.68064C2.77778 8.10534 3.24415 7.63897 3.81944 7.63897C4.39474 7.63897 4.86111 8.10534 4.86111 8.68064Z" fill="#32394D"/>
<path fill-rule="evenodd" clip-rule="evenodd" d="M3.47222 0H13.1944C14.115 0.00110268 14.9975 0.367279 15.6485 1.01821C16.2994 1.66914 16.6656 2.55167 16.6667 3.47222V9.02778C16.6656 9.94833 16.2994 10.8309 15.6485 11.4818C14.9975 12.1327 14.115 12.4989 13.1944 12.5H3.47222C2.55167 12.4989 1.66914 12.1327 1.01821 11.4818C0.367279 10.8309 0.00110268 9.94833 0 9.02778V3.47222C0.00110268 2.55167 0.367279 1.66914 1.01821 1.01821C1.66914 0.367279 2.55167 0.00110268 3.47222 0ZM13.1944 1.38889H3.47222C2.91969 1.38889 2.38978 1.60838 1.99908 1.99908C1.60838 2.38978 1.38889 2.91969 1.38889 3.47222H15.2778C15.2778 2.91969 15.0583 2.38978 14.6676 1.99908C14.2769 1.60838 13.747 1.38889 13.1944 1.38889ZM3.47222 11.1111H13.1944C13.747 11.1111 14.2769 10.8916 14.6676 10.5009C15.0583 10.1102 15.2778 9.58031 15.2778 9.02778V4.86111H1.38889V9.02778C1.38889 9.58031 1.60838 10.1102 1.99908 10.5009C2.38978 10.8916 2.91969 11.1111 3.47222 11.1111Z" fill="#32394D"/>
</g>
</svg>
