<svg preserveAspectRatio="xMidYMid meet"  overflow="visible" style="display: block;" viewBox="0 0 16.6667 16.6667" fill="none" xmlns="http://www.w3.org/2000/svg">
<path id="Vector" d="M8.33333 0C3.73819 0 0 3.73819 0 8.33333C0 12.9285 3.73819 16.6667 8.33333 16.6667C12.9285 16.6667 16.6667 12.9285 16.6667 8.33333C16.6667 3.73819 12.9285 0 8.33333 0ZM8.33333 15.2778C4.50417 15.2778 1.38889 12.1625 1.38889 8.33333C1.38889 4.50417 4.50417 1.38889 8.33333 1.38889C12.1625 1.38889 15.2778 4.50417 15.2778 8.33333C15.2778 12.1625 12.1625 15.2778 8.33333 15.2778ZM11.1111 9.72222C11.1111 10.8708 10.1764 11.8056 9.02778 11.8056V12.5C9.02778 12.884 8.71736 13.1944 8.33333 13.1944C7.94931 13.1944 7.63889 12.884 7.63889 12.5V11.8056H7.45278C6.71181 11.8056 6.02014 11.4069 5.64861 10.7646C5.45625 10.4319 5.57014 10.0076 5.90139 9.81597C6.23403 9.62222 6.65903 9.7375 6.85 10.0687C6.97431 10.284 7.20486 10.4167 7.45208 10.4167H9.02708C9.41042 10.4167 9.72153 10.1056 9.72153 9.72222C9.72153 9.45972 9.53333 9.2375 9.2743 9.19444L7.1625 8.84236C6.23056 8.6875 5.55486 7.88889 5.55486 6.94444C5.55486 5.79583 6.48958 4.86111 7.63819 4.86111V4.16667C7.63819 3.78333 7.94861 3.47222 8.33264 3.47222C8.71667 3.47222 9.02708 3.78333 9.02708 4.16667V4.86111H9.21319C9.95417 4.86111 10.6458 5.26042 11.0174 5.90278C11.2097 6.23472 11.0958 6.65903 10.7646 6.85139C10.4312 7.04375 10.0069 6.92986 9.81597 6.59792C9.69167 6.38333 9.46111 6.25069 9.21389 6.25069H7.63889C7.25556 6.25069 6.94444 6.5625 6.94444 6.94514C6.94444 7.20764 7.13264 7.42986 7.39167 7.47292L9.50347 7.825C10.4354 7.97986 11.1111 8.77778 11.1111 9.72222Z" fill="#32394D"/>
</svg>
