<svg preserveAspectRatio="xMidYMid meet"  overflow="visible" style="display: block;" viewBox="0 0 16.6667 16.6567" fill="none" xmlns="http://www.w3.org/2000/svg">
<path id="Vector" d="M16.0563 6.28307L10.7889 1.01502C10.137 0.365011 9.25394 0 8.33334 0C7.41274 0 6.5297 0.365011 5.87779 1.01502L0.610425 6.28307C0.416276 6.47598 0.262349 6.7055 0.157566 6.95834C0.0527828 7.21118 -0.000771112 7.4823 8.38853e-06 7.75599V14.5734C8.38853e-06 15.1259 0.219502 15.6558 0.610203 16.0465C1.0009 16.4372 1.53081 16.6567 2.08334 16.6567H14.5833C15.1359 16.6567 15.6658 16.4372 16.0565 16.0465C16.4472 15.6558 16.6667 15.1259 16.6667 14.5734V7.75599C16.6675 7.4823 16.6139 7.21118 16.5091 6.95834C16.4043 6.7055 16.2504 6.47598 16.0563 6.28307ZM10.4167 15.2678H6.25001V12.5359C6.25001 11.9833 6.4695 11.4534 6.8602 11.0627C7.2509 10.672 7.78081 10.4525 8.33334 10.4525C8.88588 10.4525 9.41578 10.672 9.80648 11.0627C10.1972 11.4534 10.4167 11.9833 10.4167 12.5359V15.2678ZM15.2778 14.5734C15.2778 14.7575 15.2046 14.9342 15.0744 15.0644C14.9442 15.1946 14.7675 15.2678 14.5833 15.2678H11.8056V12.5359C11.8056 11.615 11.4397 10.7318 10.7886 10.0806C10.1374 9.42945 9.25423 9.06363 8.33334 9.06363C7.41245 9.06363 6.52928 9.42945 5.87811 10.0806C5.22694 10.7318 4.86112 11.615 4.86112 12.5359V15.2678H2.08334C1.89916 15.2678 1.72253 15.1946 1.5923 15.0644C1.46206 14.9342 1.3889 14.7575 1.3889 14.5734V7.75599C1.38954 7.57195 1.46264 7.39556 1.59237 7.26502L6.85973 1.99905C7.25119 1.60941 7.78103 1.39067 8.33334 1.39067C8.88566 1.39067 9.4155 1.60941 9.80695 1.99905L15.0743 7.2671C15.2035 7.39713 15.2766 7.57267 15.2778 7.75599V14.5734Z" fill="#32394D"/>
</svg>
