<svg preserveAspectRatio="xMidYMid meet"  overflow="visible" style="display: block;" viewBox="0 0 16.6667 16.6667" fill="none" xmlns="http://www.w3.org/2000/svg">
<g id="Vector">
<path d="M6.2501 9.72223H10.4168C10.6009 9.72223 10.7776 9.64906 10.9078 9.51883C11.038 9.3886 11.1112 9.21196 11.1112 9.02778C11.1112 8.8436 11.038 8.66697 10.9078 8.53673C10.7776 8.4065 10.6009 8.33333 10.4168 8.33333H6.2501C6.06592 8.33333 5.88929 8.4065 5.75905 8.53673C5.62882 8.66697 5.55566 8.8436 5.55566 9.02778C5.55566 9.21196 5.62882 9.3886 5.75905 9.51883C5.88929 9.64906 6.06592 9.72223 6.2501 9.72223Z" fill="#32394D"/>
<path d="M13.1944 0H3.47222C2.55167 0.00110268 1.66914 0.367279 1.01821 1.01821C0.367279 1.66914 0.00110268 2.55167 0 3.47222V4.16667C0.00020195 4.45954 0.0621533 4.74909 0.181812 5.0164C0.30147 5.28372 0.476147 5.5228 0.694444 5.71806V13.1944C0.695547 14.115 1.06172 14.9975 1.71265 15.6485C2.36358 16.2994 3.24611 16.6656 4.16667 16.6667H12.5C13.4206 16.6656 14.3031 16.2994 14.954 15.6485C15.6049 14.9975 15.9711 14.115 15.9722 13.1944V5.71806C16.1905 5.5228 16.3652 5.28372 16.4849 5.0164C16.6045 4.74909 16.6665 4.45954 16.6667 4.16667V3.47222C16.6656 2.55167 16.2994 1.66914 15.6485 1.01821C14.9975 0.367279 14.115 0.00110268 13.1944 0ZM1.38889 3.47222C1.38889 2.91969 1.60838 2.38978 1.99908 1.99908C2.38978 1.60838 2.91969 1.38889 3.47222 1.38889H13.1944C13.747 1.38889 14.2769 1.60838 14.6676 1.99908C15.0583 2.38978 15.2778 2.91969 15.2778 3.47222V4.16667C15.2778 4.35084 15.2046 4.52748 15.0744 4.65771C14.9441 4.78795 14.7675 4.86111 14.5833 4.86111H2.08333C1.89916 4.86111 1.72252 4.78795 1.59229 4.65771C1.46205 4.52748 1.38889 4.35084 1.38889 4.16667V3.47222ZM14.5833 13.1944C14.5833 13.747 14.3638 14.2769 13.9731 14.6676C13.5824 15.0583 13.0525 15.2778 12.5 15.2778H4.16667C3.61413 15.2778 3.08423 15.0583 2.69353 14.6676C2.30283 14.2769 2.08333 13.747 2.08333 13.1944V6.25H14.5833V13.1944Z" fill="#32394D"/>
</g>
</svg>
