<svg preserveAspectRatio="xMidYMid meet"  overflow="visible" style="display: block;" viewBox="0 0 16.6704 16.6667" fill="none" xmlns="http://www.w3.org/2000/svg">
<path id="Vector" d="M11.8056 0C11.6214 0 11.4447 0.0731645 11.3145 0.203398C11.1843 0.333632 11.1111 0.510266 11.1111 0.694444C11.1111 2.74236 9.31736 3.47222 7.63889 3.47222H2.77778C2.04107 3.47222 1.33453 3.76488 0.813592 4.28581C0.292658 4.80675 0 5.51329 0 6.25V7.63889C0.00151678 8.05468 0.0968484 8.46477 0.278891 8.83859C0.460933 9.21241 0.724992 9.54033 1.05139 9.79792L3.53194 15.334C3.70836 15.7306 3.99595 16.0676 4.35991 16.3041C4.72387 16.5406 5.14858 16.6665 5.58264 16.6667C5.92799 16.6664 6.26781 16.5799 6.57116 16.4148C6.8745 16.2497 7.13175 16.0114 7.31948 15.7215C7.50721 15.4316 7.61946 15.0994 7.64602 14.7551C7.67257 14.4107 7.61259 14.0652 7.47153 13.75L5.94375 10.4167H7.63889C9.31736 10.4167 11.1111 11.1465 11.1111 13.1944C11.1111 13.3786 11.1843 13.5553 11.3145 13.6855C11.4447 13.8157 11.6214 13.8889 11.8056 13.8889C11.9897 13.8889 12.1664 13.8157 12.2966 13.6855C12.4268 13.5553 12.5 13.3786 12.5 13.1944V0.694444C12.5 0.510266 12.4268 0.333632 12.2966 0.203398C12.1664 0.0731645 11.9897 0 11.8056 0ZM6.20625 14.3187C6.25225 14.4226 6.27159 14.5363 6.26253 14.6496C6.25347 14.7628 6.21629 14.872 6.15436 14.9673C6.09242 15.0625 6.0077 15.1408 5.90787 15.195C5.80803 15.2492 5.69625 15.2777 5.58264 15.2778C5.41694 15.2777 5.25484 15.2294 5.11603 15.1389C4.97722 15.0485 4.86767 14.9196 4.8007 14.7681L2.85069 10.4167H4.41597L6.20625 14.3187ZM11.1111 10.1389C10.119 9.37443 8.89053 8.98134 7.63889 9.02778H2.77778C2.40942 9.02778 2.05615 8.88145 1.79569 8.62098C1.53522 8.36051 1.38889 8.00724 1.38889 7.63889V6.25C1.38889 5.88164 1.53522 5.52837 1.79569 5.26791C2.05615 5.00744 2.40942 4.86111 2.77778 4.86111H7.63889C8.89011 4.90854 10.1185 4.51669 11.1111 3.75347V10.1389ZM16.5972 10.7306C16.5565 10.8122 16.5001 10.885 16.4312 10.9448C16.3623 11.0047 16.2823 11.0503 16.1957 11.0792C16.1092 11.1081 16.0178 11.1197 15.9268 11.1132C15.8357 11.1068 15.7469 11.0825 15.6653 11.0417L14.2764 10.3472C14.1116 10.2649 13.9862 10.1205 13.9278 9.94568C13.8695 9.77091 13.883 9.58012 13.9653 9.41528C14.0476 9.25044 14.192 9.12505 14.3668 9.06671C14.5416 9.00837 14.7324 9.02184 14.8972 9.10417L16.2861 9.79861C16.4501 9.88089 16.5749 10.0247 16.6332 10.1987C16.6915 10.3726 16.6785 10.5626 16.5972 10.7271V10.7306ZM13.9653 4.48056C13.9245 4.39894 13.9002 4.31009 13.8937 4.21907C13.8873 4.12806 13.8988 4.03666 13.9277 3.95011C13.9566 3.86356 14.0023 3.78356 14.0621 3.71466C14.1219 3.64577 14.1947 3.58935 14.2764 3.54861L15.6653 2.85417C15.8301 2.77184 16.0209 2.75837 16.1957 2.81671C16.3705 2.87505 16.5149 3.00044 16.5972 3.16528C16.6796 3.33012 16.693 3.52091 16.6347 3.69568C16.5763 3.87046 16.451 4.01489 16.2861 4.09722L14.8972 4.79167C14.8156 4.83247 14.7268 4.85679 14.6357 4.86324C14.5447 4.86968 14.4533 4.85813 14.3668 4.82924C14.2802 4.80034 14.2002 4.75468 14.1313 4.69485C14.0624 4.63502 14.006 4.5622 13.9653 4.48056ZM13.8889 6.94444C13.8889 6.76027 13.9621 6.58363 14.0923 6.4534C14.2225 6.32316 14.3992 6.25 14.5833 6.25H15.9722C16.1564 6.25 16.333 6.32316 16.4633 6.4534C16.5935 6.58363 16.6667 6.76027 16.6667 6.94444C16.6667 7.12862 16.5935 7.30526 16.4633 7.43549C16.333 7.56572 16.1564 7.63889 15.9722 7.63889H14.5833C14.3992 7.63889 14.2225 7.56572 14.0923 7.43549C13.9621 7.30526 13.8889 7.12862 13.8889 6.94444Z" fill="#32394D"/>
</svg>
