<svg preserveAspectRatio="xMidYMid meet"  style="display: block;" viewBox="0 0 16.6804 16.6804" fill="none" xmlns="http://www.w3.org/2000/svg">
<path id="Vector" d="M16.4854 15.5035L12.3403 11.3583C13.4699 9.97681 14.0253 8.21396 13.8916 6.43442C13.7579 4.65489 12.9453 2.99482 11.6219 1.79759C10.2986 0.60036 8.56569 -0.04243 6.7817 0.00217541C4.99771 0.0467808 3.29911 0.775369 2.03724 2.03724C0.775369 3.29911 0.0467808 4.99771 0.00217541 6.7817C-0.04243 8.56569 0.60036 10.2986 1.79759 11.6219C2.99482 12.9453 4.65489 13.7579 6.43442 13.8916C8.21396 14.0253 9.97681 13.4699 11.3583 12.3403L15.5035 16.4854C15.6345 16.6119 15.8099 16.6819 15.9919 16.6803C16.174 16.6788 16.3482 16.6057 16.477 16.477C16.6057 16.3482 16.6788 16.174 16.6803 15.9919C16.6819 15.8099 16.6119 15.6345 16.4854 15.5035ZM6.96667 12.5222C5.86789 12.5222 4.79378 12.1964 3.88017 11.5859C2.96656 10.9755 2.25449 10.1078 1.83401 9.09269C1.41352 8.07755 1.3035 6.96051 1.51787 5.88284C1.73223 4.80516 2.26134 3.81526 3.0383 3.0383C3.81526 2.26134 4.80516 1.73223 5.88284 1.51787C6.96051 1.3035 8.07755 1.41352 9.09269 1.83401C10.1078 2.25449 10.9755 2.96656 11.5859 3.88017C12.1964 4.79378 12.5222 5.86789 12.5222 6.96667C12.5206 8.43959 11.9347 9.85171 10.8932 10.8932C9.85171 11.9347 8.43959 12.5206 6.96667 12.5222Z" fill="#32394D"/>
</svg>
