<svg preserveAspectRatio="xMidYMid meet"  overflow="visible" style="display: block;" viewBox="0 0 25.8392 25.8333" fill="none" xmlns="http://www.w3.org/2000/svg">
<path id="Vector" d="M18.2986 0C18.0131 0 17.7394 0.113405 17.5375 0.315267C17.3356 0.517129 17.2222 0.790913 17.2222 1.07639C17.2222 4.25066 14.4419 5.38194 11.8403 5.38194H4.30556C3.16365 5.38194 2.06852 5.83556 1.26107 6.64301C0.45362 7.45046 0 8.5456 0 9.6875V11.8403C0.00235101 12.4848 0.150115 13.1204 0.432281 13.6998C0.714446 14.2792 1.12374 14.7875 1.62965 15.1868L5.47451 23.7677C5.74796 24.3825 6.19373 24.9047 6.75786 25.2713C7.322 25.6379 7.9803 25.8331 8.65309 25.8333C9.18839 25.833 9.71511 25.6988 10.1853 25.4429C10.6555 25.187 11.0542 24.8176 11.3452 24.3683C11.6362 23.919 11.8102 23.4041 11.8513 22.8704C11.8925 22.3366 11.7995 21.8011 11.5809 21.3125L9.21281 16.1458H11.8403C14.4419 16.1458 17.2222 17.2771 17.2222 20.4514C17.2222 20.7369 17.3356 21.0107 17.5375 21.2125C17.7394 21.4144 18.0131 21.5278 18.2986 21.5278C18.5841 21.5278 18.8579 21.4144 19.0597 21.2125C19.2616 21.0107 19.375 20.7369 19.375 20.4514V1.07639C19.375 0.790913 19.2616 0.517129 19.0597 0.315267C18.8579 0.113405 18.5841 0 18.2986 0ZM9.61969 22.1941C9.69099 22.3551 9.72097 22.5313 9.70692 22.7069C9.69288 22.8824 9.63524 23.0516 9.53925 23.1993C9.44326 23.3469 9.31194 23.4682 9.15719 23.5523C9.00245 23.6363 8.82918 23.6804 8.65309 23.6806C8.39626 23.6804 8.145 23.6056 7.92985 23.4654C7.71469 23.3251 7.54489 23.1254 7.44108 22.8905L4.41858 16.1458H6.84476L9.61969 22.1941ZM17.2222 15.7153C15.6844 14.5304 13.7803 13.9211 11.8403 13.9931H4.30556C3.7346 13.9931 3.18704 13.7662 2.78331 13.3625C2.37959 12.9588 2.15278 12.4112 2.15278 11.8403V9.6875C2.15278 9.11655 2.37959 8.56898 2.78331 8.16526C3.18704 7.76153 3.7346 7.53472 4.30556 7.53472H11.8403C13.7797 7.60824 15.6837 7.00086 17.2222 5.81788V15.7153ZM25.7257 16.6324C25.6626 16.7589 25.5751 16.8718 25.4683 16.9645C25.3615 17.0573 25.2375 17.128 25.1034 17.1728C24.9692 17.2176 24.8276 17.2355 24.6865 17.2255C24.5454 17.2155 24.4077 17.1778 24.2812 17.1146L22.1284 16.0382C21.8729 15.9106 21.6786 15.6867 21.5881 15.4158C21.4977 15.1449 21.5186 14.8492 21.6462 14.5937C21.7738 14.3382 21.9977 14.1438 22.2686 14.0534C22.5395 13.963 22.8352 13.9839 23.0907 14.1115L25.2435 15.1878C25.4977 15.3154 25.6911 15.5383 25.7814 15.808C25.8718 16.0776 25.8517 16.372 25.7257 16.627V16.6324ZM21.6462 6.94486C21.5829 6.81836 21.5452 6.68064 21.5352 6.53956C21.5253 6.39849 21.5432 6.25682 21.5879 6.12267C21.6327 5.98852 21.7035 5.86451 21.7962 5.75773C21.889 5.65095 22.0019 5.56349 22.1284 5.50035L24.2812 4.42396C24.5367 4.29635 24.8324 4.27547 25.1033 4.3659C25.3742 4.45634 25.5981 4.65068 25.7257 4.90618C25.8533 5.16168 25.8742 5.45741 25.7838 5.72831C25.6933 5.99921 25.499 6.22309 25.2435 6.35069L23.0907 7.42708C22.9642 7.49033 22.8265 7.52802 22.6854 7.53802C22.5443 7.54801 22.4027 7.5301 22.2685 7.48532C22.1344 7.44053 22.0103 7.36975 21.9036 7.27702C21.7968 7.18428 21.7093 7.07141 21.6462 6.94486ZM21.5278 10.7639C21.5278 10.4784 21.6412 10.2046 21.843 10.0028C22.0449 9.80091 22.3187 9.6875 22.6042 9.6875H24.7569C25.0424 9.6875 25.3162 9.80091 25.5181 10.0028C25.7199 10.2046 25.8333 10.4784 25.8333 10.7639C25.8333 11.0494 25.7199 11.3231 25.5181 11.525C25.3162 11.7269 25.0424 11.8403 24.7569 11.8403H22.6042C22.3187 11.8403 22.0449 11.7269 21.843 11.525C21.6412 11.3231 21.5278 11.0494 21.5278 10.7639Z" fill="#FF6102"/>
</svg>
