<svg preserveAspectRatio="xMidYMid meet"  overflow="visible" style="display: block;" viewBox="0 0 56 40" fill="none" xmlns="http://www.w3.org/2000/svg">
<g id="Group 11">
<path id="Vector" d="M50.6667 0H5.33333C2.38781 0 0 2.38781 0 5.33333V34.6667C0 37.6122 2.38781 40 5.33333 40H50.6667C53.6122 40 56 37.6122 56 34.6667V5.33333C56 2.38781 53.6122 0 50.6667 0Z" fill="white"/>
<path id="Vector_2" fill-rule="evenodd" clip-rule="evenodd" d="M0 26.6667H56V40H0V26.6667ZM0 0H56V13.3333H0V0Z" fill="#75AEE0"/>
<path id="Vector_3" d="M28 24C30.2091 24 32 22.2091 32 20C32 17.7909 30.2091 16 28 16C25.7909 16 24 17.7909 24 20C24 22.2091 25.7909 24 28 24Z" fill="#FFDA2C"/>
</g>
</svg>
