<svg preserveAspectRatio="xMidYMid meet"  overflow="visible" style="display: block;" viewBox="0 0 40 40" fill="none" xmlns="http://www.w3.org/2000/svg">
<g id="Group">
<g id="Group_2">
<path id="Vector" fill-rule="evenodd" clip-rule="evenodd" d="M20 40C31.0457 40 40 31.0457 40 20C40 8.95429 31.0457 0 20 0C8.95429 0 0 8.95429 0 20C0 31.0457 8.95429 40 20 40Z" fill="#E92B2B"/>
<path id="Vector_2" fill-rule="evenodd" clip-rule="evenodd" d="M0 20H40C40 8.95705 31.0502 0.00446429 20.0083 0H19.9917C8.94982 0.00446429 0 8.95705 0 20Z" fill="#FBFBFB"/>
<path id="Vector_3" fill-rule="evenodd" clip-rule="evenodd" d="M18.5714 0.0500892V19.9998H0C0 9.43447 8.1925 0.782589 18.5714 0.0500892Z" fill="#2A2FAF"/>
</g>
<path id="Vector_4" d="M10.7145 6.42891L11.8948 9.97569H15.7145L12.6243 12.1678L13.8046 15.7146L10.7145 13.5226L7.62427 15.7146L8.80463 12.1678L5.71445 9.97569H9.5341L10.7145 6.42891Z" fill="#FBFBFB"/>
</g>
</svg>
