<svg preserveAspectRatio="xMidYMid meet"  overflow="visible" style="display: block;" viewBox="0 0 40 40.0002" fill="none" xmlns="http://www.w3.org/2000/svg">
<g id="Group">
<path id="Vector" fill-rule="evenodd" clip-rule="evenodd" d="M20 0C31.0457 0 40 8.95429 40 20C40 31.0457 31.0457 40 20 40C8.95429 40 0 31.0457 0 20C0 8.95429 8.95429 0 20 0Z" fill="#FFE70E"/>
<path id="Vector_2" fill-rule="evenodd" clip-rule="evenodd" d="M37.719 29.2859C34.3739 35.6557 27.6947 40.0002 20.0007 40.0002C12.3068 40.0002 5.62751 35.6557 2.28242 29.2859H37.719Z" fill="#E92B2B"/>
<path id="Vector_3" fill-rule="evenodd" clip-rule="evenodd" d="M2.2817 29.2856C0.824554 26.5108 0 23.3516 0 19.9999C0 19.276 0.0383929 18.561 0.113393 17.857H39.8866C39.9623 18.5688 40.0002 19.2841 40 19.9999C40 23.3516 39.1755 26.5108 37.7183 29.2856H2.2817Z" fill="#2A2FAF"/>
</g>
</svg>
